MonaSansDisplay.glyphspackage
{
glyphname = exclam;
kernLeft = KO_exclam;
layers = (
{
layerId = "71D8B5AD-B400-4239-9672-E7BA455EF2D0";
shapes = (
{
closed = 1;
nodes = (
(74,125,l),
(79,523,l),
(79,729,l),
(47,729,l),
(47,523,l),
(52,125,l)
);
},
{
closed = 1;
nodes = (
(79,-6,o),
(90,5,o),
(90,21,cs),
(90,37,o),
(79,48,o),
(63,48,cs),
(47,48,o),
(36,37,o),
(36,21,cs),
(36,5,o),
(47,-6,o),
(63,-6,cs)
);
}
);
width = 125;
},
{
layerId = "FFCA1F59-E305-4E0F-BBF9-E0C4511C19C1";
shapes = (
{
closed = 1;
nodes = (
(168,215,l),
(191,507,l),
(191,729,l),
(15,729,l),
(15,507,l),
(38,215,l)
);
},
{
closed = 1;
nodes = (
(158,-10,o),
(199,31,o),
(199,86,cs),
(199,141,o),
(158,182,o),
(103,182,cs),
(48,182,o),
(7,141,o),
(7,86,cs),
(7,31,o),
(48,-10,o),
(103,-10,cs)
);
}
);
width = 207;
},
{
layerId = "5A048DDA-4734-4F8A-A53C-0BED34B57D1C";
shapes = (
{
closed = 1;
nodes = (
(103,152,l),
(113,463,l),
(113,729,l),
(74,729,l),
(74,463,l),
(83,152,l)
);
},
{
closed = 1;
nodes = (
(112,-7,o),
(127,8,o),
(127,27,cs),
(127,46,o),
(112,61,o),
(93,61,cs),
(74,61,o),
(59,46,o),
(59,27,cs),
(59,8,o),
(74,-7,o),
(93,-7,cs)
);
}
);
width = 186;
},
{
layerId = "DED42A87-C949-4722-A202-2B551272A3FB";
shapes = (
{
closed = 1;
nodes = (
(187,236,l),
(225,487,l),
(225,729,l),
(22,729,l),
(22,487,l),
(60,236,l)
);
},
{
closed = 1;
nodes = (
(182,-8,o),
(226,36,o),
(226,95,cs),
(226,154,o),
(182,198,o),
(123,198,cs),
(64,198,o),
(20,154,o),
(20,95,cs),
(20,36,o),
(64,-8,o),
(123,-8,cs)
);
}
);
width = 246;
},
{
layerId = "106FCE83-F343-403B-A314-646E4D059B3F";
shapes = (
{
closed = 1;
nodes = (
(90,142,l),
(99,449,l),
(99,729,l),
(61,729,l),
(61,449,l),
(70,142,l)
);
},
{
closed = 1;
nodes = (
(99,-7,o),
(114,7,o),
(114,27,cs),
(114,47,o),
(99,61,o),
(80,61,cs),
(61,61,o),
(46,47,o),
(46,27,cs),
(46,7,o),
(61,-7,o),
(80,-7,cs)
);
}
);
width = 160;
},
{
layerId = "2D1A1AFE-39FB-4EBD-856C-88C6B057247F";
shapes = (
{
closed = 1;
nodes = (
(207,232,l),
(256,484,l),
(256,729,l),
(27,729,l),
(27,484,l),
(78,232,l)
);
},
{
closed = 1;
nodes = (
(214,-10,o),
(261,29,o),
(261,91,cs),
(261,152,o),
(214,190,o),
(141,190,cs),
(68,190,o),
(21,152,o),
(21,91,cs),
(21,29,o),
(68,-10,o),
(141,-10,cs)
);
}
);
width = 283;
}
);
unicode = 33;
userData = {
KernOnName = exclam;
KernOnSpecialSpacing = {
L = "spaced-off";
};
};
}
{
glyphname = numbersign;
layers = (
{
layerId = "71D8B5AD-B400-4239-9672-E7BA455EF2D0";
shapes = (
{
closed = 1;
nodes = (
(144,0,l),
(144,265,l),
(265,265,l),
(265,0,l),
(293,0,l),
(293,265,l),
(405,265,l),
(405,291,l),
(293,291,l),
(293,462,l),
(405,462,l),
(405,488,l),
(293,488,l),
(293,729,l),
(265,729,l),
(265,488,l),
(144,488,l),
(144,729,l),
(116,729,l),
(116,488,l),
(-2,488,l),
(-2,462,l),
(116,462,l),
(116,291,l),
(-2,291,l),
(-2,265,l),
(116,265,l),
(116,0,l)
);
},
{
closed = 1;
nodes = (
(144,462,l),
(265,462,l),
(265,291,l),
(144,291,l)
);
}
);
width = 403;
},
{
layerId = "FFCA1F59-E305-4E0F-BBF9-E0C4511C19C1";
shapes = (
{
closed = 1;
nodes = (
(232,0,l),
(232,192,l),
(313,192,l),
(313,0,l),
(450,0,l),
(450,192,l),
(540,192,l),
(540,315,l),
(450,315,l),
(450,417,l),
(540,417,l),
(540,540,l),
(450,540,l),
(450,729,l),
(313,729,l),
(313,540,l),
(232,540,l),
(232,729,l),
(94,729,l),
(94,540,l),
(4,540,l),
(4,417,l),
(94,417,l),
(94,315,l),
(4,315,l),
(4,192,l),
(94,192,l),
(94,0,l)
);
},
{
closed = 1;
nodes = (
(232,417,l),
(313,417,l),
(313,315,l),
(232,315,l)
);
}
);
width = 544;
},
{
layerId = "5A048DDA-4734-4F8A-A53C-0BED34B57D1C";
shapes = (
{
closed = 1;
nodes = (
(202,0,l),
(202,245,l),
(387,245,l),
(387,0,l),
(419,0,l),
(419,245,l),
(576,245,l),
(576,273,l),
(419,273,l),
(419,480,l),
(576,480,l),
(576,507,l),
(419,507,l),
(419,729,l),
(387,729,l),
(387,507,l),
(202,507,l),
(202,729,l),
(170,729,l),
(170,507,l),
(7,507,l),
(7,480,l),
(170,480,l),
(170,273,l),
(7,273,l),
(7,245,l),
(170,245,l),
(170,0,l)
);
},
{
closed = 1;
nodes = (
(202,480,l),
(387,480,l),
(387,273,l),
(202,273,l)
);
}
);
userData = {
com.schriftgestaltung.hints = (
{
horizontal = 1;
options = 0;
origin = (
0,
27
);
stem = -2;
target = (
u,
p
);
type = BottomGhost;
},
{
horizontal = 1;
options = 0;
origin = (
0,
24
);
stem = -2;
target = (
0,
25
);
type = Stem;
},
{
horizontal = 1;
options = 0;
origin = (
0,
20
);
stem = -2;
target = (
0,
21
);
type = Stem;
},
{
horizontal = 1;
options = 0;
origin = (
0,
18
);
stem = -2;
target = (
d,
o,
w,
n
);
type = TopGhost;
},
{
horizontal = 0;
options = 0;
origin = (
0,
27
);
stem = -2;
target = (
0,
0
);
type = Stem;
},
{
horizontal = 0;
options = 0;
origin = (
0,
3
);
stem = -2;
target = (
0,
4
);
type = Stem;
}
);
};
width = 583;
},
{
layerId = "DED42A87-C949-4722-A202-2B551272A3FB";
shapes = (
{
closed = 1;
nodes = (
(271,0,l),
(271,182,l),
(385,182,l),
(385,0,l),
(525,0,l),
(525,182,l),
(648,182,l),
(648,309,l),
(525,309,l),
(525,423,l),
(648,423,l),
(648,551,l),
(525,551,l),
(525,729,l),
(385,729,l),
(385,551,l),
(271,551,l),
(271,729,l),
(129,729,l),
(129,551,l),
(5,551,l),
(5,423,l),
(129,423,l),
(129,309,l),
(5,309,l),
(5,182,l),
(129,182,l),
(129,0,l)
);
},
{
closed = 1;
nodes = (
(271,423,l),
(385,423,l),
(385,309,l),
(271,309,l)
);
}
);
width = 653;
},
{
layerId = "106FCE83-F343-403B-A314-646E4D059B3F";
shapes = (
{
closed = 1;
nodes = (
(220,0,l),
(220,245,l),
(430,245,l),
(430,0,l),
(462,0,l),
(462,245,l),
(635,245,l),
(635,273,l),
(462,273,l),
(462,480,l),
(635,480,l),
(635,507,l),
(462,507,l),
(462,729,l),
(430,729,l),
(430,507,l),
(220,507,l),
(220,729,l),
(188,729,l),
(188,507,l),
(9,507,l),
(9,480,l),
(188,480,l),
(188,273,l),
(9,273,l),
(9,245,l),
(188,245,l),
(188,0,l)
);
},
{
closed = 1;
nodes = (
(220,480,l),
(430,480,l),
(430,273,l),
(220,273,l)
);
}
);
width = 643;
},
{
layerId = "2D1A1AFE-39FB-4EBD-856C-88C6B057247F";
shapes = (
{
closed = 1;
nodes = (
(297,0,l),
(297,166,l),
(423,166,l),
(423,0,l),
(585,0,l),
(585,166,l),
(716,166,l),
(716,302,l),
(585,302,l),
(585,430,l),
(716,430,l),
(716,566,l),
(585,566,l),
(585,729,l),
(423,729,l),
(423,566,l),
(297,566,l),
(297,729,l),
(135,729,l),
(135,566,l),
(4,566,l),
(4,430,l),
(135,430,l),
(135,302,l),
(4,302,l),
(4,166,l),
(135,166,l),
(135,0,l)
);
},
{
closed = 1;
nodes = (
(297,430,l),
(423,430,l),
(423,302,l),
(297,302,l)
);
}
);
width = 720;
}
);
unicode = 35;
}
{
glyphname = dollar;
layers = (
{
layerId = "71D8B5AD-B400-4239-9672-E7BA455EF2D0";
shapes = (
{
closed = 1;
nodes = (
(275,10,o),
(335,66,o),
(335,180,cs),
(335,305,o),
(270,342,o),
(198,379,cs),
(129,414,o),
(68,450,o),
(68,556,cs),
(68,635,o),
(97,688,o),
(173,688,cs),
(242,688,o),
(292,656,o),
(293,522,c),
(326,522,l),
(325,639,o),
(290,719,o),
(176,719,cs),
(92,719,o),
(36,666,o),
(36,557,cs),
(36,425,o),
(107,388,o),
(175,354,cs),
(246,318,o),
(302,283,o),
(302,182,cs),
(302,98,o),
(269,40,o),
(184,40,cs),
(106,40,o),
(54,88,o),
(54,232,c),
(20,232,l),
(23,99,o),
(64,10,o),
(186,10,cs)
);
},
{
closed = 1;
nodes = (
(192,-85,l),
(192,20,l),
(164,20,l),
(164,-85,l)
);
},
{
closed = 1;
nodes = (
(192,706,l),
(192,814,l),
(164,814,l),
(164,706,l)
);
}
);
width = 357;
},
{
layerId = "FFCA1F59-E305-4E0F-BBF9-E0C4511C19C1";
shapes = (
{
closed = 1;
nodes = (
(359,8,o),
(429,74,o),
(429,212,cs),
(429,327,o),
(358,389,o),
(274,438,cs),
(208,476,o),
(189,494,o),
(189,540,cs),
(189,571,o),
(199,590,o),
(225,590,cs),
(254,590,o),
(266,568,o),
(265,504,c),
(423,504,l),
(423,659,o),
(345,722,o),
(222,722,cs),
(98,722,o),
(13,664,o),
(13,527,cs),
(13,410,o),
(78,352,o),
(154,308,cs),
(223,268,o),
(250,246,o),
(250,196,cs),
(250,163,o),
(241,143,o),
(212,143,cs),
(181,143,o),
(164,166,o),
(164,239,c),
(9,239,l),
(9,100,o),
(68,8,o),
(218,8,cs)
);
},
{
closed = 1;
nodes = (
(272,-85,l),
(272,67,l),
(167,67,l),
(167,-85,l)
);
},
{
closed = 1;
nodes = (
(272,643,l),
(272,815,l),
(167,815,l),
(167,643,l)
);
}
);
width = 438;
},
{
layerId = "5A048DDA-4734-4F8A-A53C-0BED34B57D1C";
shapes = (
{
closed = 1;
nodes = (
(469,10,o),
(561,84,o),
(561,194,cs),
(561,339,o),
(458,372,o),
(323,396,cs),
(166,425,o),
(105,447,o),
(105,545,cs),
(105,629,o),
(174,685,o),
(295,685,cs),
(422,685,o),
(493,625,o),
(497,521,c),
(537,521,l),
(534,640,o),
(453,719,o),
(299,719,cs),
(151,719,o),
(64,647,o),
(64,540,cs),
(64,421,o),
(150,388,o),
(308,359,cs),
(463,331,o),
(521,293,o),
(521,192,cs),
(521,92,o),
(434,44,o),
(306,44,cs),
(159,44,o),
(92,116,o),
(88,232,c),
(47,232,l),
(50,100,o),
(132,10,o),
(308,10,cs)
);
},
{
closed = 1;
nodes = (
(321,-85,l),
(321,23,l),
(288,23,l),
(288,-85,l)
);
},
{
closed = 1;
nodes = (
(321,699,l),
(321,814,l),
(288,814,l),
(288,699,l)
);
}
);
userData = {
com.schriftgestaltung.Glyphs.glyph.leftMetricsKey = S;
com.schriftgestaltung.Glyphs.glyph.rightMetricsKey = S;
com.schriftgestaltung.hints = (
{
horizontal = 1;
options = 0;
place = (
0,
0
);
stem = -2;
type = Stem;
},
{
horizontal = 1;
options = 0;
place = (
0,
0
);
stem = -2;
type = Stem;
},
{
horizontal = 0;
options = 0;
place = (
0,
0
);
stem = -2;
type = Stem;
},
{
horizontal = 0;
options = 0;
place = (
246,
48
);
stem = -2;
type = Stem;
},
{
horizontal = 0;
options = 0;
place = (
0,
0
);
stem = -2;
type = Stem;
},
{
horizontal = 0;
options = 0;
place = (
0,
0
);
stem = -2;
type = Stem;
}
);
};
width = 608;
},
{
layerId = "DED42A87-C949-4722-A202-2B551272A3FB";
shapes = (
{
closed = 1;
nodes = (
(521,8,o),
(621,101,o),
(621,232,cs),
(621,409,o),
(493,440,o),
(381,456,cs),
(255,475,o),
(236,481,o),
(236,521,cs),
(236,553,o),
(267,573,o),
(315,573,cs),
(353,573,o),
(396,561,o),
(399,511,c),
(601,511,l),
(601,638,o),
(487,722,o),
(319,722,cs),
(140,722,o),
(28,637,o),
(28,495,cs),
(28,362,o),
(126,304,o),
(275,282,cs),
(404,264,o),
(412,253,o),
(412,212,cs),
(412,177,o),
(377,160,o),
(326,160,cs),
(248,160,o),
(218,192,o),
(218,239,c),
(14,239,l),
(14,100,o),
(122,8,o),
(316,8,cs)
);
},
{
closed = 1;
nodes = (
(384,-85,l),
(384,82,l),
(252,82,l),
(252,-85,l)
);
},
{
closed = 1;
nodes = (
(384,632,l),
(384,814,l),
(252,814,l),
(252,632,l)
);
}
);
userData = {
com.schriftgestaltung.Glyphs.glyph.leftMetricsKey = S;
com.schriftgestaltung.Glyphs.glyph.rightMetricsKey = S;
};
width = 635;
},
{
layerId = "106FCE83-F343-403B-A314-646E4D059B3F";
shapes = (
{
closed = 1;
nodes = (
(496,10,o),
(612,74,o),
(612,198,cs),
(612,357,o),
(475,377,o),
(332,397,cs),
(186,417,o),
(92,432,o),
(92,543,cs),
(92,627,o),
(164,685,o),
(315,685,cs),
(454,685,o),
(539,631,o),
(544,521,c),
(585,521,l),
(580,645,o),
(483,719,o),
(316,719,cs),
(160,719,o),
(52,654,o),
(52,540,cs),
(52,400,o),
(175,380,o),
(321,360,cs),
(467,340,o),
(571,323,o),
(571,198,cs),
(571,104,o),
(496,44,o),
(324,44,cs),
(176,44,o),
(81,94,o),
(74,232,c),
(34,232,l),
(40,100,o),
(123,10,o),
(324,10,cs)
);
},
{
closed = 1;
nodes = (
(340,-85,l),
(340,22,l),
(306,22,l),
(306,-85,l)
);
},
{
closed = 1;
nodes = (
(340,700,l),
(340,814,l),
(306,814,l),
(306,700,l)
);
}
);
width = 646;
},
{
layerId = "2D1A1AFE-39FB-4EBD-856C-88C6B057247F";
shapes = (
{
closed = 1;
nodes = (
(570,9,o),
(693,93,o),
(693,234,cs),
(693,385,o),
(614,435,o),
(389,461,cs),
(275,474,o),
(257,479,o),
(257,518,cs),
(257,550,o),
(288,571,o),
(343,571,cs),
(399,571,o),
(432,552,o),
(440,508,c),
(669,508,l),
(655,648,o),
(531,721,o),
(353,721,cs),
(149,721,o),
(24,641,o),
(24,493,cs),
(24,359,o),
(110,302,o),
(332,276,cs),
(437,264,o),
(458,258,o),
(458,215,cs),
(458,181,o),
(423,162,o),
(362,162,cs),
(284,162,o),
(244,195,o),
(242,243,c),
(7,243,l),
(7,106,o),
(117,9,o),
(352,9,cs)
);
},
{
closed = 1;
nodes = (
(425,-85,l),
(425,79,l),
(275,79,l),
(275,-85,l)
);
},
{
closed = 1;
nodes = (
(425,627,l),
(425,815,l),
(275,815,l),
(275,627,l)
);
}
);
width = 700;
}
);
unicode = 36;
userData = {
KernOnSpecialSpacing = {
L = symbols;
R = symbols;
};
};
}
{
glyphname = percent;
layers = (
{
layerId = "71D8B5AD-B400-4239-9672-E7BA455EF2D0";
shapes = (
{
closed = 1;
nodes = (
(157,0,l),
(439,729,l),
(405,729,l),
(124,0,l)
);
},
{
closed = 1;
nodes = (
(202,324,o),
(229,399,o),
(229,527,cs),
(229,655,o),
(202,729,o),
(135,729,cs),
(67,729,o),
(40,655,o),
(40,527,cs),
(40,399,o),
(67,324,o),
(135,324,cs)
);
},
{
closed = 1;
nodes = (
(96,353,o),
(73,390,o),
(73,527,cs),
(73,663,o),
(96,701,o),
(135,701,cs),
(173,701,o),
(196,663,o),
(196,527,cs),
(196,390,o),
(173,353,o),
(135,353,cs)
);
},
{
closed = 1;
nodes = (
(496,-6,o),
(523,70,o),
(523,197,cs),
(523,324,o),
(496,399,o),
(429,399,cs),
(360,399,o),
(334,324,o),
(334,197,cs),
(334,71,o),
(360,-6,o),
(429,-6,cs)
);
},
{
closed = 1;
nodes = (
(390,23,o),
(366,59,o),
(366,197,cs),
(366,335,o),
(390,372,o),
(429,372,cs),
(466,372,o),
(490,335,o),
(490,197,cs),
(490,59,o),
(466,23,o),
(429,23,cs)
);
}
);
width = 563;
},
{
background = {
shapes = (
{
closed = 1;
nodes = (
(550,90,o),
(549,120,o),
(549,183,cs),
(549,247,o),
(550,276,o),
(570,276,cs),
(589,276,o),
(590,254,o),
(590,183,cs),
(590,115,o),
(589,90,o),
(570,90,cs)
);
}
);
};
layerId = "FFCA1F59-E305-4E0F-BBF9-E0C4511C19C1";
shapes = (
{
closed = 1;
nodes = (
(250,0,l),
(563,729,l),
(453,729,l),
(140,0,l)
);
},
{
closed = 1;
nodes = (
(223,352,o),
(282,388,o),
(282,540,cs),
(282,692,o),
(223,729,o),
(142,729,cs),
(62,729,o),
(3,694,o),
(3,540,cs),
(3,387,o),
(62,352,o),
(142,352,cs)
);
},
{
closed = 1;
nodes = (
(122,447,o),
(121,477,o),
(121,540,cs),
(121,604,o),
(122,633,o),
(142,633,cs),
(161,633,o),
(162,611,o),
(162,540,cs),
(162,472,o),
(161,447,o),
(142,447,cs)
);
},
{
closed = 1;
nodes = (
(642,-5,o),
(701,32,o),
(701,184,cs),
(701,336,o),
(642,372,o),
(561,372,cs),
(481,372,o),
(422,337,o),
(422,184,cs),
(422,30,o),
(481,-5,o),
(561,-5,cs)
);
},
{
closed = 1;
nodes = (
(541,90,o),
(540,120,o),
(540,183,cs),
(540,247,o),
(541,276,o),
(561,276,cs),
(580,276,o),
(581,254,o),
(581,183,cs),
(581,115,o),
(580,90,o),
(561,90,cs)
);
}
);
width = 704;
},
{
background = {
shapes = (
{
closed = 1;
nodes = (
(208,0,l),
(670,729,l),
(628,729,l),
(167,0,l)
);
},
{
closed = 1;
nodes = (
(265,320,o),
(321,391,o),
(321,523,cs),
(321,654,o),
(266,725,o),
(184,725,cs),
(101,725,o),
(45,655,o),
(45,523,cs),
(45,392,o),
(100,320,o),
(184,320,cs)
);
},
{
closed = 1;
nodes = (
(119,352,o),
(82,411,o),
(82,523,cs),
(82,634,o),
(119,693,o),
(184,693,cs),
(247,693,o),
(284,635,o),
(284,523,cs),
(284,411,o),
(247,352,o),
(184,352,cs)
);
},
{
closed = 1;
nodes = (
(736,-5,o),
(792,66,o),
(792,197,cs),
(792,329,o),
(737,400,o),
(655,400,cs),
(571,400,o),
(516,329,o),
(516,198,cs),
(516,66,o),
(571,-5,o),
(655,-5,cs)
);
},
{
closed = 1;
nodes = (
(590,27,o),
(553,85,o),
(553,197,cs),
(553,310,o),
(590,368,o),
(655,368,cs),
(717,368,o),
(754,310,o),
(754,197,cs),
(754,84,o),
(717,27,o),
(655,27,cs)
);
}
);
};
layerId = "5A048DDA-4734-4F8A-A53C-0BED34B57D1C";
shapes = (
{
closed = 1;
nodes = (
(188,0,l),
(650,729,l),
(608,729,l),
(147,0,l)
);
},
{
closed = 1;
nodes = (
(265,324,o),
(321,395,o),
(321,527,cs),
(321,658,o),
(266,729,o),
(184,729,cs),
(101,729,o),
(45,659,o),
(45,527,cs),
(45,396,o),
(100,324,o),
(184,324,cs)
);
},
{
closed = 1;
nodes = (
(119,356,o),
(82,415,o),
(82,527,cs),
(82,638,o),
(119,697,o),
(184,697,cs),
(247,697,o),
(284,639,o),
(284,527,cs),
(284,415,o),
(247,356,o),
(184,356,cs)
);
},
{
closed = 1;
nodes = (
(696,-5,o),
(752,66,o),
(752,197,cs),
(752,329,o),
(697,400,o),
(615,400,cs),
(531,400,o),
(476,329,o),
(476,198,cs),
(476,66,o),
(531,-5,o),
(615,-5,cs)
);
},
{
closed = 1;
nodes = (
(550,27,o),
(513,85,o),
(513,197,cs),
(513,310,o),
(550,368,o),
(615,368,cs),
(677,368,o),
(714,310,o),
(714,197,cs),
(714,84,o),
(677,27,o),
(615,27,cs)
);
}
);
userData = {
com.schriftgestaltung.hints = (
{
horizontal = 1;
options = 0;
origin = (
4,
11
);
stem = -2;
target = (
3,
11
);
type = Stem;
},
{
horizontal = 1;
options = 0;
origin = (
3,
5
);
stem = -2;
target = (
4,
5
);
type = Stem;
},
{
horizontal = 1;
options = 0;
origin = (
1,
5
);
stem = -2;
target = (
2,
5
);
type = Stem;
},
{
horizontal = 1;
options = 0;
origin = (
2,
11
);
stem = -2;
target = (
1,
11
);
type = Stem;
},
{
horizontal = 1;
options = 0;
origin = (
0,
3
);
stem = -2;
target = (
u,
p
);
type = BottomGhost;
},
{
horizontal = 1;
options = 0;
origin = (
0,
2
);
stem = -2;
target = (
d,
o,
w,
n
);
type = TopGhost;
},
{
horizontal = 0;
options = 0;
origin = (
1,
8
);
stem = -2;
target = (
2,
2
);
type = Stem;
},
{
horizontal = 0;
options = 0;
origin = (
2,
8
);
stem = -2;
target = (
1,
2
);
type = Stem;
},
{
horizontal = 0;
options = 0;
origin = (
3,
8
);
stem = -2;
target = (
4,
2
);
type = Stem;
},
{
horizontal = 0;
options = 0;
origin = (
4,
8
);
stem = -2;
target = (
3,
2
);
type = Stem;
}
);
};
width = 797;
},
{
background = {
shapes = (
{
closed = 1;
nodes = (
(264,0,l),
(729,729,l),
(605,729,l),
(140,0,l)
);
},
{
closed = 1;
nodes = (
(288,348,o),
(353,416,o),
(353,536,cs),
(353,646,o),
(297,726,o),
(196,726,cs),
(98,726,o),
(34,655,o),
(34,539,cs),
(34,427,o),
(90,348,o),
(192,348,cs)
);
},
{
closed = 1;
nodes = (
(176,450,o),
(156,449,o),
(156,537,cs),
(156,626,o),
(177,623,o),
(193,623,cs),
(211,623,o),
(231,625,o),
(231,537,cs),
(231,448,o),
(211,450,o),
(193,450,cs)
);
},
{
closed = 1;
nodes = (
(771,-3,o),
(835,66,o),
(835,186,cs),
(835,296,o),
(779,376,o),
(678,376,cs),
(581,376,o),
(516,306,o),
(516,188,cs),
(516,78,o),
(572,-3,o),
(674,-3,cs)
);
},
{
closed = 1;
nodes = (
(659,100,o),
(638,98,o),
(638,187,cs),
(638,276,o),
(659,273,o),
(676,273,cs),
(693,273,o),
(713,275,o),
(713,187,cs),
(713,98,o),
(693,100,o),
(676,100,cs)
);
}
);
};
layerId = "DED42A87-C949-4722-A202-2B551272A3FB";
shapes = (
{
closed = 1;
nodes = (
(243,0,l),
(708,729,l),
(584,729,l),
(119,0,l)
);
},
{
closed = 1;
nodes = (
(279,336,o),
(344,398,o),
(344,533,cs),
(344,667,o),
(279,729,o),
(184,729,cs),
(89,729,o),
(24,667,o),
(24,533,cs),
(24,398,o),
(89,336,o),
(184,336,cs)
);
},
{
closed = 1;
nodes = (
(154,440,o),
(145,476,o),
(145,533,cs),
(145,589,o),
(154,625,o),
(184,625,cs),
(214,625,o),
(223,589,o),
(223,533,cs),
(223,476,o),
(214,440,o),
(184,440,cs)
);
},
{
closed = 1;
nodes = (
(738,-10,o),
(803,52,o),
(803,187,cs),
(803,321,o),
(738,383,o),
(643,383,cs),
(548,383,o),
(483,321,o),
(483,187,cs),
(483,52,o),
(548,-10,o),
(643,-10,cs)
);
},
{
closed = 1;
nodes = (
(613,94,o),
(604,130,o),
(604,187,cs),
(604,243,o),
(613,279,o),
(643,279,cs),
(673,279,o),
(682,243,o),
(682,187,cs),
(682,130,o),
(673,94,o),
(643,94,cs)
);
}
);
width = 827;
},
{
layerId = "106FCE83-F343-403B-A314-646E4D059B3F";
shapes = (
{
closed = 1;
nodes = (
(229,0,l),
(759,729,l),
(718,729,l),
(189,0,l)
);
},
{
closed = 1;
nodes = (
(328,323,o),
(399,393,o),
(399,526,cs),
(399,659,o),
(327,729,o),
(223,729,cs),
(118,729,o),
(46,659,o),
(46,526,cs),
(46,392,o),
(119,323,o),
(224,323,cs)
);
},
{
closed = 1;
nodes = (
(133,353,o),
(82,415,o),
(82,526,cs),
(82,637,o),
(134,699,o),
(223,699,cs),
(313,699,o),
(364,637,o),
(364,526,cs),
(364,415,o),
(312,353,o),
(223,353,cs)
);
},
{
closed = 1;
nodes = (
(830,-10,o),
(901,60,o),
(901,193,cs),
(901,326,o),
(829,396,o),
(725,396,cs),
(620,396,o),
(548,326,o),
(548,193,cs),
(548,59,o),
(621,-10,o),
(726,-10,cs)
);
},
{
closed = 1;
nodes = (
(635,20,o),
(584,82,o),
(584,193,cs),
(584,304,o),
(636,366,o),
(725,366,cs),
(815,366,o),
(866,304,o),
(866,193,cs),
(866,82,o),
(814,20,o),
(725,20,cs)
);
}
);
width = 947;
},
{
layerId = "2D1A1AFE-39FB-4EBD-856C-88C6B057247F";
shapes = (
{
closed = 1;
nodes = (
(294,0,l),
(824,729,l),
(664,729,l),
(134,0,l)
);
},
{
closed = 1;
nodes = (
(341,351,o),
(422,421,o),
(422,540,cs),
(422,657,o),
(342,729,o),
(218,729,cs),
(94,729,o),
(12,660,o),
(12,540,cs),
(12,424,o),
(91,351,o),
(216,351,cs)
);
},
{
closed = 1;
nodes = (
(188,471,o),
(164,482,o),
(164,540,cs),
(164,599,o),
(188,610,o),
(218,610,cs),
(245,610,o),
(271,599,o),
(271,540,cs),
(271,482,o),
(247,471,o),
(217,471,cs)
);
},
{
closed = 1;
nodes = (
(865,-5,o),
(946,65,o),
(946,184,cs),
(946,302,o),
(866,373,o),
(743,373,cs),
(620,373,o),
(537,305,o),
(537,184,cs),
(537,68,o),
(616,-5,o),
(741,-5,cs)
);
},
{
closed = 1;
nodes = (
(713,116,o),
(688,126,o),
(688,184,cs),
(688,244,o),
(713,254,o),
(743,254,cs),
(770,254,o),
(796,243,o),
(796,184,cs),
(796,126,o),
(771,116,o),
(741,116,cs)
);
}
);
width = 958;
}
);
metricRight = "=|";
unicode = 37;
userData = {
KernOnName = percent;
KernOnSpecialSpacing = {
L = "spaced-off";
};
};
}
{
glyphname = ampersand;
kernRight = KO_ampersand;
layers = (
{
background = {
shapes = (
{
closed = 1;
nodes = (
(233,-10,o),
(291,23,o),
(320,96,c),
(323,96,l),
(368,15,o),
(402,-7,o),
(440,-7,cs),
(448,-7,o),
(456,-6,o),
(461,-4,c),
(461,23,l),
(458,22,o),
(451,21,o),
(446,21,cs),
(408,21,o),
(383,46,o),
(335,132,c),
(352,193,o),
(365,279,o),
(368,353,c),
(439,350,l),
(444,376,l),
(337,376,l),
(339,360,l),
(338,301,o),
(330,229,o),
(317,165,c),
(187,399,l),
(252,450,o),
(300,535,o),
(300,615,cs),
(300,690,o),
(262,739,o),
(197,739,cs),
(135,739,o),
(89,689,o),
(89,599,cs),
(89,528,o),
(112,476,o),
(150,405,c),
(88,355,o),
(32,270,o),
(32,161,cs),
(32,58,o),
(86,-10,o),
(177,-10,cs)
);
},
{
closed = 1;
nodes = (
(111,19,o),
(65,65,o),
(65,163,cs),
(65,259,o),
(108,339,o),
(163,383,c),
(306,126,l),
(284,60,o),
(241,19,o),
(178,19,cs)
);
},
{
closed = 1;
nodes = (
(139,489,o),
(121,530,o),
(121,599,cs),
(121,666,o),
(145,711,o),
(197,711,cs),
(240,711,o),
(268,679,o),
(268,613,cs),
(268,540,o),
(226,466,o),
(173,422,c)
);
}
);
};
layerId = "71D8B5AD-B400-4239-9672-E7BA455EF2D0";
shapes = (
{
closed = 1;
nodes = (
(428,-7,o),
(436,-6,o),
(441,-4,c),
(441,25,l),
(438,24,o),
(431,23,o),
(426,23,cs),
(386,23,o),
(361,49,o),
(307,147,cs),
(164,405,ls),
(114,496,o),
(101,530,o),
(101,599,cs),
(101,666,o),
(125,711,o),
(177,711,cs),
(220,711,o),
(248,679,o),
(248,613,cs),
(248,538,o),
(203,461,o),
(148,418,c),
(162,395,l),
(230,445,o),
(280,533,o),
(280,615,cs),
(280,690,o),
(242,739,o),
(177,739,cs),
(115,739,o),
(69,689,o),
(69,599,cs),
(69,526,o),
(91,473,o),
(133,398,cs),
(289,119,ls),
(339,30,o),
(370,-7,o),
(420,-7,cs)
);
},
{
closed = 1;
nodes = (
(215,-10,o),
(276,26,o),
(304,106,c),
(289,135,l),
(268,64,o),
(224,19,o),
(158,19,cs),
(91,19,o),
(45,65,o),
(45,163,cs),
(45,261,o),
(90,343,o),
(147,386,c),
(134,408,l),
(71,359,o),
(12,272,o),
(12,161,cs),
(12,58,o),
(66,-10,o),
(157,-10,cs)
);
},
{
closed = 1;
nodes = (
(331,186,o),
(345,276,o),
(348,353,c),
(419,350,l),
(424,376,l),
(319,376,l),
(320,358,l),
(319,297,o),
(309,221,o),
(295,156,c),
(313,124,l)
);
}
);
width = 448;
},
{
background = {
shapes = (
{
closed = 1;
nodes = (
(286,-10,o),
(353,15,o),
(383,53,c),
(390,53,l),
(422,15,o),
(465,-10,o),
(525,-10,cs),
(560,-10,o),
(590,-7,o),
(612,-1,c),
(612,131,l),
(597,127,o),
(582,126,o),
(568,126,cs),
(528,126,o),
(505,152,o),
(490,170,c),
(509,199,o),
(527,235,o),
(536,265,c),
(590,264,l),
(608,393,l),
(429,393,l),
(430,361,l),
(424,332,o),
(418,304,o),
(411,282,c),
(345,376,l),
(429,424,o),
(469,494,o),
(469,566,cs),
(469,670,o),
(394,739,o),
(281,739,cs),
(166,739,o),
(79,670,o),
(79,546,cs),
(79,488,o),
(102,433,o),
(139,385,c),
(59,341,o),
(24,257,o),
(24,184,cs),
(24,68,o),
(100,-10,o),
(216,-10,cs)
);
},
{
closed = 1;
nodes = (
(223,135,o),
(197,160,o),
(197,212,cs),
(197,239,o),
(205,265,o),
(219,279,c),
(309,153,l),
(300,142,o),
(281,135,o),
(261,135,cs)
);
},
{
closed = 1;
nodes = (
(263,489,o),
(252,520,o),
(252,549,cs),
(252,575,o),
(260,597,o),
(283,597,cs),
(298,597,o),
(314,588,o),
(314,552,cs),
(314,522,o),
(301,486,o),
(280,464,c)
);
}
);
};
layerId = "FFCA1F59-E305-4E0F-BBF9-E0C4511C19C1";
shapes = (
{
closed = 1;
nodes = (
(563,-7,o),
(596,-2,o),
(612,5,c),
(612,151,l),
(597,147,o),
(582,145,o),
(568,145,cs),
(520,145,o),
(490,160,o),
(447,219,cs),
(293,432,ls),
(265,471,o),
(241,510,o),
(241,550,cs),
(241,575,o),
(249,597,o),
(273,597,cs),
(288,597,o),
(304,588,o),
(304,552,cs),
(304,517,o),
(286,474,o),
(259,454,c),
(317,367,l),
(414,415,o),
(459,489,o),
(459,566,cs),
(459,670,o),
(384,739,o),
(271,739,cs),
(156,739,o),
(69,670,o),
(69,546,cs),
(69,476,o),
(97,412,o),
(145,347,cs),
(319,109,ls),
(385,19,o),
(445,-7,o),
(531,-7,cs)
);
},
{
closed = 1;
nodes = (
(275,-10,o),
(347,19,o),
(378,63,c),
(297,164,l),
(294,147,o),
(270,135,o),
(244,135,cs),
(206,135,o),
(180,160,o),
(180,212,cs),
(180,245,o),
(192,276,o),
(212,286,c),
(138,393,l),
(47,352,o),
(7,262,o),
(7,184,cs),
(7,68,o),
(83,-10,o),
(199,-10,cs)
);
},
{
closed = 1;
nodes = (
(493,188,o),
(514,230,o),
(526,265,c),
(577,264,l),
(595,393,l),
(419,393,l),
(420,361,l),
(413,326,o),
(406,293,o),
(397,270,c),
(471,157,l)
);
}
);
width = 620;
},
{
background = {
shapes = (
{
closed = 1;
nodes = (
(723,-5,o),
(739,-1,o),
(749,3,c),
(749,44,l),
(739,39,o),
(725,35,o),
(708,35,cs),
(660,35,o),
(627,41,o),
(542,134,cs),
(314,382,ls),
(234,470,o),
(207,521,o),
(207,586,cs),
(207,656,o),
(258,705,o),
(335,705,cs),
(404,705,o),
(450,663,o),
(450,590,cs),
(450,517,o),
(401,463,o),
(278,405,c),
(301,383,l),
(425,442,o),
(487,507,o),
(487,592,cs),
(487,680,o),
(427,739,o),
(336,739,cs),
(240,739,o),
(169,677,o),
(169,582,cs),
(169,528,o),
(184,469,o),
(280,364,cs),
(512,110,ls),
(586,28,o),
(632,-5,o),
(703,-5,cs)
);
},
{
closed = 1;
nodes = (
(359,-10,o),
(450,38,o),
(509,139,c),
(479,157,l),
(432,73,o),
(357,23,o),
(249,23,cs),
(160,23,o),
(97,82,o),
(97,173,cs),
(97,261,o),
(157,323,o),
(283,376,c),
(262,402,l),
(135,347,o),
(59,274,o),
(59,172,cs),
(59,65,o),
(136,-10,o),
(247,-10,cs)
);
},
{
closed = 1;
nodes = (
(541,201,o),
(561,259,o),
(568,319,c),
(681,318,l),
(676,355,l),
(529,355,l),
(529,326,l),
(522,270,o),
(508,218,o),
(487,175,c),
(518,155,l)
);
}
);
};
layerId = "5A048DDA-4734-4F8A-A53C-0BED34B57D1C";
shapes = (
{
closed = 1;
nodes = (
(698,-5,o),
(711,-3,o),
(721,0,c),
(721,41,l),
(712,37,o),
(701,35,o),
(688,35,cs),
(619,35,o),
(569,67,o),
(477,170,cs),
(308,359,ls),
(215,464,o),
(187,521,o),
(187,586,cs),
(187,656,o),
(238,705,o),
(315,705,cs),
(384,705,o),
(430,663,o),
(430,590,cs),
(430,517,o),
(381,463,o),
(258,405,c),
(281,383,l),
(405,442,o),
(467,507,o),
(467,592,cs),
(467,680,o),
(406,739,o),
(316,739,cs),
(220,739,o),
(149,677,o),
(149,582,cs),
(149,528,o),
(166,463,o),
(273,343,cs),
(448,146,ls),
(514,72,o),
(585,-5,o),
(683,-5,cs)
);
},
{
closed = 1;
nodes = (
(339,-10,o),
(430,38,o),
(489,139,c),
(459,157,l),
(412,73,o),
(337,23,o),
(229,23,cs),
(140,23,o),
(77,82,o),
(77,173,cs),
(77,261,o),
(137,323,o),
(263,376,c),
(242,402,l),
(115,347,o),
(39,274,o),
(39,172,cs),
(39,65,o),
(116,-10,o),
(227,-10,cs)
);
},
{
closed = 1;
nodes = (
(520,197,o),
(542,267,o),
(548,319,c),
(671,318,l),
(666,355,l),
(509,355,l),
(509,326,l),
(502,267,o),
(486,212,o),
(463,168,c),
(494,147,l)
);
}
);
userData = {
com.schriftgestaltung.hints = (
{
horizontal = 1;
options = 0;
origin = (
0,
4
);
stem = -2;
target = (
0,
4
);
type = Stem;
},
{
horizontal = 1;
options = 0;
place = (
0,
0
);
stem = -2;
type = Stem;
},
{
horizontal = 1;
options = 0;
origin = (
0,
22
);
stem = -2;
target = (
2,
5
);
type = Stem;
},
{
horizontal = 1;
options = 0;
origin = (
0,
4
);
stem = -2;
target = (
u,
p
);
type = BottomGhost;
},
{
horizontal = 0;
options = 0;
place = (
0,
0
);
stem = -2;
type = Stem;
},
{
horizontal = 0;
options = 0;
origin = (
2,
8
);
stem = -2;
target = (
0,
19
);
type = Stem;
},
{
horizontal = 0;
options = 0;
origin = (
0,
11
);
stem = -2;
target = (
0,
9
);
type = Stem;
},
{
horizontal = 0;
options = 0;
origin = (
0,
25
);
stem = -2;
target = (
2,
2
);
type = Stem;
}
);
};
width = 749;
},
{
background = {
shapes = (
{
closed = 1;
nodes = (
(-481,-10,o),
(-399,9,o),
(-340,64,c),
(-331,64,l),
(-271,10,o),
(-214,-8,o),
(-148,-8,cs),
(-126,-8,o),
(-103,-6,o),
(-79,-1,c),
(-73,147,l),
(-85,143,o),
(-97,141,o),
(-111,141,cs),
(-145,141,o),
(-180,157,o),
(-221,192,c),
(-203,216,o),
(-190,236,o),
(-178,256,c),
(-99,253,l),
(-80,396,l),
(-281,396,l),
(-284,365,l),
(-290,344,o),
(-304,318,o),
(-322,291,c),
(-392,368,l),
(-302,410,o),
(-252,478,o),
(-252,557,cs),
(-252,667,o),
(-338,739,o),
(-459,739,cs),
(-595,739,o),
(-693,659,o),
(-693,542,cs),
(-693,486,o),
(-673,431,o),
(-629,384,c),
(-711,351,o),
(-771,275,o),
(-771,187,cs),
(-771,65,o),
(-681,-10,o),
(-560,-10,cs)
);
},
{
closed = 1;
nodes = (
(-552,147,o),
(-580,173,o),
(-580,211,cs),
(-580,244,o),
(-564,267,o),
(-541,280,c),
(-439,170,l),
(-456,154,o),
(-482,147,o),
(-513,147,cs)
);
},
{
closed = 1;
nodes = (
(-496,480,o),
(-513,511,o),
(-513,537,cs),
(-513,568,o),
(-491,587,o),
(-463,587,cs),
(-434,587,o),
(-416,567,o),
(-416,538,cs),
(-416,506,o),
(-436,476,o),
(-468,454,c)
);
},
{
closed = 1;
nodes = (
(327,-10,o),
(415,19,o),
(460,63,c),
(469,63,l),
(529,10,o),
(586,-8,o),
(652,-8,cs),
(674,-8,o),
(697,-6,o),
(721,-1,c),
(728,148,l),
(714,143,o),
(701,141,o),
(688,141,cs),
(658,141,o),
(624,155,o),
(581,190,c),
(597,213,o),
(613,236,o),
(625,256,c),
(701,253,l),
(720,397,l),
(512,398,l),
(510,366,l),
(505,350,o),
(496,327,o),
(475,294,c),
(408,368,l),
(493,407,o),
(549,475,o),
(549,558,cs),
(549,667,o),
(461,739,o),
(341,739,cs),
(205,739,o),
(106,659,o),
(106,541,cs),
(106,482,o),
(129,429,o),
(170,385,c),
(90,351,o),
(29,276,o),
(29,187,cs),
(29,65,o),
(120,-10,o),
(239,-10,cs)
);
},
{
closed = 1;
nodes = (
(246,145,o),
(220,171,o),
(220,211,cs),
(220,239,o),
(236,266,o),
(259,280,c),
(361,170,l),
(345,155,o),
(315,145,o),
(285,145,cs)
);
},
{
closed = 1;
nodes = (
(305,479,o),
(287,510,o),
(287,536,cs),
(287,566,o),
(310,587,o),
(337,587,cs),
(366,587,o),
(384,565,o),
(384,538,cs),
(384,507,o),
(364,476,o),
(333,455,c)
);
}
);
};
layerId = "DED42A87-C949-4722-A202-2B551272A3FB";
shapes = (
{
closed = 1;
nodes = (
(653,-8,o),
(676,-6,o),
(700,-1,c),
(707,152,l),
(693,147,o),
(680,145,o),
(667,145,cs),
(633,145,o),
(588,156,o),
(542,205,cs),
(347,411,ls),
(269,493,o),
(266,509,o),
(266,538,cs),
(266,569,o),
(289,587,o),
(316,587,cs),
(345,587,o),
(363,568,o),
(363,538,cs),
(363,502,o),
(336,466,o),
(297,446,c),
(370,361,l),
(465,398,o),
(528,470,o),
(528,558,cs),
(528,667,o),
(440,739,o),
(320,739,cs),
(184,739,o),
(85,659,o),
(85,536,cs),
(85,480,o),
(104,423,o),
(181,342,cs),
(434,76,ls),
(496,11,o),
(560,-8,o),
(631,-8,cs)
);
},
{
closed = 1;
nodes = (
(329,-10,o),
(424,30,o),
(468,97,c),
(367,193,l),
(348,164,o),
(314,144,o),
(270,144,cs),
(227,144,o),
(199,171,o),
(199,211,cs),
(199,244,o),
(222,276,o),
(252,287,c),
(165,390,l),
(78,361,o),
(8,281,o),
(8,187,cs),
(8,65,o),
(99,-10,o),
(221,-10,cs)
);
},
{
closed = 1;
nodes = (
(573,196,o),
(596,230,o),
(612,256,c),
(684,253,l),
(669,398,l),
(491,398,l),
(489,366,l),
(483,346,o),
(469,315,o),
(435,265,c),
(547,166,l)
);
}
);
width = 720;
},
{
background = {
shapes = (
{
closed = 1;
nodes = (
(-169,-4,o),
(-158,-2,o),
(-151,0,c),
(-151,39,l),
(-161,36,o),
(-170,35,o),
(-182,35,cs),
(-236,35,o),
(-295,60,o),
(-387,159,cs),
(-574,362,ls),
(-696,494,o),
(-720,526,o),
(-720,583,cs),
(-720,656,o),
(-660,706,o),
(-579,706,cs),
(-509,706,o),
(-446,657,o),
(-446,585,cs),
(-446,506,o),
(-501,457,o),
(-632,405,c),
(-607,383,l),
(-468,437,o),
(-409,500,o),
(-409,582,cs),
(-409,673,o),
(-484,739,o),
(-580,739,cs),
(-685,739,o),
(-757,674,o),
(-757,584,cs),
(-757,519,o),
(-722,470,o),
(-622,360,cs),
(-411,130,ls),
(-319,29,o),
(-254,-4,o),
(-185,-4,cs)
);
},
{
closed = 1;
nodes = (
(-560,-10,o),
(-453,29,o),
(-390,124,c),
(-417,149,l),
(-465,74,o),
(-547,24,o),
(-656,24,cs),
(-754,24,o),
(-820,85,o),
(-820,172,cs),
(-820,259,o),
(-760,336,o),
(-623,377,c),
(-646,401,l),
(-779,360,o),
(-860,281,o),
(-860,174,cs),
(-860,65,o),
(-777,-10,o),
(-651,-10,cs)
);
},
{
closed = 1;
nodes = (
(-347,203,o),
(-326,259,o),
(-318,321,c),
(-200,319,l),
(-201,360,l),
(-357,360,l),
(-357,327,l),
(-367,270,o),
(-383,219,o),
(-406,167,c),
(-376,142,l)
);
},
{
closed = 1;
nodes = (
(726,-6,o),
(743,-4,o),
(756,0,c),
(756,43,l),
(748,39,o),
(731,36,o),
(708,36,cs),
(642,36,o),
(585,82,o),
(515,154,cs),
(346,326,ls),
(208,467,o),
(184,519,o),
(184,576,cs),
(184,653,o),
(241,706,o),
(325,706,cs),
(402,706,o),
(452,655,o),
(452,584,cs),
(452,507,o),
(404,452,o),
(263,401,c),
(285,378,l),
(431,430,o),
(490,497,o),
(490,583,cs),
(490,678,o),
(420,739,o),
(325,739,cs),
(216,739,o),
(146,666,o),
(146,577,cs),
(146,516,o),
(175,446,o),
(313,305,cs),
(485,130,ls),
(588,25,o),
(640,-6,o),
(714,-6,cs)
);
},
{
closed = 1;
nodes = (
(341,-10,o),
(449,29,o),
(510,126,c),
(485,151,l),
(436,67,o),
(349,24,o),
(242,24,cs),
(146,24,o),
(80,84,o),
(80,173,cs),
(80,263,o),
(134,330,o),
(277,377,c),
(254,401,l),
(126,360,o),
(40,281,o),
(40,173,cs),
(40,64,o),
(121,-10,o),
(244,-10,cs)
);
},
{
closed = 1;
nodes = (
(548,186,o),
(572,258,o),
(580,317,c),
(698,315,l),
(695,356,l),
(542,356,l),
(542,324,l),
(534,271,o),
(522,222,o),
(494,166,c),
(519,138,l)
);
}
);
};
layerId = "106FCE83-F343-403B-A314-646E4D059B3F";
shapes = (
{
closed = 1;
nodes = (
(719,-6,o),
(738,-3,o),
(746,1,c),
(746,43,l),
(738,39,o),
(721,36,o),
(698,36,cs),
(628,36,o),
(567,82,o),
(482,170,cs),
(351,305,ls),
(198,462,o),
(176,519,o),
(176,576,cs),
(176,653,o),
(231,706,o),
(315,706,cs),
(392,706,o),
(442,655,o),
(442,584,cs),
(442,507,o),
(394,452,o),
(253,401,c),
(275,378,l),
(421,430,o),
(480,497,o),
(480,583,cs),
(480,678,o),
(410,739,o),
(315,739,cs),
(206,739,o),
(137,666,o),
(137,578,cs),
(137,516,o),
(164,443,o),
(318,285,cs),
(461,138,ls),
(553,44,o),
(614,-6,o),
(699,-6,cs)
);
},
{
closed = 1;
nodes = (
(331,-10,o),
(439,29,o),
(500,126,c),
(475,151,l),
(426,67,o),
(339,24,o),
(232,24,cs),
(136,24,o),
(70,84,o),
(70,173,cs),
(70,263,o),
(124,330,o),
(267,377,c),
(244,401,l),
(116,360,o),
(30,281,o),
(30,173,cs),
(30,64,o),
(111,-10,o),
(234,-10,cs)
);
},
{
closed = 1;
nodes = (
(538,186,o),
(561,258,o),
(570,317,c),
(688,315,l),
(685,356,l),
(532,356,l),
(532,324,l),
(524,271,o),
(513,222,o),
(484,166,c),
(509,138,l)
);
}
);
width = 766;
},
{
background = {
shapes = (
{
closed = 1;
nodes = (
(329,-10,o),
(422,8,o),
(479,66,c),
(486,66,l),
(544,16,o),
(607,-12,o),
(680,-12,cs),
(711,-12,o),
(753,-7,o),
(779,5,c),
(779,158,l),
(765,154,o),
(751,152,o),
(736,152,cs),
(700,152,o),
(661,161,o),
(627,187,c),
(646,207,o),
(663,231,o),
(681,260,c),
(757,258,l),
(767,400,l),
(552,400,l),
(549,368,l),
(537,339,o),
(525,311,o),
(509,291,c),
(431,368,l),
(523,397,o),
(583,457,o),
(583,553,cs),
(583,663,o),
(482,739,o),
(339,739,cs),
(198,739,o),
(95,659,o),
(95,537,cs),
(95,480,o),
(119,438,o),
(169,384,c),
(74,354,o),
(11,275,o),
(11,183,cs),
(11,67,o),
(107,-10,o),
(251,-10,cs)
);
},
{
closed = 1;
nodes = (
(261,155,o),
(231,184,o),
(231,217,cs),
(231,242,o),
(243,266,o),
(261,279,c),
(368,177,l),
(356,164,o),
(336,155,o),
(300,155,cs)
);
},
{
closed = 1;
nodes = (
(316,480,o),
(301,502,o),
(301,529,cs),
(301,560,o),
(319,579,o),
(349,579,cs),
(380,579,o),
(401,561,o),
(401,531,cs),
(401,500,o),
(378,472,o),
(342,452,c)
);
}
);
};
layerId = "2D1A1AFE-39FB-4EBD-856C-88C6B057247F";
shapes = (
{
closed = 1;
nodes = (
(701,-12,o),
(743,-7,o),
(769,5,c),
(769,158,l),
(755,154,o),
(741,152,o),
(726,152,cs),
(685,152,o),
(640,164,o),
(567,232,cs),
(350,433,ls),
(310,470,o),
(291,497,o),
(291,529,cs),
(291,560,o),
(309,579,o),
(339,579,cs),
(370,579,o),
(391,561,o),
(391,531,cs),
(391,495,o),
(360,463,o),
(314,443,c),
(404,363,l),
(505,390,o),
(573,451,o),
(573,553,cs),
(573,663,o),
(472,739,o),
(329,739,cs),
(188,739,o),
(85,659,o),
(85,536,cs),
(85,454,o),
(122,394,o),
(239,286,cs),
(448,93,ls),
(526,21,o),
(592,-12,o),
(670,-12,cs)
);
},
{
closed = 1;
nodes = (
(324,-10,o),
(432,10,o),
(486,77,c),
(365,186,l),
(354,168,o),
(334,155,o),
(290,155,cs),
(251,155,o),
(221,184,o),
(221,217,cs),
(221,248,o),
(239,277,o),
(264,286,c),
(176,389,l),
(72,363,o),
(1,280,o),
(1,183,cs),
(1,67,o),
(97,-10,o),
(241,-10,cs)
);
},
{
closed = 1;
nodes = (
(630,199,o),
(650,226,o),
(671,260,c),
(747,258,l),
(757,400,l),
(542,400,l),
(539,368,l),
(525,334,o),
(511,301,o),
(490,281,c),
(607,177,l)
);
}
);
width = 781;
}
);
unicode = 38;
userData = {
KernOnName = ampersand;
KernOnSpecialSpacing = {
L = symbols;
R = symbols;
};
};
}
{
glyphname = quotesingle;
kernLeft = KO_quotedbl;
kernRight = KO_quotesingle;
layers = (
{
anchors = (
{
name = "#entry";
pos = (-46,0);
},
{
name = "#exit";
pos = (85,0);
}
);
background = {
shapes = (
{
closed = 1;
nodes = (
(75,605,l),
(75,729,l),
(47,729,l),
(47,605,l),
(51,452,l),
(71,452,l)
);
}
);
};
layerId = "71D8B5AD-B400-4239-9672-E7BA455EF2D0";
shapes = (
{
closed = 1;
nodes = (
(51,493,l),
(55,624,l),
(55,729,l),
(27,729,l),
(27,624,l),
(31,493,l)
);
}
);
width = 82;
},
{
anchors = (
{
name = "#entry";
pos = (-16,0);
},
{
name = "#exit";
pos = (188,0);
}
);
background = {
shapes = (
{
closed = 1;
nodes = (
(175,554,l),
(175,729,l),
(11,729,l),
(11,554,l),
(55,354,l),
(130,354,l)
);
}
);
};
layerId = "FFCA1F59-E305-4E0F-BBF9-E0C4511C19C1";
shapes = (
{
closed = 1;
nodes = (
(123,410,l),
(168,622,l),
(168,729,l),
(4,729,l),
(4,622,l),
(48,410,l)
);
}
);
width = 171;
},
{
anchors = (
{
name = "#entry";
pos = (-19,0);
},
{
name = "#exit";
pos = (142,0);
}
);
layerId = "5A048DDA-4734-4F8A-A53C-0BED34B57D1C";
shapes = (
{
closed = 1;
nodes = (
(73,492,l),
(79,623,l),
(79,729,l),
(46,729,l),
(46,623,l),
(53,492,l)
);
}
);
userData = {
com.schriftgestaltung.Glyphs.glyph.leftMetricsKey = quotedbl;
com.schriftgestaltung.Glyphs.glyph.rightMetricsKey = quotedbl;
};
width = 126;
},
{
anchors = (
{
name = "#entry";
pos = (-56,0);
},
{
name = "#exit";
pos = (191,0);
}
);
layerId = "DED42A87-C949-4722-A202-2B551272A3FB";
shapes = (
{
closed = 1;
nodes = (
(135,410,l),
(179,608,l),
(179,729,l),
(9,729,l),
(9,608,l),
(52,410,l)
);
}
);
userData = {
com.schriftgestaltung.Glyphs.glyph.leftMetricsKey = quotedbl;
com.schriftgestaltung.Glyphs.glyph.rightMetricsKey = quotedbl;
};
width = 187;
},
{
anchors = (
{
name = "#entry";
pos = (-29,0);
},
{
name = "#exit";
pos = (132,0);
}
);
layerId = "106FCE83-F343-403B-A314-646E4D059B3F";
shapes = (
{
closed = 1;
nodes = (
(68,492,l),
(74,623,l),
(74,729,l),
(41,729,l),
(41,623,l),
(48,492,l)
);
}
);
width = 115;
},
{
anchors = (
{
name = "#entry";
pos = (-59,0);
},
{
name = "#exit";
pos = (193,0);
}
);
layerId = "2D1A1AFE-39FB-4EBD-856C-88C6B057247F";
shapes = (
{
closed = 1;
nodes = (
(142,410,l),
(189,600,l),
(189,729,l),
(11,729,l),
(11,600,l),
(56,410,l)
);
}
);
width = 199;
}
);
unicode = 39;
userData = {
KernOnSpecialSpacing = {
L = quotes;
R = quotes;
};
};
}
{
glyphname = parenleft;
kernRight = KO_parenleft;
layers = (
{
background = {
shapes = (
{
closed = 1;
nodes = (
(250,-167,l),
(138,-67,o),
(63,113,o),
(63,313,cs),
(63,501,o),
(130,686,o),
(250,793,c),
(218,793,l),
(100,685,o),
(33,500,o),
(33,313,cs),
(33,126,o),
(100,-59,o),
(218,-167,c)
);
}
);
};
layerId = "71D8B5AD-B400-4239-9672-E7BA455EF2D0";
shapes = (
{
closed = 1;
nodes = (
(180,-167,l),
(100,-67,o),
(45,112,o),
(45,313,cs),
(45,501,o),
(95,686,o),
(180,793,c),
(147,793,l),
(62,685,o),
(13,498,o),
(13,313,cs),
(13,128,o),
(62,-59,o),
(147,-167,c)
);
}
);
width = 177;
},
{
background = {
shapes = (
{
closed = 1;
nodes = (
(336,-167,l),
(251,-77,o),
(181,120,o),
(181,313,cs),
(181,512,o),
(253,701,o),
(336,793,c),
(182,793,l),
(86,700,o),
(16,508,o),
(16,313,cs),
(16,117,o),
(86,-75,o),
(182,-167,c)
);
}
);
};
layerId = "FFCA1F59-E305-4E0F-BBF9-E0C4511C19C1";
shapes = (
{
closed = 1;
nodes = (
(287,-167,l),
(227,-76,o),
(174,121,o),
(174,313,cs),
(174,513,o),
(232,701,o),
(287,793,c),
(133,793,l),
(63,700,o),
(7,507,o),
(7,313,cs),
(7,118,o),
(63,-75,o),
(133,-167,c)
);
}
);
width = 291;
},
{
layerId = "5A048DDA-4734-4F8A-A53C-0BED34B57D1C";
shapes = (
{
closed = 1;
nodes = (
(265,-167,l),
(155,-67,o),
(80,115,o),
(80,313,cs),
(80,499,o),
(147,686,o),
(265,793,c),
(228,793,l),
(110,685,o),
(43,500,o),
(43,313,cs),
(43,126,o),
(110,-59,o),
(228,-167,c)
);
}
);
userData = {
com.schriftgestaltung.hints = (
{
horizontal = 0;
options = 0;
place = (
0,
0
);
stem = -2;
type = Stem;
}
);
};
width = 281;
},
{
layerId = "DED42A87-C949-4722-A202-2B551272A3FB";
shapes = (
{
closed = 1;
nodes = (
(348,-167,l),
(257,-48,o),
(196,144,o),
(196,313,cs),
(196,482,o),
(257,674,o),
(348,793,c),
(186,793,l),
(81,681,o),
(11,489,o),
(11,313,cs),
(11,137,o),
(81,-55,o),
(186,-167,c)
);
}
);
width = 345;
},
{
layerId = "106FCE83-F343-403B-A314-646E4D059B3F";
shapes = (
{
closed = 1;
nodes = (
(285,-167,l),
(156,-67,o),
(68,115,o),
(68,313,cs),
(68,493,o),
(142,682,o),
(285,793,c),
(248,793,l),
(111,685,o),
(33,501,o),
(33,313,cs),
(33,125,o),
(111,-59,o),
(248,-167,c)
);
}
);
width = 296;
},
{
layerId = "2D1A1AFE-39FB-4EBD-856C-88C6B057247F";
shapes = (
{
closed = 1;
nodes = (
(390,-167,l),
(280,-58,o),
(206,134,o),
(206,313,cs),
(206,493,o),
(278,684,o),
(390,793,c),
(219,793,l),
(90,695,o),
(6,503,o),
(6,313,cs),
(6,123,o),
(90,-69,o),
(219,-167,c)
);
}
);
width = 382;
}
);
unicode = 40;
userData = {
KernOnName = parenleft;
KernOnSpecialSpacing = {
R = parenthesis;
};
};
}
{
glyphname = asterisk;
kernLeft = KO_asterisk;
kernRight = KO_asterisk;
layers = (
{
layerId = "71D8B5AD-B400-4239-9672-E7BA455EF2D0";
shapes = (
{
closed = 1;
nodes = (
(132,482,l),
(132,535,l),
(124,596,l),
(174,560,l),
(220,533,l),
(233,556,l),
(187,582,l),
(134,606,l),
(187,631,l),
(232,656,l),
(220,678,l),
(174,653,l),
(124,618,l),
(132,678,l),
(132,729,l),
(106,729,l),
(106,678,l),
(114,618,l),
(64,653,l),
(19,678,l),
(6,656,l),
(51,631,l),
(105,606,l),
(51,582,l),
(5,556,l),
(19,533,l),
(64,560,l),
(114,596,l),
(106,535,l),
(106,482,l)
);
}
);
width = 238;
},
{
layerId = "FFCA1F59-E305-4E0F-BBF9-E0C4511C19C1";
shapes = (
{
closed = 1;
nodes = (
(158,471,l),
(158,510,l),
(144,565,l),
(187,525,l),
(221,506,l),
(253,563,l),
(220,582,l),
(164,600,l),
(220,617,l),
(253,636,l),
(221,693,l),
(187,674,l),
(144,634,l),
(158,690,l),
(158,729,l),
(92,729,l),
(92,690,l),
(106,634,l),
(63,674,l),
(29,693,l),
(-3,636,l),
(30,617,l),
(86,600,l),
(30,582,l),
(-3,563,l),
(29,506,l),
(63,525,l),
(106,565,l),
(92,510,l),
(92,471,l)
);
}
);
width = 250;
},
{
layerId = "5A048DDA-4734-4F8A-A53C-0BED34B57D1C";
shapes = (
{
closed = 1;
nodes = (
(145,453,l),
(145,512,l),
(137,580,l),
(193,540,l),
(244,510,l),
(258,535,l),
(207,565,l),
(148,592,l),
(207,619,l),
(257,647,l),
(244,672,l),
(193,644,l),
(137,605,l),
(145,672,l),
(145,729,l),
(116,729,l),
(116,672,l),
(125,605,l),
(70,644,l),
(19,672,l),
(5,647,l),
(55,619,l),
(115,592,l),
(55,565,l),
(4,535,l),
(19,510,l),
(70,540,l),
(125,580,l),
(116,512,l),
(116,453,l)
);
}
);
width = 262;
},
{
layerId = "DED42A87-C949-4722-A202-2B551272A3FB";
shapes = (
{
closed = 1;
nodes = (
(173,444,l),
(173,487,l),
(157,548,l),
(204,504,l),
(242,483,l),
(278,546,l),
(241,567,l),
(179,586,l),
(241,605,l),
(278,626,l),
(242,689,l),
(204,668,l),
(157,624,l),
(173,686,l),
(173,729,l),
(99,729,l),
(99,686,l),
(115,624,l),
(68,668,l),
(30,689,l),
(-6,626,l),
(31,605,l),
(93,586,l),
(31,567,l),
(-6,546,l),
(30,483,l),
(68,504,l),
(115,548,l),
(99,487,l),
(99,444,l)
);
}
);
width = 272;
},
{
layerId = "106FCE83-F343-403B-A314-646E4D059B3F";
shapes = (
{
closed = 1;
nodes = (
(156,444,l),
(156,504,l),
(147,575,l),
(206,533,l),
(259,502,l),
(273,528,l),
(220,559,l),
(159,587,l),
(220,616,l),
(272,644,l),
(259,670,l),
(206,641,l),
(147,601,l),
(156,670,l),
(156,729,l),
(126,729,l),
(126,670,l),
(135,601,l),
(79,641,l),
(25,670,l),
(11,644,l),
(63,616,l),
(125,587,l),
(63,559,l),
(10,528,l),
(25,502,l),
(79,533,l),
(135,575,l),
(126,504,l),
(126,444,l)
);
}
);
width = 283;
},
{
layerId = "2D1A1AFE-39FB-4EBD-856C-88C6B057247F";
shapes = (
{
closed = 1;
nodes = (
(199,407,l),
(199,455,l),
(180,523,l),
(233,473,l),
(275,450,l),
(316,524,l),
(276,547,l),
(206,568,l),
(276,589,l),
(316,612,l),
(275,685,l),
(233,662,l),
(180,612,l),
(199,682,l),
(199,729,l),
(112,729,l),
(112,682,l),
(131,612,l),
(79,662,l),
(36,685,l),
(-5,612,l),
(35,589,l),
(105,568,l),
(35,547,l),
(-5,524,l),
(36,450,l),
(79,473,l),
(131,523,l),
(112,455,l),
(112,407,l)
);
}
);
width = 311;
}
);
unicode = 42;
userData = {
KernOnSpecialSpacing = {
L = quotes;
R = quotes;
};
};
}
{
glyphname = plus;
layers = (
{
layerId = "71D8B5AD-B400-4239-9672-E7BA455EF2D0";
shapes = (
{
closed = 1;
nodes = (
(235,168,l),
(235,347,l),
(413,347,l),
(413,375,l),
(235,375,l),
(235,554,l),
(205,554,l),
(205,375,l),
(27,375,l),
(27,347,l),
(205,347,l),
(205,168,l)
);
}
);
width = 440;
},
{
layerId = "FFCA1F59-E305-4E0F-BBF9-E0C4511C19C1";
shapes = (
{
closed = 1;
nodes = (
(304,139,l),
(304,291,l),
(452,291,l),
(452,431,l),
(304,431,l),
(304,583,l),
(156,583,l),
(156,431,l),
(8,431,l),
(8,291,l),
(156,291,l),
(156,139,l)
);
}
);
width = 460;
},
{
layerId = "5A048DDA-4734-4F8A-A53C-0BED34B57D1C";
shapes = (
{
closed = 1;
nodes = (
(297,122,l),
(297,345,l),
(519,345,l),
(519,377,l),
(297,377,l),
(297,600,l),
(263,600,l),
(263,377,l),
(41,377,l),
(41,345,l),
(263,345,l),
(263,122,l)
);
}
);
userData = {
com.schriftgestaltung.hints = (
{
horizontal = 1;
options = 0;
place = (
3,
3
);
stem = -2;
type = Stem;
},
{
horizontal = 0;
options = 0;
place = (
3,
3
);
stem = -2;
type = Stem;
}
);
};
width = 560;
},
{
layerId = "DED42A87-C949-4722-A202-2B551272A3FB";
shapes = (
{
closed = 1;
nodes = (
(353,124,l),
(353,286,l),
(513,286,l),
(513,435,l),
(353,435,l),
(353,597,l),
(200,597,l),
(200,435,l),
(40,435,l),
(40,286,l),
(200,286,l),
(200,124,l)
);
}
);
width = 552;
},
{
layerId = "106FCE83-F343-403B-A314-646E4D059B3F";
shapes = (
{
closed = 1;
nodes = (
(367,114,l),
(367,345,l),
(598,345,l),
(598,377,l),
(367,377,l),
(367,609,l),
(333,609,l),
(333,377,l),
(103,377,l),
(103,345,l),
(333,345,l),
(333,114,l)
);
}
);
width = 700;
},
{
layerId = "2D1A1AFE-39FB-4EBD-856C-88C6B057247F";
shapes = (
{
closed = 1;
nodes = (
(443,98,l),
(443,274,l),
(613,274,l),
(613,448,l),
(443,448,l),
(443,624,l),
(257,624,l),
(257,448,l),
(87,448,l),
(87,274,l),
(257,274,l),
(257,98,l)
);
}
);
width = 700;
}
);
metricWidth = zero.tf;
unicode = 43;
userData = {
KernOnSpecialSpacing = {
L = math;
R = math;
};
};
}
{
glyphname = comma;
kernLeft = KO_comma;
kernRight = KO_comma;
layers = (
{
anchors = (
{
name = "#entry";
pos = (1,0);
},
{
name = "#exit";
pos = (81,0);
},
{
name = top;
pos = (51,522);
}
);
background = {
shapes = (
{
closed = 1;
nodes = (
(33,-130,l),
(58,-100,o),
(90,-35,o),
(90,11,cs),
(90,30,o),
(81,42,o),
(64,42,cs),
(51,42,o),
(41,33,o),
(41,19,cs),
(41,5,o),
(51,-4,o),
(64,-4,cs),
(71,-4,o),
(77,-2,o),
(80,1,c),
(77,3,l),
(72,-40,o),
(47,-91,o),
(16,-130,c)
);
}
);
};
layerId = "71D8B5AD-B400-4239-9672-E7BA455EF2D0";
shapes = (
{
closed = 1;
nodes = (
(48,-125,l),
(63,-75,o),
(82,-24,o),
(82,10,cs),
(82,35,o),
(71,49,o),
(53,49,cs),
(37,49,o),
(26,38,o),
(26,20,cs),
(26,3,o),
(36,-7,o),
(52,-7,cs),
(59,-7,o),
(63,-6,o),
(69,-1,c),
(61,1,l),
(60,-23,o),
(42,-74,o),
(25,-125,c)
);
}
);
width = 100;
},
{
anchors = (
{
name = "#entry";
pos = (-7,0);
},
{
name = "#exit";
pos = (202,0);
},
{
name = top;
pos = (94,551);
}
);
background = {
shapes = (
{
closed = 1;
nodes = (
(159,-10,o),
(200,22,o),
(200,77,cs),
(200,132,o),
(159,164,o),
(104,164,cs),
(49,164,o),
(8,132,o),
(8,77,cs),
(8,22,o),
(49,-10,o),
(104,-10,cs)
);
}
);
};
layerId = "FFCA1F59-E305-4E0F-BBF9-E0C4511C19C1";
shapes = (
{
closed = 1;
nodes = (
(129,-157,l),
(167,-64,o),
(197,6,o),
(197,61,cs),
(197,138,o),
(153,181,o),
(98,181,cs),
(43,181,o),
(3,141,o),
(3,82,cs),
(3,30,o),
(42,-10,o),
(91,-10,cs),
(103,-10,o),
(114,-7,o),
(121,-2,c),
(87,14,l),
(87,-8,o),
(60,-72,o),
(22,-157,c)
);
}
);
width = 200;
},
{
anchors = (
{
name = "#entry";
pos = (-4,0);
},
{
name = "#exit";
pos = (105,0);
},
{
name = top;
pos = (71,524);
}
);
background = {
shapes = (
{
closed = 1;
nodes = (
(108,-7,o),
(121,5,o),
(121,22,cs),
(121,39,o),
(108,51,o),
(91,51,cs),
(74,51,o),
(61,39,o),
(61,22,cs),
(61,5,o),
(74,-7,o),
(91,-7,cs)
);
}
);
};
layerId = "5A048DDA-4734-4F8A-A53C-0BED34B57D1C";
shapes = (
{
closed = 1;
nodes = (
(56,-146,l),
(80,-84,o),
(109,-16,o),
(109,15,cs),
(109,45,o),
(94,64,o),
(71,64,cs),
(50,64,o),
(36,50,o),
(36,29,cs),
(36,9,o),
(50,-4,o),
(69,-4,cs),
(81,-4,o),
(90,3,o),
(92,11,c),
(82,12,l),
(82,-14,o),
(51,-80,o),
(25,-146,c)
);
}
);
userData = {
com.schriftgestaltung.Glyphs.glyph.rightMetricsKey = period;
};
width = 142;
},
{
anchors = (
{
name = "#entry";
pos = (-5,0);
},
{
name = "#exit";
pos = (239,0);
},
{
name = top;
pos = (105,552);
}
);
background = {
shapes = (
{
closed = 1;
nodes = (
(116,-167,l),
(175,-112,o),
(221,-20,o),
(221,50,cs),
(221,122,o),
(179,162,o),
(120,162,cs),
(64,162,o),
(22,127,o),
(22,73,cs),
(22,24,o),
(54,-10,o),
(113,-10,cs),
(134,-10,o),
(157,-4,o),
(171,8,c),
(123,8,l),
(113,-39,o),
(66,-108,o),
(9,-167,c)
);
}
);
};
layerId = "DED42A87-C949-4722-A202-2B551272A3FB";
shapes = (
{
closed = 1;
nodes = (
(129,-171,l),
(167,-95,o),
(223,8,o),
(223,71,cs),
(223,149,o),
(180,199,o),
(109,199,cs),
(45,199,o),
(0,154,o),
(0,92,cs),
(0,35,o),
(41,-7,o),
(89,-7,cs),
(98,-7,o),
(110,-5,o),
(117,-3,c),
(95,7,l),
(95,-18,o),
(40,-110,o),
(13,-171,c)
);
}
);
userData = {
com.schriftgestaltung.Glyphs.glyph.rightMetricsKey = period;
};
width = 223;
},
{
anchors = (
{
name = "#entry";
pos = (4,0);
},
{
name = "#exit";
pos = (120,0);
},
{
name = top;
pos = (61,524);
}
);
layerId = "106FCE83-F343-403B-A314-646E4D059B3F";
shapes = (
{
closed = 1;
nodes = (
(38,-158,l),
(70,-87,o),
(96,-13,o),
(96,15,cs),
(96,42,o),
(82,61,o),
(61,61,cs),
(41,61,o),
(28,48,o),
(28,28,cs),
(28,10,o),
(39,-4,o),
(59,-4,cs),
(71,-4,o),
(79,3,o),
(81,10,c),
(68,9,l),
(66,-15,o),
(38,-89,o),
(7,-158,c)
);
}
);
width = 126;
},
{
anchors = (
{
name = "#entry";
pos = (-9,0);
},
{
name = "#exit";
pos = (293,0);
},
{
name = top;
pos = (150,544);
}
);
background = {
shapes = (
{
closed = 1;
nodes = (
(234,-10,o),
(268,29,o),
(268,83,cs),
(268,136,o),
(234,175,o),
(150,175,cs),
(66,175,o),
(32,136,o),
(32,83,cs),
(32,29,o),
(66,-10,o),
(150,-10,cs)
);
}
);
};
layerId = "2D1A1AFE-39FB-4EBD-856C-88C6B057247F";
shapes = (
{
closed = 1;
nodes = (
(148,-173,l),
(245,-57,o),
(291,8,o),
(291,67,cs),
(291,149,o),
(238,197,o),
(149,197,cs),
(69,197,o),
(15,151,o),
(15,87,cs),
(15,28,o),
(64,-15,o),
(124,-15,cs),
(135,-15,o),
(150,-13,o),
(158,-11,c),
(142,-1,l),
(141,-13,o),
(88,-78,o),
(12,-173,c)
);
}
);
width = 297;
}
);
unicode = 44;
userData = {
KernOnName = comma;
KernOnSpecialSpacing = {
L = period;
R = period;
};
};
}
{
glyphname = hyphen;
kernLeft = KO_hyphen;
kernRight = KO_hyphen;
layers = (
{
layerId = "71D8B5AD-B400-4239-9672-E7BA455EF2D0";
shapes = (
{
closed = 1;
nodes = (
(202,246,l),
(202,271,l),
(22,271,l),
(22,246,l)
);
}
);
width = 224;
},
{
layerId = "FFCA1F59-E305-4E0F-BBF9-E0C4511C19C1";
shapes = (
{
closed = 1;
nodes = (
(323,191,l),
(323,351,l),
(9,351,l),
(9,191,l)
);
}
);
width = 332;
},
{
layerId = "5A048DDA-4734-4F8A-A53C-0BED34B57D1C";
shapes = (
{
closed = 1;
nodes = (
(300,242,l),
(300,275,l),
(40,275,l),
(40,242,l)
);
}
);
userData = {
com.schriftgestaltung.hints = (
{
horizontal = 1;
options = 0;
origin = (
0,
2
);
stem = -2;
target = (
0,
3
);
type = Stem;
}
);
};
width = 340;
},
{
layerId = "DED42A87-C949-4722-A202-2B551272A3FB";
shapes = (
{
closed = 1;
nodes = (
(371,192,l),
(371,352,l),
(17,352,l),
(17,192,l)
);
}
);
width = 388;
},
{
layerId = "106FCE83-F343-403B-A314-646E4D059B3F";
shapes = (
{
closed = 1;
nodes = (
(322,243,l),
(322,275,l),
(36,275,l),
(36,243,l)
);
}
);
width = 358;
},
{
layerId = "2D1A1AFE-39FB-4EBD-856C-88C6B057247F";
shapes = (
{
closed = 1;
nodes = (
(378,187,l),
(378,355,l),
(20,355,l),
(20,187,l)
);
}
);
width = 398;
}
);
unicode = 45;
userData = {
KernOnName = hyphen;
KernOnSpecialSpacing = {
L = hyphen;
R = hyphen;
};
};
}
{
glyphname = period;
kernLeft = KO_period;
kernRight = KO_period;
layers = (
{
anchors = (
{
name = "#entry";
pos = (-33,0);
},
{
name = "#exit";
pos = (117,0);
},
{
name = _top;
pos = (42,48);
},
{
name = top;
pos = (42,522);
}
);
layerId = "71D8B5AD-B400-4239-9672-E7BA455EF2D0";
shapes = (
{
closed = 1;
nodes = (
(58,-6,o),
(69,5,o),
(69,21,cs),
(69,37,o),
(58,48,o),
(42,48,cs),
(26,48,o),
(15,37,o),
(15,21,cs),
(15,5,o),
(26,-6,o),
(42,-6,cs)
);
}
);
width = 84;
},
{
anchors = (
{
name = "#entry";
pos = (-16,0);
},
{
name = "#exit";
pos = (214,0);
},
{
name = _top;
pos = (99,182);
},
{
name = top;
pos = (99,551);
}
);
background = {
shapes = (
{
closed = 1;
nodes = (
(159,-10,o),
(200,22,o),
(200,77,cs),
(200,132,o),
(159,164,o),
(104,164,cs),
(49,164,o),
(8,132,o),
(8,77,cs),
(8,22,o),
(49,-10,o),
(104,-10,cs)
);
}
);
};
layerId = "FFCA1F59-E305-4E0F-BBF9-E0C4511C19C1";
shapes = (
{
closed = 1;
nodes = (
(154,-10,o),
(195,31,o),
(195,86,cs),
(195,141,o),
(154,182,o),
(99,182,cs),
(44,182,o),
(3,141,o),
(3,86,cs),
(3,31,o),
(44,-10,o),
(99,-10,cs)
);
}
);
width = 198;
},
{
anchors = (
{
name = "#entry";
pos = (-28,0);
},
{
name = "#exit";
pos = (158,0);
},
{
name = _top;
pos = (65,61);
},
{
name = top;
pos = (65,524);
}
);
layerId = "5A048DDA-4734-4F8A-A53C-0BED34B57D1C";
shapes = (
{
closed = 1;
nodes = (
(85,-7,o),
(99,7,o),
(99,27,cs),
(99,47,o),
(85,61,o),
(65,61,cs),
(45,61,o),
(31,47,o),
(31,27,cs),
(31,7,o),
(45,-7,o),
(65,-7,cs)
);
}
);
width = 130;
},
{
anchors = (
{
name = "#entry";
pos = (-29,0);
},
{
name = "#exit";
pos = (249,0);
},
{
name = _top;
pos = (110,202);
},
{
name = top;
pos = (110,552);
}
);
layerId = "DED42A87-C949-4722-A202-2B551272A3FB";
shapes = (
{
closed = 1;
nodes = (
(172,-8,o),
(215,34,o),
(215,97,cs),
(215,160,o),
(172,202,o),
(110,202,cs),
(48,202,o),
(5,160,o),
(5,97,cs),
(5,34,o),
(48,-8,o),
(110,-8,cs)
);
}
);
width = 220;
},
{
anchors = (
{
name = "#entry";
pos = (-19,0);
},
{
name = "#exit";
pos = (140,0);
},
{
name = _top;
pos = (61,61);
},
{
name = top;
pos = (61,524);
}
);
layerId = "106FCE83-F343-403B-A314-646E4D059B3F";
shapes = (
{
closed = 1;
nodes = (
(80,-7,o),
(95,8,o),
(95,27,cs),
(95,46,o),
(80,61,o),
(61,61,cs),
(42,61,o),
(27,46,o),
(27,27,cs),
(27,8,o),
(42,-7,o),
(61,-7,cs)
);
}
);
width = 122;
},
{
anchors = (
{
name = "#entry";
pos = (-12,0);
},
{
name = "#exit";
pos = (300,0);
},
{
name = _top;
pos = (144,198);
},
{
name = top;
pos = (144,544);
}
);
layerId = "2D1A1AFE-39FB-4EBD-856C-88C6B057247F";
shapes = (
{
closed = 1;
nodes = (
(226,-10,o),
(282,33,o),
(282,95,cs),
(282,156,o),
(226,198,o),
(144,198,cs),
(62,198,o),
(6,156,o),
(6,95,cs),
(6,33,o),
(62,-10,o),
(144,-10,cs)
);
}
);
width = 288;
}
);
unicode = 46;
userData = {
KernOnName = period;
KernOnSpecialSpacing = {
L = period;
R = period;
};
};
}
{
glyphname = slash;
kernLeft = KO_slash;
kernRight = KO_slash;
layers = (
{
layerId = "71D8B5AD-B400-4239-9672-E7BA455EF2D0";
shapes = (
{
closed = 1;
nodes = (
(-1,-82,l),
(204,729,l),
(175,729,l),
(-30,-82,l)
);
}
);
width = 189;
},
{
layerId = "FFCA1F59-E305-4E0F-BBF9-E0C4511C19C1";
shapes = (
{
closed = 1;
nodes = (
(154,-82,l),
(363,729,l),
(200,729,l),
(-7,-82,l)
);
}
);
width = 356;
},
{
layerId = "5A048DDA-4734-4F8A-A53C-0BED34B57D1C";
shapes = (
{
closed = 1;
nodes = (
(7,-81,l),
(331,729,l),
(295,729,l),
(-32,-81,l)
);
}
);
userData = {
com.schriftgestaltung.hints = (
{
horizontal = 1;
options = 0;
place = (
0,
21
);
stem = -2;
target = (
u,
p
);
type = BottomGhost;
},
{
horizontal = 1;
options = 0;
place = (
0,
-20
);
stem = -2;
target = (
d,
o,
w,
n
);
type = TopGhost;
}
);
};
width = 324;
},
{
layerId = "DED42A87-C949-4722-A202-2B551272A3FB";
shapes = (
{
closed = 1;
nodes = (
(161,-82,l),
(450,729,l),
(267,729,l),
(-20,-82,l)
);
}
);
width = 449;
},
{
layerId = "106FCE83-F343-403B-A314-646E4D059B3F";
shapes = (
{
closed = 1;
nodes = (
(23,-81,l),
(432,729,l),
(396,729,l),
(-16,-81,l)
);
}
);
width = 434;
},
{
layerId = "2D1A1AFE-39FB-4EBD-856C-88C6B057247F";
shapes = (
{
closed = 1;
nodes = (
(180,-82,l),
(526,729,l),
(315,729,l),
(-29,-82,l)
);
}
);
width = 525;
}
);
unicode = 47;
userData = {
KernOnName = slash;
KernOnSpecialSpacing = {
L = slash;
R = slash;
};
};
}
{
glyphname = zero;
kernLeft = KO_six;
kernRight = KO_zero;
layers = (
{
layerId = "71D8B5AD-B400-4239-9672-E7BA455EF2D0";
shapes = (
{
closed = 1;
nodes = (
(303,-10,o),
(342,137,o),
(342,360,cs),
(342,583,o),
(303,730,o),
(183,730,cs),
(63,730,o),
(24,583,o),
(24,360,cs),
(24,137,o),
(63,-10,o),
(183,-10,cs)
);
},
{
closed = 1;
nodes = (
(107,19,o),
(56,87,o),
(56,360,cs),
(56,633,o),
(107,701,o),
(183,701,cs),
(260,701,o),
(310,631,o),
(310,360,cs),
(310,89,o),
(260,19,o),
(183,19,cs)
);
}
);
width = 366;
},
{
layerId = "FFCA1F59-E305-4E0F-BBF9-E0C4511C19C1";
shapes = (
{
closed = 1;
nodes = (
(381,-10,o),
(475,79,o),
(475,360,cs),
(475,640,o),
(381,729,o),
(241,729,cs),
(101,729,o),
(7,640,o),
(7,360,cs),
(7,79,o),
(101,-10,o),
(241,-10,cs)
);
},
{
closed = 1;
nodes = (
(204,146,o),
(196,199,o),
(196,360,cs),
(196,519,o),
(204,572,o),
(241,572,cs),
(279,572,o),
(287,519,o),
(287,360,cs),
(287,199,o),
(279,146,o),
(241,146,cs)
);
}
);
width = 482;
},
{
layerId = "5A048DDA-4734-4F8A-A53C-0BED34B57D1C";
shapes = (
{
closed = 1;
nodes = (
(432,-9,o),
(530,109,o),
(530,360,cs),
(530,611,o),
(432,729,o),
(286,729,cs),
(140,729,o),
(42,611,o),
(42,360,cs),
(42,109,o),
(140,-9,o),
(286,-9,cs)
);
},
{
closed = 1;
nodes = (
(139,25,o),
(82,159,o),
(82,360,cs),
(82,561,o),
(139,695,o),
(286,695,cs),
(433,695,o),
(490,561,o),
(490,360,cs),
(490,159,o),
(433,25,o),
(286,25,cs)
);
}
);
userData = {
com.schriftgestaltung.hints = (
{
horizontal = 1;
options = 0;
origin = (
1,
11
);
stem = -2;
target = (
0,
11
);
type = Stem;
},
{
horizontal = 1;
options = 0;
origin = (
0,
5
);
stem = -2;
target = (
1,
5
);
type = Stem;
},
{
horizontal = 0;
options = 0;
origin = (
0,
8
);
stem = -2;
target = (
1,
2
);
type = Stem;
},
{
horizontal = 0;
options = 0;
origin = (
1,
8
);
stem = -2;
target = (
0,
2
);
type = Stem;
}
);
};
width = 572;
},
{
background = {
shapes = (
{
closed = 1;
nodes = (
(488,-6,o),
(603,126,o),
(603,362,cs),
(603,583,o),
(501,730,o),
(320,730,cs),
(147,730,o),
(31,598,o),
(31,364,cs),
(31,142,o),
(134,-6,o),
(316,-6,cs)
);
},
{
closed = 1;
nodes = (
(265,154,o),
(221,181,o),
(221,363,cs),
(221,544,o),
(265,571,o),
(317,571,cs),
(369,571,o),
(413,544,o),
(413,363,cs),
(413,181,o),
(369,154,o),
(317,154,cs)
);
}
);
};
layerId = "DED42A87-C949-4722-A202-2B551272A3FB";
shapes = (
{
closed = 1;
nodes = (
(463,-10,o),
(578,108,o),
(578,359,cs),
(578,581,o),
(487,729,o),
(293,729,cs),
(123,729,o),
(8,611,o),
(8,359,cs),
(8,138,o),
(99,-10,o),
(293,-10,cs)
);
},
{
closed = 1;
nodes = (
(237,159,o),
(210,213,o),
(210,359,cs),
(210,507,o),
(237,560,o),
(293,560,cs),
(349,560,o),
(376,507,o),
(376,359,cs),
(376,213,o),
(349,159,o),
(293,159,cs)
);
}
);
width = 586;
},
{
layerId = "106FCE83-F343-403B-A314-646E4D059B3F";
shapes = (
{
closed = 1;
nodes = (
(572,-10,o),
(705,117,o),
(705,364,cs),
(705,612,o),
(569,737,o),
(368,737,cs),
(160,737,o),
(29,611,o),
(29,364,cs),
(29,115,o),
(165,-10,o),
(369,-10,cs)
);
},
{
closed = 1;
nodes = (
(168,24,o),
(67,149,o),
(67,364,cs),
(67,580,o),
(171,703,o),
(368,703,cs),
(565,703,o),
(667,579,o),
(667,364,cs),
(667,149,o),
(562,24,o),
(368,24,cs)
);
}
);
width = 734;
},
{
layerId = "2D1A1AFE-39FB-4EBD-856C-88C6B057247F";
shapes = (
{
closed = 1;
nodes = (
(623,-9,o),
(778,124,o),
(778,360,cs),
(778,594,o),
(625,729,o),
(391,729,cs),
(158,729,o),
(3,596,o),
(3,361,cs),
(3,127,o),
(156,-9,o),
(390,-9,cs)
);
},
{
closed = 1;
nodes = (
(296,169,o),
(233,218,o),
(233,360,cs),
(233,502,o),
(296,551,o),
(390,551,cs),
(485,551,o),
(548,502,o),
(548,360,cs),
(548,218,o),
(485,169,o),
(390,169,cs)
);
}
);
width = 781;
}
);
metricRight = "=|";
unicode = 48;
userData = {
KernOnName = zero;
};
}
{
glyphname = one;
kernLeft = KO_one;
layers = (
{
layerId = "71D8B5AD-B400-4239-9672-E7BA455EF2D0";
shapes = (
{
closed = 1;
nodes = (
(118,0,l),
(118,721,l),
(89,721,l),
(87,665,o),
(68,627,o),
(13,627,cs),
(-5,627,l),
(-5,597,l),
(87,597,l),
(87,0,l)
);
}
);
width = 160;
},
{
layerId = "FFCA1F59-E305-4E0F-BBF9-E0C4511C19C1";
shapes = (
{
closed = 1;
nodes = (
(320,0,l),
(320,729,l),
(155,729,l),
(148,651,o),
(99,599,o),
(36,599,cs),
(4,599,l),
(4,454,l),
(135,454,l),
(135,0,l)
);
}
);
width = 338;
},
{
layerId = "5A048DDA-4734-4F8A-A53C-0BED34B57D1C";
shapes = (
{
closed = 1;
nodes = (
(206,0,l),
(206,729,l),
(167,729,l),
(161,661,o),
(130,616,o),
(31,616,cs),
(6,616,l),
(6,587,l),
(169,587,l),
(169,0,l)
);
}
);
userData = {
com.schriftgestaltung.hints = (
{
horizontal = 1;
options = 0;
origin = (
0,
9
);
stem = -2;
target = (
u,
p
);
type = BottomGhost;
},
{
horizontal = 1;
options = 0;
origin = (
0,
6
);
stem = -2;
target = (
0,
7
);
type = Stem;
},
{
horizontal = 0;
options = 0;
origin = (
0,
9
);
stem = -2;
target = (
0,
0
);
type = Stem;
}
);
};
width = 276;
},
{
layerId = "DED42A87-C949-4722-A202-2B551272A3FB";
shapes = (
{
closed = 1;
nodes = (
(382,0,l),
(382,729,l),
(203,729,l),
(195,651,o),
(127,599,o),
(34,599,cs),
(2,599,l),
(2,454,l),
(179,454,l),
(179,0,l)
);
}
);
width = 412;
},
{
layerId = "106FCE83-F343-403B-A314-646E4D059B3F";
shapes = (
{
closed = 1;
nodes = (
(217,0,l),
(217,729,l),
(178,729,l),
(172,661,o),
(141,616,o),
(42,616,cs),
(8,616,l),
(8,587,l),
(180,587,l),
(180,0,l)
);
}
);
width = 279;
},
{
layerId = "2D1A1AFE-39FB-4EBD-856C-88C6B057247F";
shapes = (
{
closed = 1;
nodes = (
(412,0,l),
(412,729,l),
(201,729,l),
(193,651,o),
(125,599,o),
(32,599,cs),
(0,599,l),
(0,437,l),
(183,437,l),
(183,0,l)
);
}
);
width = 444;
}
);
unicode = 49;
userData = {
KernOnName = one;
};
}
{
glyphname = two;
kernLeft = KO_two;
kernRight = KO_two;
layers = (
{
layerId = "71D8B5AD-B400-4239-9672-E7BA455EF2D0";
shapes = (
{
closed = 1;
nodes = (
(298,0,l),
(298,29,l),
(34,29,l),
(47,22,l),
(43,108,o),
(118,209,o),
(180,304,cs),
(236,390,o),
(283,466,o),
(283,561,cs),
(283,654,o),
(240,730,o),
(149,730,cs),
(58,730,o),
(7,654,o),
(11,514,c),
(43,514,l),
(40,629,o),
(70,701,o),
(149,701,cs),
(210,701,o),
(251,656,o),
(251,558,cs),
(251,471,o),
(209,405,o),
(156,325,cs),
(93,231,o),
(13,126,o),
(13,14,cs),
(13,0,l)
);
}
);
width = 306;
},
{
layerId = "FFCA1F59-E305-4E0F-BBF9-E0C4511C19C1";
shapes = (
{
closed = 1;
nodes = (
(432,0,l),
(432,157,l),
(152,157,l),
(213,117,l),
(213,174,o),
(243,208,o),
(307,280,cs),
(402,389,o),
(431,445,o),
(431,527,cs),
(431,666,o),
(360,737,o),
(218,737,cs),
(80,737,o),
(2,636,o),
(4,482,c),
(179,482,l),
(181,546,o),
(191,581,o),
(218,581,cs),
(240,581,o),
(251,564,o),
(251,534,cs),
(251,492,o),
(227,461,o),
(162,384,cs),
(35,235,o),
(8,175,o),
(8,38,cs),
(8,0,l)
);
}
);
width = 441;
},
{
background = {
shapes = (
{
closed = 1;
nodes = (
(494,0,l),
(494,34,l),
(90,34,l),
(99,242,o),
(483,300,o),
(483,532,cs),
(483,646,o),
(400,730,o),
(272,730,cs),
(139,730,o),
(47,643,o),
(52,515,c),
(86,515,l),
(82,624,o),
(158,696,o),
(269,696,cs),
(375,696,o),
(445,630,o),
(445,529,cs),
(445,309,o),
(51,269,o),
(51,13,cs),
(51,0,l)
);
}
);
};
layerId = "5A048DDA-4734-4F8A-A53C-0BED34B57D1C";
shapes = (
{
closed = 1;
nodes = (
(480,0,l),
(480,34,l),
(47,34,l),
(63,23,l),
(63,137,o),
(157,210,o),
(267,288,cs),
(395,378,o),
(455,443,o),
(455,539,cs),
(455,659,o),
(376,736,o),
(249,736,cs),
(119,736,o),
(30,647,o),
(25,509,c),
(63,509,l),
(69,628,o),
(141,702,o),
(249,702,cs),
(353,702,o),
(416,641,o),
(416,539,cs),
(416,454,o),
(364,399,o),
(254,321,cs),
(137,238,o),
(27,156,o),
(27,20,cs),
(27,0,l)
);
}
);
userData = {
com.schriftgestaltung.hints = (
{
horizontal = 1;
options = 0;
origin = (
0,
2
);
stem = -2;
target = (
0,
25
);
type = Stem;
},
{
horizontal = 1;
options = 0;
origin = (
0,
11
);
stem = -2;
target = (
0,
18
);
type = Stem;
},
{
horizontal = 0;
options = 0;
origin = (
0,
14
);
stem = -2;
target = (
0,
15
);
type = Stem;
},
{
horizontal = 0;
options = 0;
origin = (
0,
21
);
stem = -2;
target = (
0,
8
);
type = Stem;
}
);
};
width = 494;
},
{
background = {
shapes = (
{
closed = 1;
nodes = (
(568,0,l),
(568,165,l),
(185,165,l),
(267,133,l),
(263,227,o),
(563,285,o),
(563,511,cs),
(563,639,o),
(465,729,o),
(312,729,cs),
(148,729,o),
(41,639,o),
(31,487,c),
(220,487,l),
(221,532,o),
(247,568,o),
(302,568,cs),
(342,568,o),
(372,544,o),
(372,503,cs),
(372,367,o),
(30,322,o),
(30,35,cs),
(30,0,l)
);
}
);
};
layerId = "DED42A87-C949-4722-A202-2B551272A3FB";
shapes = (
{
closed = 1;
nodes = (
(558,0,l),
(558,165,l),
(177,162,l),
(255,126,l),
(258,167,o),
(316,200,o),
(382,248,cs),
(497,332,o),
(555,398,o),
(555,512,cs),
(555,645,o),
(453,737,o),
(294,737,cs),
(124,737,o),
(12,634,o),
(0,475,c),
(202,475,l),
(207,529,o),
(240,566,o),
(283,566,cs),
(323,566,o),
(351,541,o),
(351,505,cs),
(351,469,o),
(322,444,o),
(235,380,cs),
(62,253,o),
(7,173,o),
(7,35,cs),
(7,0,l)
);
}
);
width = 567;
},
{
layerId = "106FCE83-F343-403B-A314-646E4D059B3F";
shapes = (
{
closed = 1;
nodes = (
(583,0,l),
(583,34,l),
(30,34,l),
(44,25,l),
(44,131,o),
(133,192,o),
(332,289,cs),
(508,375,o),
(554,430,o),
(554,535,cs),
(554,652,o),
(461,735,o),
(299,735,cs),
(145,735,o),
(35,656,o),
(23,500,c),
(60,500,l),
(73,628,o),
(159,701,o),
(297,701,cs),
(428,701,o),
(515,641,o),
(515,532,cs),
(515,444,o),
(479,400,o),
(321,324,cs),
(106,221,o),
(10,145,o),
(10,17,cs),
(10,0,l)
);
}
);
width = 590;
},
{
layerId = "2D1A1AFE-39FB-4EBD-856C-88C6B057247F";
shapes = (
{
closed = 1;
nodes = (
(649,0,l),
(649,170,l),
(198,170,l),
(285,158,l),
(288,186,o),
(366,210,o),
(448,251,cs),
(544,299,o),
(646,369,o),
(646,493,cs),
(646,635,o),
(534,729,o),
(339,729,cs),
(133,729,o),
(16,639,o),
(-6,461,c),
(219,461,l),
(229,526,o),
(266,559,o),
(331,559,cs),
(382,559,o),
(416,530,o),
(416,488,cs),
(416,443,o),
(358,415,o),
(288,379,cs),
(163,315,o),
(-5,237,o),
(-5,46,cs),
(-5,0,l)
);
}
);
width = 657;
}
);
unicode = 50;
userData = {
KernOnName = two;
};
}
{
glyphname = three;
kernLeft = KO_three;
kernRight = KO_three;
layers = (
{
layerId = "71D8B5AD-B400-4239-9672-E7BA455EF2D0";
shapes = (
{
closed = 1;
nodes = (
(252,-8,o),
(304,65,o),
(304,203,cs),
(304,307,o),
(270,372,o),
(208,391,c),
(208,392,l),
(260,413,o),
(293,478,o),
(293,555,cs),
(293,663,o),
(243,729,o),
(155,729,cs),
(65,729,o),
(13,654,o),
(14,526,c),
(45,526,l),
(45,636,o),
(86,701,o),
(155,701,cs),
(223,701,o),
(261,644,o),
(261,553,cs),
(261,476,o),
(228,406,o),
(157,406,cs),
(106,406,l),
(106,375,l),
(157,375,ls),
(232,375,o),
(272,316,o),
(272,204,cs),
(272,82,o),
(236,19,o),
(159,19,cs),
(88,19,o),
(40,75,o),
(42,228,c),
(10,228,l),
(9,83,o),
(51,-8,o),
(159,-8,cs)
);
}
);
width = 322;
},
{
background = {
shapes = (
{
closed = 1;
nodes = (
(368,-10,o),
(460,69,o),
(460,210,cs),
(460,288,o),
(427,352,o),
(367,369,c),
(367,376,l),
(421,397,o),
(449,460,o),
(449,531,cs),
(449,650,o),
(373,730,o),
(239,730,cs),
(103,730,o),
(15,647,o),
(18,499,c),
(197,499,l),
(194,554,o),
(208,580,o),
(232,580,cs),
(263,580,o),
(272,560,o),
(272,507,cs),
(272,467,o),
(255,431,o),
(213,431,cs),
(157,431,l),
(157,300,l),
(219,300,ls),
(256,300,o),
(280,276,o),
(280,219,cs),
(280,162,o),
(265,140,o),
(232,140,cs),
(208,140,o),
(192,161,o),
(192,225,c),
(12,225,l),
(8,84,o),
(69,-10,o),
(230,-10,cs)
);
}
);
};
layerId = "FFCA1F59-E305-4E0F-BBF9-E0C4511C19C1";
shapes = (
{
closed = 1;
nodes = (
(370,-10,o),
(451,73,o),
(451,225,cs),
(451,309,o),
(419,378,o),
(351,395,c),
(351,396,l),
(410,416,o),
(440,467,o),
(440,546,cs),
(440,662,o),
(358,736,o),
(230,736,cs),
(94,736,o),
(6,653,o),
(9,505,c),
(188,505,l),
(186,559,o),
(201,584,o),
(226,584,cs),
(252,584,o),
(263,565,o),
(263,525,cs),
(263,479,o),
(241,452,o),
(204,452,cs),
(143,452,l),
(143,309,l),
(210,309,ls),
(247,309,o),
(271,285,o),
(271,223,cs),
(271,164,o),
(259,142,o),
(227,142,cs),
(197,142,o),
(183,171,o),
(183,243,c),
(3,243,l),
(-1,84,o),
(60,-10,o),
(221,-10,cs)
);
}
);
width = 455;
},
{
background = {
shapes = (
{
closed = 1;
nodes = (
(413,-8,o),
(506,73,o),
(506,195,cs),
(506,289,o),
(454,356,o),
(365,374,c),
(365,378,l),
(442,400,o),
(493,461,o),
(493,547,cs),
(493,657,o),
(411,730,o),
(277,730,cs),
(142,730,o),
(50,641,o),
(55,514,c),
(93,515,l),
(89,624,o),
(164,697,o),
(277,697,cs),
(383,697,o),
(454,642,o),
(454,546,cs),
(454,459,o),
(397,391,o),
(289,391,cs),
(221,391,l),
(221,358,l),
(287,358,ls),
(394,358,o),
(466,306,o),
(466,196,cs),
(466,92,o),
(389,26,o),
(272,26,cs),
(156,26,o),
(81,104,o),
(85,220,c),
(50,220,l),
(46,83,o),
(135,-8,o),
(273,-8,cs)
);
}
);
};
layerId = "5A048DDA-4734-4F8A-A53C-0BED34B57D1C";
shapes = (
{
closed = 1;
nodes = (
(403,-8,o),
(493,72,o),
(493,200,cs),
(493,300,o),
(438,369,o),
(345,387,c),
(345,388,l),
(424,411,o),
(474,476,o),
(474,548,cs),
(474,662,o),
(392,735,o),
(262,735,cs),
(138,735,o),
(50,656,o),
(41,537,c),
(79,537,l),
(89,636,o),
(159,702,o),
(262,702,cs),
(368,702,o),
(435,642,o),
(435,547,cs),
(435,461,o),
(364,402,o),
(252,402,cs),
(201,402,l),
(201,369,l),
(267,369,ls),
(384,369,o),
(453,307,o),
(453,201,cs),
(453,93,o),
(379,26,o),
(257,26,cs),
(144,26,o),
(67,86,o),
(58,212,c),
(20,212,l),
(28,66,o),
(123,-8,o),
(257,-8,cs)
);
}
);
userData = {
com.schriftgestaltung.hints = (
{
horizontal = 1;
options = 0;
origin = (
0,
34
);
stem = -2;
target = (
0,
41
);
type = Stem;
},
{
horizontal = 1;
options = 0;
origin = (
0,
26
);
stem = -2;
target = (
0,
27
);
type = Stem;
},
{
horizontal = 1;
options = 0;
origin = (
0,
12
);
stem = -2;
target = (
0,
19
);
type = Stem;
},
{
horizontal = 0;
options = 0;
origin = (
0,
38
);
stem = -2;
target = (
0,
37
);
type = Stem;
},
{
horizontal = 0;
options = 0;
origin = (
0,
27
);
stem = -2;
target = (
0,
5
);
type = Stem;
},
{
horizontal = 0;
options = 0;
origin = (
0,
31
);
stem = -2;
target = (
0,
2
);
type = Stem;
},
{
horizontal = 0;
options = 0;
origin = (
0,
15
);
stem = -2;
target = (
0,
16
);
type = Stem;
},
{
horizontal = 0;
options = 0;
origin = (
0,
22
);
stem = -2;
target = (
0,
9
);
type = Stem;
}
);
};
width = 523;
},
{
background = {
shapes = (
{
closed = 1;
nodes = (
(1277,-10,o),
(1395,69,o),
(1395,210,cs),
(1395,288,o),
(1347,355,o),
(1276,371,c),
(1276,378,l),
(1335,397,o),
(1379,457,o),
(1379,528,cs),
(1379,655,o),
(1275,730,o),
(1120,730,cs),
(951,730,o),
(845,640,o),
(840,499,c),
(1029,499,l),
(1032,542,o),
(1064,568,o),
(1113,568,cs),
(1160,568,o),
(1188,546,o),
(1188,505,cs),
(1188,464,o),
(1160,436,o),
(1108,436,cs),
(1030,436,l),
(1030,295,l),
(1116,295,ls),
(1170,295,o),
(1198,270,o),
(1198,227,cs),
(1198,182,o),
(1167,152,o),
(1112,152,cs),
(1060,152,o),
(1024,178,o),
(1023,225,c),
(833,225,l),
(839,84,o),
(939,-10,o),
(1113,-10,cs)
);
},
{
closed = 1;
nodes = (
(473,-10,o),
(590,69,o),
(590,210,cs),
(590,287,o),
(543,355,o),
(473,371,c),
(473,378,l),
(531,397,o),
(574,458,o),
(574,528,cs),
(574,655,o),
(471,730,o),
(318,730,cs),
(150,730,o),
(45,640,o),
(40,499,c),
(229,499,l),
(232,541,o),
(262,568,o),
(311,568,cs),
(356,568,o),
(383,546,o),
(383,505,cs),
(383,464,o),
(355,436,o),
(305,436,cs),
(228,436,l),
(228,295,l),
(313,295,ls),
(366,295,o),
(393,270,o),
(393,227,cs),
(393,182,o),
(363,152,o),
(310,152,cs),
(260,152,o),
(224,178,o),
(223,225,c),
(33,225,l),
(39,84,o),
(139,-10,o),
(311,-10,cs)
);
}
);
};
layerId = "DED42A87-C949-4722-A202-2B551272A3FB";
shapes = (
{
closed = 1;
nodes = (
(458,-10,o),
(582,69,o),
(582,212,cs),
(582,294,o),
(536,360,o),
(458,381,c),
(458,382,l),
(520,405,o),
(566,466,o),
(566,536,cs),
(566,662,o),
(457,737,o),
(295,737,cs),
(121,737,o),
(13,647,o),
(7,506,c),
(206,506,l),
(213,550,o),
(243,575,o),
(288,575,cs),
(335,575,o),
(363,555,o),
(363,517,cs),
(363,477,o),
(334,450,o),
(283,450,cs),
(206,450,l),
(206,304,l),
(291,304,ls),
(345,304,o),
(373,278,o),
(373,228,cs),
(373,182,o),
(342,152,o),
(287,152,cs),
(239,152,o),
(204,179,o),
(200,225,c),
(0,225,l),
(7,84,o),
(110,-10,o),
(288,-10,cs)
);
}
);
width = 587;
},
{
layerId = "106FCE83-F343-403B-A314-646E4D059B3F";
shapes = (
{
closed = 1;
nodes = (
(499,-8,o),
(611,68,o),
(611,202,cs),
(611,314,o),
(539,379,o),
(422,389,c),
(422,390,l),
(516,404,o),
(585,466,o),
(585,556,cs),
(585,677,o),
(493,738,o),
(317,738,cs),
(154,738,o),
(40,649,o),
(37,507,c),
(73,507,l),
(77,632,o),
(174,704,o),
(317,704,cs),
(468,704,o),
(547,654,o),
(547,555,cs),
(547,468,o),
(485,405,o),
(328,405,cs),
(242,405,l),
(242,372,l),
(340,372,ls),
(479,372,o),
(571,330,o),
(571,203,cs),
(571,88,o),
(476,26,o),
(310,26,cs),
(159,26,o),
(60,91,o),
(56,235,c),
(19,235,l),
(23,85,o),
(124,-8,o),
(310,-8,cs)
);
}
);
width = 630;
},
{
layerId = "2D1A1AFE-39FB-4EBD-856C-88C6B057247F";
shapes = (
{
closed = 1;
nodes = (
(558,-10,o),
(679,78,o),
(679,209,cs),
(679,298,o),
(621,367,o),
(535,379,c),
(535,380,l),
(612,399,o),
(665,463,o),
(665,532,cs),
(665,664,o),
(552,737,o),
(345,737,cs),
(149,737,o),
(24,664,o),
(12,501,c),
(228,501,l),
(236,547,o),
(274,572,o),
(336,572,cs),
(400,572,o),
(435,551,o),
(435,512,cs),
(435,475,o),
(404,450,o),
(339,450,cs),
(240,450,l),
(240,298,l),
(341,298,ls),
(415,298,o),
(449,275,o),
(449,231,cs),
(449,183,o),
(411,156,o),
(335,156,cs),
(269,156,o),
(227,178,o),
(221,231,c),
(0,231,l),
(9,77,o),
(112,-10,o),
(333,-10,cs)
);
}
);
width = 682;
}
);
unicode = 51;
userData = {
KernOnName = three;
};
}
{
glyphname = four;
kernLeft = KO_four;
kernRight = KO_four;
layers = (
{
layerId = "71D8B5AD-B400-4239-9672-E7BA455EF2D0";
shapes = (
{
closed = 1;
nodes = (
(278,0,l),
(278,729,l),
(235,729,l),
(0,213,l),
(0,187,l),
(350,187,l),
(350,216,l),
(33,216,l),
(250,696,l),
(246,696,l),
(246,0,l)
);
}
);
width = 346;
},
{
layerId = "FFCA1F59-E305-4E0F-BBF9-E0C4511C19C1";
shapes = (
{
closed = 1;
nodes = (
(423,0,l),
(423,729,l),
(207,729,l),
(4,286,l),
(4,145,l),
(489,145,l),
(489,300,l),
(162,300,l),
(263,551,l),
(243,551,l),
(243,0,l)
);
}
);
width = 493;
},
{
layerId = "5A048DDA-4734-4F8A-A53C-0BED34B57D1C";
shapes = (
{
closed = 1;
nodes = (
(405,0,l),
(405,729,l),
(363,729,l),
(8,226,l),
(8,192,l),
(547,192,l),
(547,225,l),
(51,225,l),
(378,693,l),
(368,693,l),
(368,0,l)
);
}
);
userData = {
com.schriftgestaltung.hints = (
{
horizontal = 1;
options = 0;
origin = (
0,
10
);
stem = -2;
target = (
u,
p
);
type = BottomGhost;
},
{
horizontal = 1;
options = 0;
origin = (
1,
2
);
stem = -2;
target = (
0,
8
);
type = Stem;
},
{
horizontal = 1;
options = 0;
place = (
0,
0
);
stem = -2;
type = Stem;
},
{
horizontal = 0;
options = 0;
origin = (
0,
10
);
stem = -2;
target = (
0,
0
);
type = Stem;
}
);
};
width = 553;
},
{
layerId = "DED42A87-C949-4722-A202-2B551272A3FB";
shapes = (
{
closed = 1;
nodes = (
(517,0,l),
(517,729,l),
(286,729,l),
(3,293,l),
(3,152,l),
(625,152,l),
(625,307,l),
(190,307,l),
(377,597,l),
(326,597,l),
(326,0,l)
);
}
);
width = 628;
},
{
layerId = "106FCE83-F343-403B-A314-646E4D059B3F";
shapes = (
{
closed = 1;
nodes = (
(524,0,l),
(524,729,l),
(483,729,l),
(9,232,l),
(9,197,l),
(682,197,l),
(682,229,l),
(55,229,l),
(489,685,l),
(487,685,l),
(487,0,l)
);
}
);
width = 690;
},
{
layerId = "2D1A1AFE-39FB-4EBD-856C-88C6B057247F";
shapes = (
{
closed = 1;
nodes = (
(600,0,l),
(600,729,l),
(335,729,l),
(0,293,l),
(0,144,l),
(710,144,l),
(710,316,l),
(236,316,l),
(378,515,l),
(377,515,l),
(377,0,l)
);
}
);
width = 711;
}
);
unicode = 52;
userData = {
KernOnName = four;
};
}
{
glyphname = five;
kernLeft = KO_five;
kernRight = KO_five;
layers = (
{
background = {
shapes = (
{
closed = 1;
nodes = (
(284,-8,o),
(335,65,o),
(335,235,cs),
(335,375,o),
(296,468,o),
(197,468,cs),
(151,468,o),
(110,440,o),
(87,381,c),
(84,382,l),
(93,694,l),
(334,694,l),
(334,721,l),
(66,721,l),
(54,338,l),
(91,338,l),
(108,400,o),
(138,441,o),
(198,441,cs),
(262,441,o),
(305,383,o),
(305,235,cs),
(305,81,o),
(269,17,o),
(192,17,cs),
(119,17,o),
(72,74,o),
(74,220,c),
(45,220,l),
(44,83,o),
(85,-8,o),
(192,-8,cs)
);
}
);
};
layerId = "71D8B5AD-B400-4239-9672-E7BA455EF2D0";
shapes = (
{
closed = 1;
nodes = (
(266,-8,o),
(317,66,o),
(317,248,cs),
(317,425,o),
(272,498,o),
(176,498,cs),
(130,498,o),
(88,470,o),
(68,426,c),
(67,426,l),
(75,700,l),
(316,700,l),
(316,729,l),
(46,729,l),
(34,331,l),
(65,331,l),
(77,423,o),
(113,470,o),
(175,470,cs),
(242,470,o),
(285,421,o),
(285,248,cs),
(285,82,o),
(249,19,o),
(173,19,cs),
(99,19,o),
(56,94,o),
(56,220,c),
(25,220,l),
(26,77,o),
(80,-8,o),
(173,-8,cs)
);
}
);
width = 330;
},
{
layerId = "FFCA1F59-E305-4E0F-BBF9-E0C4511C19C1";
shapes = (
{
closed = 1;
nodes = (
(370,-10,o),
(450,83,o),
(450,253,cs),
(450,419,o),
(390,504,o),
(273,504,cs),
(241,504,o),
(209,491,o),
(191,470,c),
(190,470,l),
(196,572,l),
(412,572,l),
(412,729,l),
(31,729,l),
(12,288,l),
(186,288,l),
(191,327,o),
(205,348,o),
(227,348,cs),
(256,348,o),
(270,320,o),
(270,245,cs),
(270,169,o),
(256,140,o),
(225,140,cs),
(200,140,o),
(184,171,o),
(184,219,c),
(4,219,l),
(11,67,o),
(85,-10,o),
(225,-10,cs)
);
}
);
width = 454;
},
{
background = {
shapes = (
{
closed = 1;
nodes = (
(428,-8,o),
(524,89,o),
(524,235,cs),
(524,378,o),
(433,474,o),
(296,474,cs),
(214,474,o),
(147,436,o),
(113,379,c),
(110,380,l),
(124,687,l),
(493,687,l),
(493,721,l),
(91,721,l),
(77,338,l),
(111,338,l),
(140,399,o),
(205,441,o),
(290,441,cs),
(406,441,o),
(483,366,o),
(483,233,cs),
(483,109,o),
(412,26,o),
(286,26,cs),
(168,26,o),
(92,104,o),
(96,220,c),
(61,220,l),
(59,83,o),
(149,-8,o),
(285,-8,cs)
);
}
);
};
layerId = "5A048DDA-4734-4F8A-A53C-0BED34B57D1C";
shapes = (
{
closed = 1;
nodes = (
(413,-8,o),
(510,87,o),
(510,235,cs),
(510,381,o),
(417,475,o),
(276,475,cs),
(196,475,o),
(128,439,o),
(92,384,c),
(91,384,l),
(114,695,l),
(486,695,l),
(486,729,l),
(82,729,l),
(53,342,l),
(95,342,l),
(124,400,o),
(188,441,o),
(270,441,cs),
(390,441,o),
(470,368,o),
(470,233,cs),
(470,108,o),
(397,26,o),
(268,26,cs),
(155,26,o),
(79,95,o),
(72,212,c),
(34,212,l),
(40,75,o),
(134,-8,o),
(267,-8,cs)
);
}
);
userData = {
com.schriftgestaltung.hints = (
{
horizontal = 1;
options = 0;
origin = (
0,
24
);
stem = -2;
target = (
0,
31
);
type = Stem;
},
{
horizontal = 1;
options = 0;
origin = (
0,
5
);
stem = -2;
target = (
0,
18
);
type = Stem;
},
{
horizontal = 1;
options = 0;
origin = (
0,
13
);
stem = -2;
target = (
0,
10
);
type = Stem;
},
{
horizontal = 0;
options = 0;
place = (
0,
0
);
stem = -2;
type = Stem;
},
{
horizontal = 0;
options = 0;
origin = (
0,
21
);
stem = -2;
target = (
0,
2
);
type = Stem;
},
{
horizontal = 0;
options = 0;
origin = (
0,
28
);
stem = -2;
target = (
0,
27
);
type = Stem;
}
);
};
width = 536;
},
{
background = {
shapes = (
{
closed = 1;
nodes = (
(486,-10,o),
(600,93,o),
(600,248,cs),
(600,388,o),
(504,482,o),
(368,482,cs),
(316,482,o),
(266,468,o),
(243,448,c),
(235,451,l),
(243,555,l),
(573,555,l),
(573,721,l),
(75,721,l),
(54,277,l),
(236,277,l),
(246,310,o),
(280,332,o),
(319,332,cs),
(377,332,o),
(408,296,o),
(408,241,cs),
(408,193,o),
(374,152,o),
(319,152,cs),
(265,152,o),
(229,178,o),
(228,225,c),
(38,225,l),
(44,84,o),
(144,-10,o),
(313,-10,cs)
);
}
);
};
layerId = "DED42A87-C949-4722-A202-2B551272A3FB";
shapes = (
{
closed = 1;
nodes = (
(467,-10,o),
(584,94,o),
(584,253,cs),
(584,400,o),
(491,493,o),
(347,493,cs),
(291,493,o),
(241,476,o),
(218,453,c),
(217,453,l),
(230,563,l),
(564,563,l),
(564,729,l),
(58,729,l),
(23,289,l),
(215,289,l),
(225,318,o),
(257,338,o),
(295,338,cs),
(347,338,o),
(382,303,o),
(382,246,cs),
(382,194,o),
(349,152,o),
(295,152,cs),
(249,152,o),
(215,178,o),
(207,221,c),
(2,222,l),
(15,82,o),
(120,-10,o),
(291,-10,cs)
);
}
);
width = 592;
},
{
layerId = "106FCE83-F343-403B-A314-646E4D059B3F";
shapes = (
{
closed = 1;
nodes = (
(522,-8,o),
(634,84,o),
(634,241,cs),
(634,400,o),
(530,487,o),
(340,487,cs),
(232,487,o),
(136,450,o),
(89,393,c),
(88,394,l),
(106,696,l),
(618,696,l),
(618,729,l),
(72,729,l),
(51,352,l),
(89,352,l),
(131,414,o),
(225,453,o),
(337,453,cs),
(503,453,o),
(594,377,o),
(594,239,cs),
(594,105,o),
(497,26,o),
(328,26,cs),
(170,26,o),
(69,106,o),
(61,229,c),
(24,229,l),
(33,85,o),
(149,-8,o),
(328,-8,cs)
);
}
);
width = 657;
},
{
background = {
shapes = (
{
closed = 1;
nodes = (
(555,-10,o),
(695,73,o),
(695,241,cs),
(695,401,o),
(588,482,o),
(424,482,cs),
(365,482,o),
(298,466,o),
(269,443,c),
(260,446,l),
(270,547,l),
(661,547,l),
(661,721,l),
(67,721,l),
(42,272,l),
(245,272,l),
(263,305,o),
(309,327,o),
(364,327,cs),
(428,327,o),
(471,298,o),
(471,243,cs),
(471,191,o),
(433,156,o),
(360,156,cs),
(302,156,o),
(261,173,o),
(253,219,c),
(30,219,l),
(40,84,o),
(139,-10,o),
(357,-10,cs)
);
}
);
};
layerId = "2D1A1AFE-39FB-4EBD-856C-88C6B057247F";
shapes = (
{
closed = 1;
nodes = (
(545,-10,o),
(695,73,o),
(695,246,cs),
(695,412,o),
(574,494,o),
(416,494,cs),
(344,494,o),
(273,472,o),
(248,443,c),
(247,443,l),
(257,555,l),
(660,555,l),
(660,729,l),
(48,729,l),
(22,280,l),
(232,280,l),
(253,308,o),
(301,326,o),
(354,326,cs),
(420,326,o),
(464,299,o),
(464,241,cs),
(464,189,o),
(425,156,o),
(350,156,cs),
(290,156,o),
(248,173,o),
(238,226,c),
(8,226,l),
(20,84,o),
(122,-10,o),
(347,-10,cs)
);
}
);
width = 698;
}
);
unicode = 53;
}
{
glyphname = six;
kernLeft = KO_six;
kernRight = KO_six;
layers = (
{
background = {
shapes = (
{
closed = 1;
nodes = (
(288,-10,o),
(345,48,o),
(345,231,cs),
(345,371,o),
(310,464,o),
(201,464,cs),
(145,464,o),
(94,427,o),
(77,329,c),
(74,329,l),
(79,545,o),
(99,703,o),
(207,703,cs),
(267,703,o),
(299,664,o),
(310,552,c),
(340,552,l),
(329,664,o),
(294,730,o),
(206,730,cs),
(112,730,o),
(46,650,o),
(46,315,cs),
(46,120,o),
(84,-10,o),
(203,-10,cs)
);
},
{
closed = 1;
nodes = (
(133,17,o),
(86,75,o),
(86,223,cs),
(86,352,o),
(123,438,o),
(201,438,cs),
(269,438,o),
(315,397,o),
(315,231,cs),
(315,103,o),
(293,17,o),
(203,17,cs)
);
}
);
};
layerId = "71D8B5AD-B400-4239-9672-E7BA455EF2D0";
shapes = (
{
closed = 1;
nodes = (
(270,-10,o),
(327,49,o),
(327,238,cs),
(327,406,o),
(282,480,o),
(185,480,cs),
(123,480,o),
(71,438,o),
(54,343,c),
(53,343,l),
(58,587,o),
(80,708,o),
(182,708,cs),
(245,708,o),
(275,662,o),
(285,553,c),
(315,553,l),
(304,677,o),
(266,737,o),
(181,737,cs),
(87,737,o),
(26,661,o),
(26,355,cs),
(26,145,o),
(48,-10,o),
(184,-10,cs)
);
},
{
closed = 1;
nodes = (
(115,18,o),
(66,75,o),
(66,230,cs),
(66,368,o),
(105,454,o),
(182,454,cs),
(261,454,o),
(295,389,o),
(295,238,cs),
(295,83,o),
(262,18,o),
(184,18,cs)
);
}
);
width = 350;
},
{
background = {
shapes = (
{
closed = 1;
nodes = (
(386,-9,o),
(475,71,o),
(475,242,cs),
(475,396,o),
(417,483,o),
(313,483,cs),
(266,483,o),
(225,461,o),
(212,427,c),
(203,427,l),
(201,522,o),
(210,580,o),
(252,580,cs),
(275,580,o),
(294,562,o),
(294,526,c),
(465,526,l),
(461,661,o),
(379,730,o),
(252,730,cs),
(111,730,o),
(16,651,o),
(16,352,cs),
(16,135,o),
(63,-9,o),
(253,-9,cs)
);
},
{
closed = 1;
nodes = (
(228,140,o),
(213,161,o),
(213,245,cs),
(213,307,o),
(221,342,o),
(255,342,cs),
(280,342,o),
(295,322,o),
(295,238,cs),
(295,177,o),
(287,140,o),
(253,140,cs)
);
}
);
};
layerId = "FFCA1F59-E305-4E0F-BBF9-E0C4511C19C1";
shapes = (
{
closed = 1;
nodes = (
(386,-9,o),
(466,71,o),
(466,244,cs),
(466,402,o),
(421,489,o),
(304,489,cs),
(256,489,o),
(214,466,o),
(195,433,c),
(194,433,l),
(192,528,o),
(201,586,o),
(242,586,cs),
(263,586,o),
(281,568,o),
(283,522,c),
(454,522,l),
(448,667,o),
(373,736,o),
(242,736,cs),
(102,736,o),
(7,657,o),
(7,352,cs),
(7,135,o),
(54,-9,o),
(244,-9,cs)
);
},
{
closed = 1;
nodes = (
(219,140,o),
(204,160,o),
(204,241,cs),
(204,307,o),
(216,337,o),
(246,337,cs),
(274,337,o),
(286,306,o),
(286,234,cs),
(286,175,o),
(278,140,o),
(244,140,cs)
);
}
);
width = 471;
},
{
background = {
shapes = (
{
closed = 1;
nodes = (
(436,-8,o),
(532,83,o),
(532,229,cs),
(532,371,o),
(442,464,o),
(311,464,cs),
(202,464,o),
(124,403,o),
(102,311,c),
(99,311,l),
(103,532,o),
(132,696,o),
(313,696,cs),
(409,696,o),
(478,645,o),
(488,552,c),
(522,552,l),
(513,662,o),
(436,730,o),
(313,730,cs),
(143,730,o),
(64,605,o),
(64,315,cs),
(64,115,o),
(135,-8,o),
(301,-8,cs)
);
},
{
closed = 1;
nodes = (
(189,26,o),
(112,100,o),
(112,223,cs),
(112,339,o),
(184,431,o),
(305,431,cs),
(416,431,o),
(491,355,o),
(491,231,cs),
(491,107,o),
(416,26,o),
(303,26,cs)
);
}
);
};
layerId = "5A048DDA-4734-4F8A-A53C-0BED34B57D1C";
shapes = (
{
closed = 1;
nodes = (
(431,-8,o),
(532,81,o),
(532,229,cs),
(532,372,o),
(441,465,o),
(302,465,cs),
(189,465,o),
(106,404,o),
(80,312,c),
(79,312,l),
(83,541,o),
(112,702,o),
(300,702,cs),
(406,702,o),
(468,643,o),
(481,544,c),
(517,544,l),
(508,661,o),
(429,736,o),
(300,736,cs),
(125,736,o),
(44,612,o),
(44,307,cs),
(44,112,o),
(120,-8,o),
(291,-8,cs)
);
},
{
closed = 1;
nodes = (
(174,26,o),
(92,98,o),
(92,227,cs),
(92,340,o),
(172,431,o),
(298,431,cs),
(415,431,o),
(492,355,o),
(492,229,cs),
(492,105,o),
(412,26,o),
(293,26,cs)
);
}
);
userData = {
com.schriftgestaltung.hints = (
{
horizontal = 1;
options = 0;
origin = (
1,
11
);
stem = -2;
target = (
0,
25
);
type = Stem;
},
{
horizontal = 1;
options = 0;
origin = (
0,
5
);
stem = -2;
target = (
1,
5
);
type = Stem;
},
{
horizontal = 1;
options = 0;
origin = (
0,
19
);
stem = -2;
target = (
0,
12
);
type = Stem;
},
{
horizontal = 0;
options = 0;
origin = (
0,
22
);
stem = -2;
target = (
0,
9
);
type = Stem;
},
{
horizontal = 0;
options = 0;
origin = (
1,
8
);
stem = -2;
target = (
0,
2
);
type = Stem;
}
);
};
width = 556;
},
{
background = {
shapes = (
{
closed = 1;
nodes = (
(507,-9,o),
(619,82,o),
(619,244,cs),
(619,387,o),
(529,483,o),
(393,483,cs),
(329,483,o),
(278,461,o),
(253,427,c),
(245,427,l),
(242,522,o),
(283,566,o),
(347,566,cs),
(386,566,o),
(418,550,o),
(427,526,c),
(614,526,l),
(600,648,o),
(503,730,o),
(348,730,cs),
(160,730,o),
(50,603,o),
(50,356,cs),
(50,100,o),
(166,-9,o),
(341,-9,cs)
);
},
{
closed = 1;
nodes = (
(291,156,o),
(258,192,o),
(258,249,cs),
(258,306,o),
(291,342,o),
(344,342,cs),
(397,342,o),
(430,306,o),
(430,249,cs),
(430,192,o),
(397,156,o),
(344,156,cs)
);
}
);
};
layerId = "DED42A87-C949-4722-A202-2B551272A3FB";
shapes = (
{
closed = 1;
nodes = (
(504,-9,o),
(625,93,o),
(625,245,cs),
(625,381,o),
(526,473,o),
(380,473,cs),
(304,473,o),
(249,451,o),
(217,407,c),
(216,407,l),
(216,517,o),
(261,574,o),
(333,574,cs),
(374,574,o),
(410,554,o),
(419,510,c),
(633,510,l),
(613,656,o),
(508,736,o),
(336,736,cs),
(128,736,o),
(10,602,o),
(10,350,cs),
(10,97,o),
(133,-9,o),
(321,-9,cs)
);
},
{
closed = 1;
nodes = (
(273,156,o),
(237,191,o),
(237,243,cs),
(237,294,o),
(273,327,o),
(327,327,cs),
(380,327,o),
(416,294,o),
(416,243,cs),
(416,191,o),
(380,156,o),
(327,156,cs)
);
}
);
width = 638;
},
{
layerId = "106FCE83-F343-403B-A314-646E4D059B3F";
shapes = (
{
closed = 1;
nodes = (
(529,-8,o),
(646,80,o),
(646,241,cs),
(646,398,o),
(537,482,o),
(353,482,cs),
(208,482,o),
(98,415,o),
(68,314,c),
(67,314,l),
(69,534,o),
(109,703,o),
(356,703,cs),
(497,703,o),
(575,649,o),
(588,547,c),
(626,547,l),
(615,668,o),
(519,737,o),
(356,737,cs),
(132,737,o),
(32,610,o),
(32,309,cs),
(32,120,o),
(108,-8,o),
(347,-8,cs)
);
},
{
closed = 1;
nodes = (
(188,26,o),
(84,91,o),
(84,233,cs),
(84,358,o),
(183,449,o),
(352,449,cs),
(507,449,o),
(606,384,o),
(606,241,cs),
(606,108,o),
(524,26,o),
(349,26,cs)
);
}
);
width = 668;
},
{
background = {
shapes = (
{
closed = 1;
nodes = (
(584,-9,o),
(718,83,o),
(718,246,cs),
(718,384,o),
(622,477,o),
(435,477,cs),
(356,477,o),
(284,453,o),
(252,417,c),
(242,419,l),
(245,511,o),
(291,562,o),
(384,562,cs),
(434,562,o),
(472,552,o),
(490,518,c),
(708,518,l),
(684,634,o),
(596,730,o),
(391,730,cs),
(185,730,o),
(20,629,o),
(20,351,cs),
(20,68,o),
(187,-9,o),
(376,-9,cs)
);
},
{
closed = 1;
nodes = (
(311,158,o),
(265,185,o),
(265,241,cs),
(265,292,o),
(303,327,o),
(381,327,cs),
(455,327,o),
(496,298,o),
(496,242,cs),
(496,191,o),
(458,158,o),
(380,158,cs)
);
}
);
};
layerId = "2D1A1AFE-39FB-4EBD-856C-88C6B057247F";
shapes = (
{
closed = 1;
nodes = (
(574,-9,o),
(713,84,o),
(713,250,cs),
(713,395,o),
(603,477,o),
(438,477,cs),
(343,477,o),
(267,448,o),
(233,398,c),
(232,398,l),
(235,508,o),
(281,567,o),
(374,567,cs),
(431,567,o),
(469,545,o),
(484,503,c),
(710,503,l),
(688,649,o),
(566,735,o),
(381,735,cs),
(172,735,o),
(5,633,o),
(5,351,cs),
(5,68,o),
(174,-9,o),
(366,-9,cs)
);
},
{
closed = 1;
nodes = (
(301,158,o),
(255,185,o),
(255,241,cs),
(255,295,o),
(298,327,o),
(371,327,cs),
(445,327,o),
(486,298,o),
(486,242,cs),
(486,191,o),
(448,158,o),
(370,158,cs)
);
}
);
width = 717;
}
);
unicode = 54;
}
{
glyphname = seven;
kernLeft = KO_seven;
kernRight = KO_seven;
layers = (
{
layerId = "71D8B5AD-B400-4239-9672-E7BA455EF2D0";
shapes = (
{
closed = 1;
nodes = (
(149,0,l),
(149,201,o),
(187,405,o),
(319,702,c),
(319,729,l),
(7,729,l),
(7,531,l),
(36,531,l),
(36,699,l),
(295,699,l),
(286,707,l),
(186,472,o),
(115,256,o),
(115,0,c)
);
}
);
width = 316;
},
{
layerId = "FFCA1F59-E305-4E0F-BBF9-E0C4511C19C1";
shapes = (
{
closed = 1;
nodes = (
(325,0,l),
(325,178,o),
(368,398,o),
(447,590,c),
(447,729,l),
(7,729,l),
(7,453,l),
(158,453,l),
(158,563,l),
(340,563,l),
(283,609,l),
(190,429,o),
(136,199,o),
(139,0,c)
);
}
);
width = 452;
},
{
background = {
shapes = (
{
closed = 1;
nodes = (
(246,0,l),
(274,237,o),
(349,468,o),
(505,696,c),
(505,721,l),
(45,721,l),
(45,524,l),
(78,524,l),
(78,687,l),
(460,687,l),
(334,501,o),
(240,284,o),
(206,0,c)
);
}
);
};
layerId = "5A048DDA-4734-4F8A-A53C-0BED34B57D1C";
shapes = (
{
closed = 1;
nodes = (
(230,0,l),
(230,316,o),
(352,507,o),
(485,704,c),
(485,729,l),
(25,729,l),
(25,532,l),
(58,532,l),
(58,696,l),
(456,696,l),
(446,704,l),
(312,505,o),
(190,312,o),
(190,0,c)
);
}
);
userData = {
com.schriftgestaltung.hints = (
{
horizontal = 1;
options = 0;
origin = (
0,
12
);
stem = -2;
target = (
u,
p
);
type = BottomGhost;
},
{
horizontal = 1;
options = 0;
origin = (
0,
5
);
stem = -2;
target = (
0,
8
);
type = Stem;
},
{
horizontal = 0;
options = 0;
origin = (
0,
6
);
stem = -2;
target = (
0,
7
);
type = Stem;
},
{
horizontal = 0;
options = 0;
origin = (
0,
12
);
stem = -2;
target = (
0,
0
);
type = Stem;
}
);
};
width = 490;
},
{
background = {
shapes = (
{
closed = 1;
nodes = (
(371,0,l),
(399,265,o),
(491,432,o),
(583,582,c),
(583,721,l),
(28,721,l),
(28,445,l),
(179,445,l),
(179,555,l),
(378,555,l),
(292,438,o),
(203,265,o),
(171,0,c)
);
}
);
};
layerId = "DED42A87-C949-4722-A202-2B551272A3FB";
shapes = (
{
closed = 1;
nodes = (
(368,0,l),
(368,210,o),
(430,395,o),
(562,580,c),
(562,729,l),
(7,729,l),
(7,453,l),
(158,453,l),
(158,553,l),
(411,553,l),
(359,597,l),
(226,436,o),
(153,222,o),
(153,0,c)
);
}
);
width = 564;
},
{
background = {
shapes = (
{
closed = 1;
nodes = (
(281,0,l),
(281,216,o),
(344,443,o),
(570,696,c),
(570,721,l),
(25,721,l),
(25,524,l),
(57,524,l),
(57,690,l),
(525,690,l),
(332,474,o),
(243,251,o),
(243,0,c)
);
}
);
};
layerId = "106FCE83-F343-403B-A314-646E4D059B3F";
shapes = (
{
closed = 1;
nodes = (
(237,0,l),
(274,263,o),
(394,500,o),
(562,704,c),
(562,729,l),
(20,729,l),
(20,532,l),
(52,532,l),
(52,698,l),
(534,698,l),
(524,706,l),
(362,511,o),
(237,277,o),
(198,0,c)
);
}
);
width = 573;
},
{
layerId = "2D1A1AFE-39FB-4EBD-856C-88C6B057247F";
shapes = (
{
closed = 1;
nodes = (
(388,0,l),
(410,197,o),
(522,425,o),
(641,571,c),
(641,729,l),
(4,729,l),
(4,444,l),
(174,444,l),
(174,550,l),
(510,550,l),
(455,597,l),
(301,441,o),
(179,220,o),
(154,0,c)
);
}
);
width = 641;
}
);
unicode = 55;
userData = {
KernOnName = seven;
};
}
{
glyphname = eight;
kernLeft = KO_eight;
kernRight = KO_eight;
layers = (
{
background = {
shapes = (
{
closed = 1;
nodes = (
(299,-8,o),
(363,57,o),
(363,195,cs),
(363,283,o),
(326,355,o),
(265,374,c),
(265,378,l),
(321,399,o),
(353,468,o),
(353,547,cs),
(353,656,o),
(299,729,o),
(204,729,cs),
(115,729,o),
(54,663,o),
(54,547,cs),
(54,467,o),
(86,399,o),
(142,378,c),
(142,374,l),
(85,356,o),
(44,289,o),
(44,195,cs),
(44,73,o),
(96,-8,o),
(204,-8,cs)
);
},
{
closed = 1;
nodes = (
(128,19,o),
(76,68,o),
(76,196,cs),
(76,296,o),
(117,361,o),
(204,361,cs),
(280,361,o),
(331,308,o),
(331,196,cs),
(331,91,o),
(295,19,o),
(204,19,cs)
);
},
{
closed = 1;
nodes = (
(133,389,o),
(85,445,o),
(85,546,cs),
(85,639,o),
(123,701,o),
(204,701,cs),
(274,701,o),
(322,652,o),
(322,546,cs),
(322,451,o),
(279,389,o),
(204,389,cs)
);
}
);
};
layerId = "71D8B5AD-B400-4239-9672-E7BA455EF2D0";
shapes = (
{
closed = 1;
nodes = (
(288,-8,o),
(345,65,o),
(345,203,cs),
(345,299,o),
(307,373,o),
(235,392,c),
(235,393,l),
(301,414,o),
(332,484,o),
(332,559,cs),
(332,671,o),
(277,737,o),
(184,737,cs),
(90,737,o),
(35,671,o),
(35,559,cs),
(35,483,o),
(66,414,o),
(132,393,c),
(132,392,l),
(64,374,o),
(22,305,o),
(22,203,cs),
(22,65,o),
(79,-8,o),
(184,-8,cs)
);
},
{
closed = 1;
nodes = (
(100,21,o),
(54,86,o),
(54,204,cs),
(54,312,o),
(96,377,o),
(184,377,cs),
(261,377,o),
(313,324,o),
(313,204,cs),
(313,86,o),
(267,21,o),
(184,21,cs)
);
},
{
closed = 1;
nodes = (
(113,405,o),
(66,461,o),
(66,558,cs),
(66,652,o),
(110,708,o),
(184,708,cs),
(258,708,o),
(301,652,o),
(301,558,cs),
(301,467,o),
(259,405,o),
(184,405,cs)
);
}
);
width = 360;
},
{
background = {
shapes = (
{
closed = 1;
nodes = (
(372,-10,o),
(451,72,o),
(451,196,cs),
(451,278,o),
(418,342,o),
(369,361,c),
(369,369,l),
(411,391,o),
(441,455,o),
(441,533,cs),
(441,651,o),
(366,729,o),
(232,729,cs),
(98,729,o),
(23,651,o),
(23,533,cs),
(23,455,o),
(53,391,o),
(95,369,c),
(95,361,l),
(46,342,o),
(13,278,o),
(13,196,cs),
(13,72,o),
(92,-10,o),
(232,-10,cs)
);
},
{
closed = 1;
nodes = (
(209,133,o),
(193,155,o),
(193,211,cs),
(193,262,o),
(202,290,o),
(232,290,cs),
(262,290,o),
(271,262,o),
(271,211,cs),
(271,155,o),
(255,133,o),
(232,133,cs)
);
},
{
closed = 1;
nodes = (
(210,436,o),
(196,450,o),
(196,514,cs),
(196,553,o),
(203,586,o),
(232,586,cs),
(261,586,o),
(268,553,o),
(268,514,cs),
(268,450,o),
(254,436,o),
(232,436,cs)
);
}
);
};
layerId = "FFCA1F59-E305-4E0F-BBF9-E0C4511C19C1";
shapes = (
{
closed = 1;
nodes = (
(368,-10,o),
(453,72,o),
(453,210,cs),
(453,309,o),
(412,378,o),
(343,398,c),
(343,399,l),
(404,420,o),
(442,479,o),
(442,552,cs),
(442,666,o),
(357,738,o),
(223,738,cs),
(89,738,o),
(4,666,o),
(4,552,cs),
(4,480,o),
(42,420,o),
(103,399,c),
(103,398,l),
(34,378,o),
(-7,309,o),
(-7,210,cs),
(-7,72,o),
(78,-10,o),
(223,-10,cs)
);
},
{
closed = 1;
nodes = (
(196,133,o),
(183,161,o),
(183,221,cs),
(183,283,o),
(192,312,o),
(223,312,cs),
(254,312,o),
(263,283,o),
(263,221,cs),
(263,161,o),
(250,133,o),
(223,133,cs)
);
},
{
closed = 1;
nodes = (
(198,466,o),
(187,488,o),
(187,533,cs),
(187,575,o),
(198,595,o),
(223,595,cs),
(248,595,o),
(259,575,o),
(259,533,cs),
(259,488,o),
(248,466,o),
(223,466,cs)
);
}
);
width = 446;
},
{
background = {
shapes = (
{
closed = 1;
nodes = (
(443,-8,o),
(541,70,o),
(541,187,cs),
(541,277,o),
(487,353,o),
(375,361,c),
(375,363,l),
(484,375,o),
(532,455,o),
(532,539,cs),
(532,654,o),
(438,729,o),
(298,729,cs),
(158,729,o),
(66,656,o),
(66,541,cs),
(66,456,o),
(114,377,o),
(222,363,c),
(222,361,l),
(110,349,o),
(54,269,o),
(54,185,cs),
(54,69,o),
(152,-8,o),
(298,-8,cs)
);
},
{
closed = 1;
nodes = (
(178,26,o),
(97,88,o),
(97,191,cs),
(97,271,o),
(156,343,o),
(298,343,cs),
(438,343,o),
(500,278,o),
(500,191,cs),
(500,92,o),
(422,26,o),
(298,26,cs)
);
},
{
closed = 1;
nodes = (
(162,380,o),
(106,449,o),
(106,537,cs),
(106,634,o),
(179,696,o),
(298,696,cs),
(413,696,o),
(492,636,o),
(492,537,cs),
(492,453,o),
(439,380,o),
(298,380,cs)
);
}
);
};
layerId = "5A048DDA-4734-4F8A-A53C-0BED34B57D1C";
shapes = (
{
closed = 1;
nodes = (
(423,-10,o),
(522,70,o),
(522,194,cs),
(522,291,o),
(466,366,o),
(357,386,c),
(357,387,l),
(436,407,o),
(493,474,o),
(493,554,cs),
(493,664,o),
(409,738,o),
(278,738,cs),
(147,738,o),
(63,664,o),
(63,554,cs),
(63,474,o),
(120,407,o),
(199,387,c),
(199,386,l),
(90,366,o),
(34,291,o),
(34,194,cs),
(34,70,o),
(133,-10,o),
(278,-10,cs)
);
},
{
closed = 1;
nodes = (
(156,24,o),
(74,90,o),
(74,196,cs),
(74,292,o),
(127,369,o),
(278,369,cs),
(429,369,o),
(482,292,o),
(482,196,cs),
(482,90,o),
(400,24,o),
(278,24,cs)
);
},
{
closed = 1;
nodes = (
(144,404,o),
(102,482,o),
(102,555,cs),
(102,627,o),
(144,705,o),
(278,705,cs),
(412,705,o),
(454,627,o),
(454,555,cs),
(454,482,o),
(412,404,o),
(278,404,cs)
);
}
);
userData = {
com.schriftgestaltung.hints = (
{
horizontal = 1;
options = 0;
place = (
0,
0
);
stem = -2;
type = Stem;
},
{
horizontal = 1;
options = 0;
place = (
0,
0
);
stem = -2;
type = Stem;
},
{
horizontal = 1;
options = 0;
place = (
0,
0
);
stem = -2;
type = Stem;
},
{
horizontal = 0;
options = 0;
place = (
0,
0
);
stem = -2;
type = Stem;
},
{
horizontal = 0;
options = 0;
place = (
0,
0
);
stem = -2;
type = Stem;
}
);
};
width = 556;
},
{
background = {
shapes = (
{
closed = 1;
nodes = (
(507,-10,o),
(610,74,o),
(610,198,cs),
(610,281,o),
(560,349,o),
(479,370,c),
(479,378,l),
(547,401,o),
(584,463,o),
(584,534,cs),
(584,652,o),
(490,729,o),
(327,729,cs),
(164,729,o),
(70,652,o),
(70,534,cs),
(70,463,o),
(107,401,o),
(175,378,c),
(175,370,l),
(94,349,o),
(44,281,o),
(44,198,cs),
(44,74,o),
(147,-10,o),
(327,-10,cs)
);
},
{
closed = 1;
nodes = (
(272,152,o),
(239,179,o),
(239,227,cs),
(239,272,o),
(270,301,o),
(327,301,cs),
(384,301,o),
(415,272,o),
(415,227,cs),
(415,179,o),
(382,152,o),
(327,152,cs)
);
},
{
closed = 1;
nodes = (
(278,441,o),
(250,465,o),
(250,508,cs),
(250,548,o),
(276,574,o),
(327,574,cs),
(378,574,o),
(404,548,o),
(404,508,cs),
(404,465,o),
(376,441,o),
(327,441,cs)
);
}
);
};
layerId = "DED42A87-C949-4722-A202-2B551272A3FB";
shapes = (
{
closed = 1;
nodes = (
(487,-10,o),
(608,65,o),
(608,202,cs),
(608,288,o),
(548,363,o),
(466,383,c),
(466,384,l),
(536,410,o),
(582,471,o),
(582,542,cs),
(582,660,o),
(482,738,o),
(306,738,cs),
(141,738,o),
(31,667,o),
(31,542,cs),
(31,471,o),
(77,410,o),
(147,384,c),
(147,383,l),
(65,363,o),
(5,288,o),
(5,202,cs),
(5,73,o),
(114,-10,o),
(306,-10,cs)
);
},
{
closed = 1;
nodes = (
(251,152,o),
(218,179,o),
(218,231,cs),
(218,281,o),
(249,310,o),
(306,310,cs),
(363,310,o),
(394,281,o),
(394,231,cs),
(394,179,o),
(361,152,o),
(306,152,cs)
);
},
{
closed = 1;
nodes = (
(260,450,o),
(229,474,o),
(229,517,cs),
(229,557,o),
(257,583,o),
(306,583,cs),
(355,583,o),
(383,557,o),
(383,517,cs),
(383,474,o),
(352,450,o),
(306,450,cs)
);
}
);
width = 613;
},
{
layerId = "106FCE83-F343-403B-A314-646E4D059B3F";
shapes = (
{
closed = 1;
nodes = (
(534,-8,o),
(651,61,o),
(651,201,cs),
(651,321,o),
(564,390,o),
(453,394,c),
(453,395,l),
(554,409,o),
(619,469,o),
(619,561,cs),
(619,683,o),
(501,738,o),
(338,738,cs),
(175,738,o),
(57,684,o),
(57,561,cs),
(57,469,o),
(121,409,o),
(222,395,c),
(222,394,l),
(114,389,o),
(27,320,o),
(27,201,cs),
(27,61,o),
(144,-8,o),
(338,-8,cs)
);
},
{
closed = 1;
nodes = (
(153,26,o),
(67,86,o),
(67,205,cs),
(67,330,o),
(162,376,o),
(338,376,cs),
(515,376,o),
(611,331,o),
(611,205,cs),
(611,87,o),
(525,26,o),
(338,26,cs)
);
},
{
closed = 1;
nodes = (
(157,409,o),
(95,472,o),
(95,557,cs),
(95,661,o),
(192,705,o),
(338,705,cs),
(484,705,o),
(580,661,o),
(580,557,cs),
(580,473,o),
(520,409,o),
(338,409,cs)
);
}
);
width = 678;
},
{
layerId = "2D1A1AFE-39FB-4EBD-856C-88C6B057247F";
shapes = (
{
closed = 1;
nodes = (
(599,-9,o),
(709,73,o),
(709,204,cs),
(709,295,o),
(645,364,o),
(553,379,c),
(553,380,l),
(636,400,o),
(685,459,o),
(685,538,cs),
(685,667,o),
(568,738,o),
(355,738,cs),
(143,738,o),
(27,667,o),
(27,538,cs),
(27,458,o),
(77,399,o),
(162,380,c),
(162,379,l),
(67,364,o),
(2,295,o),
(2,204,cs),
(2,72,o),
(113,-9,o),
(355,-9,cs)
);
},
{
closed = 1;
nodes = (
(282,154,o),
(237,175,o),
(237,226,cs),
(237,272,o),
(271,298,o),
(355,298,cs),
(441,298,o),
(476,272,o),
(476,226,cs),
(476,175,o),
(430,154,o),
(355,154,cs)
);
},
{
closed = 1;
nodes = (
(286,451,o),
(255,475,o),
(255,514,cs),
(255,553,o),
(291,575,o),
(355,575,cs),
(420,575,o),
(457,553,o),
(457,514,cs),
(457,475,o),
(426,451,o),
(355,451,cs)
);
}
);
width = 711;
}
);
unicode = 56;
}
{
color = 6;
glyphname = nine;
kernLeft = KO_nine;
kernRight = KO_zero;
layers = (
{
layerId = "71D8B5AD-B400-4239-9672-E7BA455EF2D0";
shapes = (
{
alignment = -1;
angle = 180;
pos = (390,726);
ref = six;
}
);
width = 390;
},
{
layerId = "FFCA1F59-E305-4E0F-BBF9-E0C4511C19C1";
shapes = (
{
angle = 180;
pos = (471,729);
ref = six;
}
);
width = 471;
},
{
layerId = "5A048DDA-4734-4F8A-A53C-0BED34B57D1C";
shapes = (
{
alignment = -1;
angle = 180;
pos = (596,728);
ref = six;
}
);
userData = {
com.schriftgestaltung.hints = (
{
horizontal = 1;
options = 0;
origin = (
0,
18
);
stem = -2;
target = (
0,
25
);
type = Stem;
},
{
horizontal = 1;
options = 0;
origin = (
1,
11
);
stem = -2;
target = (
0,
11
);
type = Stem;
},
{
horizontal = 1;
options = 0;
origin = (
0,
5
);
stem = -2;
target = (
1,
5
);
type = Stem;
},
{
horizontal = 0;
options = 0;
origin = (
0,
8
);
stem = -2;
target = (
1,
2
);
type = Stem;
},
{
horizontal = 0;
options = 0;
origin = (
0,
15
);
stem = -2;
target = (
0,
2
);
type = Stem;
}
);
};
width = 596;
},
{
background = {
shapes = (
{
closed = 1;
nodes = (
(507,-9,o),
(617,118,o),
(617,365,cs),
(617,621,o),
(501,730,o),
(326,730,cs),
(160,730,o),
(48,639,o),
(48,477,cs),
(48,334,o),
(138,238,o),
(274,238,cs),
(338,238,o),
(389,260,o),
(414,294,c),
(422,294,l),
(425,199,o),
(384,155,o),
(320,155,cs),
(281,155,o),
(249,171,o),
(240,195,c),
(53,195,l),
(67,73,o),
(164,-9,o),
(319,-9,cs)
);
},
{
closed = 1;
nodes = (
(270,379,o),
(237,415,o),
(237,472,cs),
(237,529,o),
(270,565,o),
(323,565,cs),
(376,565,o),
(409,529,o),
(409,472,cs),
(409,415,o),
(376,379,o),
(323,379,cs)
);
}
);
};
layerId = "DED42A87-C949-4722-A202-2B551272A3FB";
shapes = (
{
alignment = -1;
angle = 180;
pos = (622,727);
ref = six;
}
);
width = 622;
},
{
layerId = "106FCE83-F343-403B-A314-646E4D059B3F";
shapes = (
{
alignment = -1;
angle = 180;
pos = (673,727);
ref = six;
}
);
width = 673;
},
{
background = {
shapes = (
{
closed = 1;
nodes = (
(566,-9,o),
(720,104,o),
(720,367,cs),
(720,652,o),
(549,730,o),
(364,730,cs),
(161,730,o),
(22,638,o),
(22,469,cs),
(22,337,o),
(119,244,o),
(296,244,cs),
(384,244,o),
(460,276,o),
(487,324,c),
(497,322,l),
(502,211,o),
(445,159,o),
(358,159,cs),
(307,159,o),
(268,167,o),
(250,204,c),
(31,204,l),
(58,58,o),
(184,-9,o),
(360,-9,cs)
);
},
{
closed = 1;
nodes = (
(285,394,o),
(244,423,o),
(244,479,cs),
(244,530,o),
(282,563,o),
(360,563,cs),
(429,563,o),
(475,536,o),
(475,480,cs),
(475,429,o),
(437,394,o),
(358,394,cs)
);
}
);
};
layerId = "2D1A1AFE-39FB-4EBD-856C-88C6B057247F";
shapes = (
{
alignment = -1;
angle = 180;
pos = (725,727);
ref = six;
}
);
width = 725;
}
);
unicode = 57;
}
{
color = 6;
glyphname = colon;
kernLeft = KO_colon;
layers = (
{
background = {
shapes = (
{
closed = 1;
nodes = (
(89,473,o),
(100,483,o),
(100,497,cs),
(100,511,o),
(89,521,o),
(75,521,cs),
(61,521,o),
(50,511,o),
(50,497,cs),
(50,483,o),
(61,473,o),
(75,473,cs)
);
},
{
closed = 1;
nodes = (
(89,-6,o),
(100,4,o),
(100,18,cs),
(100,32,o),
(89,42,o),
(75,42,cs),
(61,42,o),
(50,32,o),
(50,18,cs),
(50,4,o),
(61,-6,o),
(75,-6,cs)
);
}
);
};
layerId = "71D8B5AD-B400-4239-9672-E7BA455EF2D0";
shapes = (
{
alignment = -1;
anchor = top;
ref = period;
},
{
alignment = -1;
anchor = top;
pos = (0,480);
ref = period;
}
);
width = 124;
},
{
background = {
shapes = (
{
closed = 1;
nodes = (
(175,377,o),
(216,409,o),
(216,464,cs),
(216,519,o),
(175,551,o),
(120,551,cs),
(65,551,o),
(24,519,o),
(24,464,cs),
(24,409,o),
(65,377,o),
(120,377,cs)
);
},
{
closed = 1;
nodes = (
(175,-10,o),
(216,22,o),
(216,77,cs),
(216,132,o),
(175,164,o),
(120,164,cs),
(65,164,o),
(24,132,o),
(24,77,cs),
(24,22,o),
(65,-10,o),
(120,-10,cs)
);
}
);
};
layerId = "FFCA1F59-E305-4E0F-BBF9-E0C4511C19C1";
shapes = (
{
alignment = 1;
anchor = top;
ref = period;
},
{
alignment = 1;
anchor = top;
pos = (0,369);
ref = period;
}
);
width = 198;
},
{
background = {
shapes = (
{
closed = 1;
nodes = (
(110,465,o),
(123,477,o),
(123,494,cs),
(123,511,o),
(110,523,o),
(93,523,cs),
(76,523,o),
(63,511,o),
(63,494,cs),
(63,477,o),
(76,465,o),
(93,465,cs)
);
},
{
closed = 1;
nodes = (
(110,-7,o),
(123,5,o),
(123,22,cs),
(123,39,o),
(110,51,o),
(93,51,cs),
(76,51,o),
(63,39,o),
(63,22,cs),
(63,5,o),
(76,-7,o),
(93,-7,cs)
);
}
);
};
layerId = "5A048DDA-4734-4F8A-A53C-0BED34B57D1C";
shapes = (
{
alignment = -1;
anchor = top;
ref = period;
},
{
alignment = -1;
anchor = top;
pos = (0,473);
ref = period;
}
);
width = 170;
},
{
background = {
shapes = (
{
closed = 1;
nodes = (
(195,378,o),
(233,413,o),
(233,466,cs),
(233,519,o),
(195,554,o),
(139,554,cs),
(83,554,o),
(45,519,o),
(45,466,cs),
(45,413,o),
(83,378,o),
(139,378,cs)
);
},
{
closed = 1;
nodes = (
(195,-8,o),
(233,27,o),
(233,80,cs),
(233,133,o),
(195,168,o),
(139,168,cs),
(83,168,o),
(45,133,o),
(45,80,cs),
(45,27,o),
(83,-8,o),
(139,-8,cs)
);
}
);
};
layerId = "DED42A87-C949-4722-A202-2B551272A3FB";
shapes = (
{
alignment = -1;
anchor = top;
ref = period;
},
{
alignment = -1;
anchor = top;
pos = (0,384);
ref = period;
}
);
width = 212;
},
{
background = {
shapes = (
{
closed = 1;
nodes = (
(97,465,o),
(110,477,o),
(110,494,cs),
(110,511,o),
(97,523,o),
(80,523,cs),
(63,523,o),
(50,511,o),
(50,494,cs),
(50,477,o),
(63,465,o),
(80,465,cs)
);
},
{
closed = 1;
nodes = (
(97,-7,o),
(110,5,o),
(110,22,cs),
(110,39,o),
(97,51,o),
(80,51,cs),
(63,51,o),
(50,39,o),
(50,22,cs),
(50,5,o),
(63,-7,o),
(80,-7,cs)
);
}
);
};
layerId = "106FCE83-F343-403B-A314-646E4D059B3F";
shapes = (
{
alignment = -1;
anchor = top;
ref = period;
},
{
alignment = -1;
anchor = top;
pos = (0,473);
ref = period;
}
);
width = 142;
},
{
background = {
shapes = (
{
closed = 1;
nodes = (
(234,369,o),
(268,408,o),
(268,462,cs),
(268,515,o),
(234,554,o),
(150,554,cs),
(66,554,o),
(32,515,o),
(32,462,cs),
(32,408,o),
(66,369,o),
(150,369,cs)
);
},
{
closed = 1;
nodes = (
(234,-10,o),
(268,29,o),
(268,83,cs),
(268,136,o),
(234,175,o),
(150,175,cs),
(66,175,o),
(32,136,o),
(32,83,cs),
(32,29,o),
(66,-10,o),
(150,-10,cs)
);
}
);
};
layerId = "2D1A1AFE-39FB-4EBD-856C-88C6B057247F";
shapes = (
{
alignment = -1;
anchor = top;
ref = period;
},
{
alignment = -1;
anchor = top;
pos = (0,379);
ref = period;
}
);
width = 262;
}
);
metricLeft = period;
metricRight = period;
unicode = 58;
userData = {
KernOnName = colon;
KernOnSpecialSpacing = {
L = "spaced-off";
R = "spaced-off";
};
};
}
{
color = 6;
glyphname = semicolon;
kernLeft = KO_colon;
layers = (
{
background = {
shapes = (
{
closed = 1;
nodes = (
(45,-125,l),
(69,-102,o),
(101,-37,o),
(101,8,cs),
(101,31,o),
(90,42,o),
(73,42,cs),
(58,42,o),
(47,32,o),
(47,17,cs),
(47,2,o),
(57,-7,o),
(72,-7,cs),
(79,-7,o),
(83,-6,o),
(88,-2,c),
(81,0,l),
(79,-37,o),
(55,-87,o),
(22,-125,c)
);
},
{
closed = 1;
nodes = (
(85,473,o),
(96,483,o),
(96,497,cs),
(96,511,o),
(85,521,o),
(71,521,cs),
(57,521,o),
(46,511,o),
(46,497,cs),
(46,483,o),
(57,473,o),
(71,473,cs)
);
}
);
};
layerId = "71D8B5AD-B400-4239-9672-E7BA455EF2D0";
shapes = (
{
alignment = 1;
anchor = top;
ref = comma;
},
{
alignment = 1;
anchor = top;
pos = (9,474);
ref = period;
}
);
width = 100;
},
{
background = {
shapes = (
{
closed = 1;
nodes = (
(89,-167,l),
(143,-123,o),
(197,-26,o),
(197,56,cs),
(197,126,o),
(155,164,o),
(100,164,cs),
(45,164,o),
(5,129,o),
(5,77,cs),
(5,27,o),
(40,-5,o),
(88,-5,cs),
(98,-5,o),
(112,-4,o),
(123,1,c),
(109,14,l),
(100,-37,o),
(59,-103,o),
(-11,-167,c)
);
},
{
closed = 1;
nodes = (
(156,377,o),
(197,409,o),
(197,464,cs),
(197,519,o),
(156,551,o),
(101,551,cs),
(46,551,o),
(5,519,o),
(5,464,cs),
(5,409,o),
(46,377,o),
(101,377,cs)
);
}
);
};
layerId = "FFCA1F59-E305-4E0F-BBF9-E0C4511C19C1";
shapes = (
{
alignment = 1;
anchor = top;
ref = comma;
},
{
alignment = 1;
anchor = top;
pos = (-5,369);
ref = period;
}
);
width = 200;
},
{
background = {
shapes = (
{
closed = 1;
nodes = (
(63,-124,l),
(87,-99,o),
(121,-36,o),
(121,11,cs),
(121,39,o),
(107,51,o),
(89,51,cs),
(71,51,o),
(59,40,o),
(59,23,cs),
(59,8,o),
(69,-4,o),
(87,-4,cs),
(98,-4,o),
(106,2,o),
(108,8,c),
(103,9,l),
(101,-27,o),
(80,-77,o),
(40,-124,c)
);
},
{
closed = 1;
nodes = (
(106,465,o),
(119,477,o),
(119,494,cs),
(119,511,o),
(106,523,o),
(89,523,cs),
(72,523,o),
(59,511,o),
(59,494,cs),
(59,477,o),
(72,465,o),
(89,465,cs)
);
}
);
};
layerId = "5A048DDA-4734-4F8A-A53C-0BED34B57D1C";
shapes = (
{
alignment = -1;
anchor = top;
ref = comma;
},
{
alignment = -1;
anchor = top;
pos = (6,473);
ref = period;
}
);
width = 179;
},
{
background = {
shapes = (
{
closed = 1;
nodes = (
(95,-167,l),
(148,-119,o),
(205,-18,o),
(205,62,cs),
(205,128,o),
(163,168,o),
(107,168,cs),
(50,168,o),
(12,132,o),
(12,79,cs),
(12,31,o),
(44,-3,o),
(98,-3,cs),
(123,-3,o),
(144,4,o),
(157,15,c),
(110,15,l),
(100,-34,o),
(50,-107,o),
(-8,-167,c)
);
},
{
closed = 1;
nodes = (
(162,378,o),
(200,413,o),
(200,466,cs),
(200,519,o),
(162,554,o),
(106,554,cs),
(50,554,o),
(12,519,o),
(12,466,cs),
(12,413,o),
(50,378,o),
(106,378,cs)
);
}
);
};
layerId = "DED42A87-C949-4722-A202-2B551272A3FB";
shapes = (
{
alignment = -1;
anchor = top;
ref = comma;
},
{
alignment = -1;
anchor = top;
pos = (9,384);
ref = period;
}
);
width = 220;
},
{
background = {
shapes = (
{
closed = 1;
nodes = (
(49,-124,l),
(73,-99,o),
(107,-36,o),
(107,11,cs),
(107,39,o),
(93,51,o),
(75,51,cs),
(57,51,o),
(45,40,o),
(45,23,cs),
(45,8,o),
(55,-4,o),
(73,-4,cs),
(84,-4,o),
(92,2,o),
(94,8,c),
(89,9,l),
(87,-27,o),
(66,-77,o),
(26,-124,c)
);
},
{
closed = 1;
nodes = (
(92,465,o),
(105,477,o),
(105,494,cs),
(105,511,o),
(92,523,o),
(75,523,cs),
(58,523,o),
(45,511,o),
(45,494,cs),
(45,477,o),
(58,465,o),
(75,465,cs)
);
}
);
};
layerId = "106FCE83-F343-403B-A314-646E4D059B3F";
shapes = (
{
alignment = -1;
anchor = top;
ref = comma;
},
{
alignment = -1;
anchor = top;
pos = (0,473);
ref = period;
}
);
width = 146;
},
{
background = {
shapes = (
{
closed = 1;
nodes = (
(135,-167,l),
(193,-117,o),
(253,-18,o),
(253,62,cs),
(253,139,o),
(205,175,o),
(132,175,cs),
(67,175,o),
(18,142,o),
(18,83,cs),
(18,32,o),
(51,-2,o),
(122,-2,cs),
(151,-2,o),
(180,6,o),
(195,18,c),
(137,18,l),
(126,-32,o),
(69,-106,o),
(4,-167,c)
);
},
{
closed = 1;
nodes = (
(220,369,o),
(254,408,o),
(254,462,cs),
(254,515,o),
(220,554,o),
(136,554,cs),
(52,554,o),
(18,515,o),
(18,462,cs),
(18,408,o),
(52,369,o),
(136,369,cs)
);
}
);
};
layerId = "2D1A1AFE-39FB-4EBD-856C-88C6B057247F";
shapes = (
{
alignment = 1;
anchor = top;
ref = comma;
},
{
alignment = 1;
anchor = top;
pos = (6,346);
ref = period;
}
);
width = 297;
}
);
metricLeft = comma;
metricRight = period;
unicode = 59;
userData = {
KernOnSpecialSpacing = {
L = "spaced-off";
R = "spaced-off";
};
};
}
{
glyphname = equal;
layers = (
{
anchors = (
{
name = center;
pos = (220,366);
}
);
layerId = "71D8B5AD-B400-4239-9672-E7BA455EF2D0";
shapes = (
{
closed = 1;
nodes = (
(413,447,l),
(413,475,l),
(27,475,l),
(27,447,l)
);
},
{
closed = 1;
nodes = (
(413,247,l),
(413,275,l),
(27,275,l),
(27,247,l)
);
}
);
width = 440;
},
{
anchors = (
{
name = center;
pos = (230,366);
}
);
layerId = "FFCA1F59-E305-4E0F-BBF9-E0C4511C19C1";
shapes = (
{
closed = 1;
nodes = (
(452,411,l),
(452,551,l),
(8,551,l),
(8,411,l)
);
},
{
closed = 1;
nodes = (
(452,171,l),
(452,311,l),
(8,311,l),
(8,171,l)
);
}
);
width = 460;
},
{
anchors = (
{
name = center;
pos = (280,366);
}
);
layerId = "5A048DDA-4734-4F8A-A53C-0BED34B57D1C";
shapes = (
{
closed = 1;
nodes = (
(519,455,l),
(519,487,l),
(41,487,l),
(41,455,l)
);
},
{
closed = 1;
nodes = (
(519,235,l),
(519,267,l),
(41,267,l),
(41,235,l)
);
}
);
userData = {
com.schriftgestaltung.hints = (
{
horizontal = 1;
options = 0;
origin = (
1,
2
);
stem = -2;
target = (
1,
3
);
type = Stem;
},
{
horizontal = 1;
options = 0;
origin = (
0,
2
);
stem = -2;
target = (
0,
3
);
type = Stem;
}
);
};
width = 560;
},
{
anchors = (
{
name = center;
pos = (277,366);
}
);
layerId = "DED42A87-C949-4722-A202-2B551272A3FB";
shapes = (
{
closed = 1;
nodes = (
(513,406,l),
(513,555,l),
(40,555,l),
(40,406,l)
);
},
{
closed = 1;
nodes = (
(513,166,l),
(513,315,l),
(40,315,l),
(40,166,l)
);
}
);
width = 552;
},
{
anchors = (
{
name = center;
pos = (350,366);
}
);
layerId = "106FCE83-F343-403B-A314-646E4D059B3F";
shapes = (
{
closed = 1;
nodes = (
(597,464,l),
(597,496,l),
(102,496,l),
(102,464,l)
);
},
{
closed = 1;
nodes = (
(597,227,l),
(597,259,l),
(102,259,l),
(102,227,l)
);
}
);
width = 700;
},
{
anchors = (
{
name = center;
pos = (351,366);
}
);
layerId = "2D1A1AFE-39FB-4EBD-856C-88C6B057247F";
shapes = (
{
closed = 1;
nodes = (
(601,411,l),
(601,585,l),
(100,585,l),
(100,411,l)
);
},
{
closed = 1;
nodes = (
(601,137,l),
(601,311,l),
(100,311,l),
(100,137,l)
);
}
);
width = 700;
}
);
metricWidth = zero.tf;
unicode = 61;
userData = {
KernOnName = equal;
KernOnSpecialSpacing = {
L = math;
R = math;
};
};
}
{
glyphname = greater;
layers = (
{
layerId = "71D8B5AD-B400-4239-9672-E7BA455EF2D0";
shapes = (
{
closed = 1;
nodes = (
(438,339,l),
(438,383,l),
(7,577,l),
(7,545,l),
(407,363,l),
(407,359,l),
(7,177,l),
(7,145,l)
);
}
);
width = 440;
},
{
layerId = "FFCA1F59-E305-4E0F-BBF9-E0C4511C19C1";
shapes = (
{
closed = 1;
nodes = (
(451,252,l),
(451,466,l),
(15,644,l),
(15,453,l),
(257,366,l),
(257,352,l),
(15,268,l),
(15,77,l)
);
}
);
width = 460;
},
{
layerId = "5A048DDA-4734-4F8A-A53C-0BED34B57D1C";
shapes = (
{
closed = 1;
nodes = (
(523,339,l),
(523,383,l),
(42,589,l),
(42,553,l),
(490,363,l),
(490,359,l),
(42,169,l),
(42,133,l)
);
}
);
userData = {
com.schriftgestaltung.hints = (
{
horizontal = 1;
options = 0;
place = (
-30,
-20
);
stem = -2;
target = (
d,
o,
w,
n
);
type = TopGhost;
},
{
horizontal = 0;
options = 0;
place = (
-30,
-30
);
stem = -2;
type = Stem;
}
);
};
width = 560;
},
{
layerId = "DED42A87-C949-4722-A202-2B551272A3FB";
shapes = (
{
closed = 1;
nodes = (
(537,252,l),
(537,466,l),
(31,644,l),
(31,453,l),
(345,366,l),
(345,352,l),
(31,268,l),
(31,77,l)
);
}
);
width = 555;
},
{
layerId = "106FCE83-F343-403B-A314-646E4D059B3F";
shapes = (
{
closed = 1;
nodes = (
(618,338,l),
(618,384,l),
(86,606,l),
(86,567,l),
(577,363,l),
(577,359,l),
(86,155,l),
(86,116,l)
);
}
);
width = 700;
},
{
layerId = "2D1A1AFE-39FB-4EBD-856C-88C6B057247F";
shapes = (
{
closed = 1;
nodes = (
(639,242,l),
(639,475,l),
(79,664,l),
(79,455,l),
(431,367,l),
(431,351,l),
(79,266,l),
(79,58,l)
);
}
);
width = 700;
}
);
metricWidth = zero.tf;
unicode = 62;
userData = {
KernOnSpecialSpacing = {
L = math;
R = math;
};
};
}
{
glyphname = question;
kernLeft = KO_question;
layers = (
{
layerId = "71D8B5AD-B400-4239-9672-E7BA455EF2D0";
shapes = (
{
closed = 1;
nodes = (
(167,120,l),
(169,179,ls),
(172,268,o),
(204,333,o),
(233,397,cs),
(257,451,o),
(278,504,o),
(278,571,cs),
(278,673,o),
(239,739,o),
(151,739,cs),
(71,739,o),
(19,680,o),
(20,535,c),
(50,535,l),
(51,642,o),
(74,711,o),
(151,711,cs),
(208,711,o),
(246,673,o),
(246,569,cs),
(246,508,o),
(228,460,o),
(206,412,cs),
(175,344,o),
(138,277,o),
(142,178,cs),
(144,120,l)
);
},
{
closed = 1;
nodes = (
(172,-6,o),
(184,5,o),
(184,21,cs),
(184,37,o),
(172,48,o),
(157,48,cs),
(142,48,o),
(130,37,o),
(130,21,cs),
(130,5,o),
(142,-6,o),
(157,-6,cs)
);
}
);
width = 284;
},
{
layerId = "FFCA1F59-E305-4E0F-BBF9-E0C4511C19C1";
shapes = (
{
closed = 1;
nodes = (
(290,213,l),
(294,243,ls),
(300,288,o),
(332,325,o),
(360,368,cs),
(392,419,o),
(422,476,o),
(422,549,cs),
(422,672,o),
(351,739,o),
(219,739,cs),
(76,739,o),
(-1,656,o),
(2,504,c),
(161,504,l),
(162,556,o),
(178,583,o),
(209,583,cs),
(233,583,o),
(247,567,o),
(247,539,cs),
(247,511,o),
(223,484,o),
(201,450,cs),
(166,400,o),
(130,339,o),
(134,255,cs),
(136,213,l)
);
},
{
closed = 1;
nodes = (
(266,-10,o),
(307,31,o),
(307,86,cs),
(307,141,o),
(266,182,o),
(211,182,cs),
(156,182,o),
(115,141,o),
(115,86,cs),
(115,31,o),
(156,-10,o),
(211,-10,cs)
);
}
);
width = 427;
},
{
background = {
shapes = (
{
closed = 1;
nodes = (
(266,179,l),
(266,200,ls),
(266,289,o),
(316,316,o),
(379,375,cs),
(441,433,o),
(476,480,o),
(476,553,cs),
(476,665,o),
(395,738,o),
(271,738,cs),
(139,738,o),
(53,655,o),
(54,529,c),
(95,529,l),
(94,628,o),
(157,700,o),
(269,700,cs),
(367,700,o),
(433,644,o),
(433,553,cs),
(433,494,o),
(403,448,o),
(349,398,cs),
(293,347,o),
(224,304,o),
(224,200,cs),
(224,179,l)
);
},
{
closed = 1;
nodes = (
(273,0,l),
(273,101,l),
(219,101,l),
(219,0,l)
);
}
);
};
layerId = "5A048DDA-4734-4F8A-A53C-0BED34B57D1C";
shapes = (
{
closed = 1;
nodes = (
(246,139,l),
(250,194,ls),
(256,279,o),
(279,313,o),
(348,379,cs),
(406,434,o),
(450,473,o),
(450,549,cs),
(450,664,o),
(368,738,o),
(241,738,cs),
(109,738,o),
(25,655,o),
(20,520,c),
(57,520,l),
(62,632,o),
(124,705,o),
(239,705,cs),
(344,705,o),
(412,644,o),
(412,549,cs),
(412,500,o),
(390,470,o),
(329,412,cs),
(263,349,o),
(216,298,o),
(220,190,cs),
(222,139,l)
);
},
{
closed = 1;
nodes = (
(255,-7,o),
(269,7,o),
(269,27,cs),
(269,47,o),
(255,61,o),
(235,61,cs),
(215,61,o),
(201,47,o),
(201,27,cs),
(201,7,o),
(215,-7,o),
(235,-7,cs)
);
}
);
userData = {
com.schriftgestaltung.Glyphs.glyph.leftMetricsKey = S;
com.schriftgestaltung.Glyphs.glyph.rightMetricsKey = S;
com.schriftgestaltung.hints = (
{
horizontal = 1;
options = 0;
origin = (
1,
2
);
stem = -2;
target = (
1,
3
);
type = Stem;
},
{
horizontal = 1;
options = 0;
origin = (
0,
10
);
stem = -2;
target = (
0,
17
);
type = Stem;
},
{
horizontal = 0;
options = 0;
origin = (
0,
13
);
stem = -2;
target = (
0,
14
);
type = Stem;
},
{
horizontal = 0;
options = 0;
origin = (
1,
3
);
stem = -2;
target = (
1,
0
);
type = Stem;
},
{
horizontal = 0;
options = 0;
origin = (
0,
20
);
stem = -2;
target = (
0,
7
);
type = Stem;
},
{
horizontal = 0;
options = 0;
origin = (
0,
27
);
stem = -2;
target = (
0,
0
);
type = Stem;
}
);
};
width = 477;
},
{
background = {
shapes = (
{
closed = 1;
nodes = (
(380,226,l),
(380,233,ls),
(380,259,o),
(391,282,o),
(435,326,cs),
(500,392,o),
(553,442,o),
(553,534,cs),
(553,656,o),
(459,738,o),
(296,738,cs),
(130,738,o),
(22,659,o),
(23,509,c),
(205,509,l),
(205,551,o),
(235,578,o),
(287,578,cs),
(331,578,o),
(361,555,o),
(361,514,cs),
(361,475,o),
(342,451,o),
(296,404,cs),
(236,343,o),
(213,299,o),
(213,245,cs),
(213,226,l)
);
},
{
closed = 1;
nodes = (
(381,0,l),
(381,152,l),
(211,152,l),
(211,0,l)
);
}
);
};
layerId = "DED42A87-C949-4722-A202-2B551272A3FB";
shapes = (
{
closed = 1;
nodes = (
(358,235,l),
(366,261,ls),
(376,297,o),
(411,310,o),
(463,343,cs),
(533,386,o),
(563,441,o),
(563,527,cs),
(563,662,o),
(463,738,o),
(281,738,cs),
(116,738,o),
(6,646,o),
(4,498,c),
(201,498,l),
(206,547,o),
(239,578,o),
(285,578,cs),
(333,578,o),
(354,560,o),
(354,528,cs),
(354,504,o),
(334,491,o),
(296,464,cs),
(235,421,o),
(180,372,o),
(193,276,cs),
(199,235,l)
);
},
{
closed = 1;
nodes = (
(337,-8,o),
(381,36,o),
(381,95,cs),
(381,154,o),
(337,198,o),
(278,198,cs),
(219,198,o),
(175,154,o),
(175,95,cs),
(175,36,o),
(219,-8,o),
(278,-8,cs)
);
}
);
userData = {
com.schriftgestaltung.Glyphs.glyph.leftMetricsKey = S;
com.schriftgestaltung.Glyphs.glyph.rightMetricsKey = S;
};
width = 563;
},
{
layerId = "106FCE83-F343-403B-A314-646E4D059B3F";
shapes = (
{
closed = 1;
nodes = (
(274,128,l),
(277,164,ls),
(284,244,o),
(318,292,o),
(396,348,cs),
(474,404,o),
(525,444,o),
(525,540,cs),
(525,668,o),
(444,739,o),
(276,739,cs),
(113,739,o),
(27,659,o),
(15,513,c),
(50,513,l),
(61,638,o),
(134,706,o),
(274,706,cs),
(419,706,o),
(488,647,o),
(488,540,cs),
(488,465,o),
(449,435,o),
(373,377,cs),
(294,318,o),
(246,262,o),
(249,162,cs),
(250,128,l)
);
},
{
closed = 1;
nodes = (
(284,-7,o),
(299,7,o),
(299,27,cs),
(299,47,o),
(284,61,o),
(265,61,cs),
(246,61,o),
(231,47,o),
(231,27,cs),
(231,7,o),
(246,-7,o),
(265,-7,cs)
);
}
);
width = 548;
},
{
layerId = "2D1A1AFE-39FB-4EBD-856C-88C6B057247F";
shapes = (
{
closed = 1;
nodes = (
(433,227,l),
(435,232,ls),
(442,251,o),
(474,272,o),
(547,320,cs),
(618,366,o),
(652,414,o),
(652,511,cs),
(652,659,o),
(539,738,o),
(333,738,cs),
(142,738,o),
(12,660,o),
(0,484,c),
(232,484,l),
(240,537,o),
(276,565,o),
(329,565,cs),
(387,565,o),
(417,546,o),
(417,515,cs),
(417,494,o),
(387,477,o),
(354,454,cs),
(284,406,o),
(234,354,o),
(234,248,cs),
(234,227,l)
);
},
{
closed = 1;
nodes = (
(409,-10,o),
(456,29,o),
(456,91,cs),
(456,152,o),
(409,190,o),
(336,190,cs),
(263,190,o),
(216,152,o),
(216,91,cs),
(216,29,o),
(263,-10,o),
(336,-10,cs)
);
}
);
width = 652;
}
);
unicode = 63;
userData = {
KernOnName = question;
KernOnSpecialSpacing = {
L = "spaced-off";
};
};
}
{
glyphname = at;
layers = (
{
layerId = "71D8B5AD-B400-4239-9672-E7BA455EF2D0";
shapes = (
{
closed = 1;
nodes = (
(358,-101,o),
(426,-80,o),
(468,-32,c),
(457,-8,l),
(421,-51,o),
(365,-76,o),
(301,-76,cs),
(140,-76,o),
(49,98,o),
(49,314,cs),
(49,552,o),
(149,713,o),
(305,713,cs),
(448,713,o),
(544,569,o),
(544,365,cs),
(544,229,o),
(505,129,o),
(448,129,cs),
(412,129,o),
(396,167,o),
(399,245,cs),
(410,504,l),
(388,504,l),
(382,408,l),
(379,408,l),
(368,478,o),
(336,516,o),
(296,516,cs),
(230,516,o),
(186,423,o),
(186,293,cs),
(186,163,o),
(233,106,o),
(285,106,cs),
(321,106,o),
(360,140,o),
(377,225,c),
(379,225,l),
(379,150,o),
(403,105,o),
(449,105,cs),
(523,105,o),
(571,217,o),
(571,367,cs),
(571,589,o),
(461,738,o),
(306,738,cs),
(135,738,o),
(21,566,o),
(21,312,cs),
(21,64,o),
(135,-101,o),
(302,-101,cs)
);
},
{
closed = 1;
nodes = (
(242,132,o),
(212,186,o),
(212,296,cs),
(212,411,o),
(244,493,o),
(300,493,cs),
(346,493,o),
(376,433,o),
(378,323,c),
(375,211,o),
(341,132,o),
(288,132,cs)
);
}
);
width = 588;
},
{
layerId = "FFCA1F59-E305-4E0F-BBF9-E0C4511C19C1";
shapes = (
{
closed = 1;
nodes = (
(437,-101,o),
(514,-70,o),
(557,-19,c),
(514,68,l),
(480,31,o),
(434,6,o),
(366,6,cs),
(234,6,o),
(130,103,o),
(130,317,cs),
(130,493,o),
(198,631,o),
(346,631,cs),
(459,631,o),
(554,548,o),
(554,350,cs),
(554,270,o),
(540,209,o),
(504,209,cs),
(483,209,o),
(469,233,o),
(474,311,cs),
(486,504,l),
(415,504,l),
(403,458,l),
(396,458,l),
(383,492,o),
(360,514,o),
(317,514,cs),
(240,514,o),
(184,441,o),
(184,303,cs),
(184,195,o),
(217,108,o),
(304,108,cs),
(357,108,o),
(385,141,o),
(393,175,c),
(402,175,l),
(412,135,o),
(450,103,o),
(506,103,cs),
(603,103,o),
(668,208,o),
(668,366,cs),
(668,588,o),
(535,738,o),
(346,738,cs),
(149,738,o),
(9,571,o),
(9,310,cs),
(9,70,o),
(127,-101,o),
(344,-101,cs)
);
},
{
closed = 1;
nodes = (
(308,209,o),
(295,238,o),
(295,307,cs),
(295,367,o),
(304,412,o),
(334,412,cs),
(360,412,o),
(372,378,o),
(377,310,c),
(372,248,o),
(361,209,o),
(332,209,cs)
);
}
);
width = 676;
},
{
layerId = "5A048DDA-4734-4F8A-A53C-0BED34B57D1C";
shapes = (
{
closed = 1;
nodes = (
(537,-101,o),
(638,-79,o),
(698,-31,c),
(686,-4,l),
(632,-47,o),
(550,-72,o),
(456,-72,cs),
(218,-72,o),
(84,97,o),
(84,314,cs),
(84,549,o),
(233,709,o),
(462,709,cs),
(674,709,o),
(816,569,o),
(816,365,cs),
(816,229,o),
(756,133,o),
(672,133,cs),
(620,133,o),
(594,170,o),
(599,248,cs),
(616,504,l),
(585,504,l),
(577,410,l),
(574,410,l),
(558,479,o),
(509,516,o),
(450,516,cs),
(356,516,o),
(291,424,o),
(291,294,cs),
(291,164,o),
(361,106,o),
(435,106,cs),
(488,106,o),
(546,141,o),
(570,223,c),
(573,223,l),
(572,149,o),
(606,105,o),
(673,105,cs),
(781,105,o),
(850,217,o),
(850,367,cs),
(850,589,o),
(690,738,o),
(464,738,cs),
(216,738,o),
(49,567,o),
(49,312,cs),
(49,64,o),
(217,-101,o),
(459,-101,cs)
);
},
{
closed = 1;
nodes = (
(369,136,o),
(325,189,o),
(325,296,cs),
(325,408,o),
(372,489,o),
(456,489,cs),
(526,489,o),
(571,431,o),
(574,323,c),
(569,213,o),
(517,136,o),
(438,136,cs)
);
}
);
userData = {
com.schriftgestaltung.hints = (
{
horizontal = 1;
options = 0;
origin = (
0,
2
);
stem = -2;
target = (
0,
9
);
type = Stem;
},
{
horizontal = 1;
options = 0;
origin = (
0,
44
);
stem = -2;
target = (
0,
21
);
type = Stem;
},
{
horizontal = 1;
options = 0;
origin = (
1,
2
);
stem = -2;
target = (
0,
31
);
type = Stem;
},
{
horizontal = 1;
options = 0;
origin = (
0,
50
);
stem = -2;
target = (
0,
15
);
type = Stem;
},
{
horizontal = 1;
options = 0;
origin = (
1,
2
);
stem = -2;
target = (
0,
26
);
type = Stem;
},
{
horizontal = 1;
options = 0;
origin = (
0,
37
);
stem = -2;
target = (
1,
8
);
type = Stem;
},
{
horizontal = 0;
options = 0;
origin = (
0,
53
);
stem = -2;
target = (
0,
12
);
type = Stem;
},
{
horizontal = 0;
options = 0;
origin = (
0,
34
);
stem = -2;
target = (
1,
11
);
type = Stem;
},
{
horizontal = 0;
options = 0;
place = (
0,
0
);
stem = -2;
type = Stem;
},
{
horizontal = 0;
options = 0;
origin = (
0,
18
);
stem = -2;
target = (
0,
47
);
type = Stem;
}
);
};
width = 895;
},
{
layerId = "DED42A87-C949-4722-A202-2B551272A3FB";
shapes = (
{
closed = 1;
nodes = (
(546,-101,o),
(646,-63,o),
(693,-18,c),
(645,77,l),
(598,41,o),
(533,16,o),
(448,16,cs),
(268,16,o),
(148,115,o),
(148,325,cs),
(148,487,o),
(242,621,o),
(437,621,cs),
(587,621,o),
(708,538,o),
(708,357,cs),
(708,271,o),
(683,218,o),
(636,218,cs),
(604,218,o),
(584,244,o),
(590,318,cs),
(605,504,l),
(526,504,l),
(512,464,l),
(504,464,l),
(489,490,o),
(453,513,o),
(411,513,cs),
(306,513,o),
(236,439,o),
(236,298,cs),
(236,185,o),
(292,109,o),
(392,109,cs),
(450,109,o),
(486,137,o),
(501,169,c),
(510,169,l),
(531,130,o),
(577,102,o),
(637,102,cs),
(745,102,o),
(833,201,o),
(833,366,cs),
(833,589,o),
(665,738,o),
(433,738,cs),
(187,738,o),
(15,565,o),
(15,319,cs),
(15,67,o),
(167,-101,o),
(437,-101,cs)
);
},
{
closed = 1;
nodes = (
(381,218,o),
(358,250,o),
(358,304,cs),
(358,363,o),
(376,403,o),
(422,403,cs),
(457,403,o),
(478,377,o),
(482,313,c),
(478,255,o),
(459,218,o),
(415,218,cs)
);
}
);
width = 845;
},
{
guides = (
{
pos = (657,504);
}
);
layerId = "106FCE83-F343-403B-A314-646E4D059B3F";
shapes = (
{
closed = 1;
nodes = (
(567,-101,o),
(680,-78,o),
(745,-30,c),
(730,-3,l),
(671,-45,o),
(582,-70,o),
(479,-70,cs),
(235,-70,o),
(73,68,o),
(73,314,cs),
(73,548,o),
(237,707,o),
(486,707,cs),
(726,707,o),
(893,568,o),
(893,365,cs),
(893,226,o),
(829,133,o),
(734,133,cs),
(670,133,o),
(631,165,o),
(639,268,cs),
(657,504,l),
(624,504,l),
(615,410,l),
(612,410,l),
(594,474,o),
(532,516,o),
(456,516,cs),
(341,516,o),
(264,427,o),
(264,297,cs),
(264,164,o),
(351,106,o),
(440,106,cs),
(509,106,o),
(580,141,o),
(608,223,c),
(611,223,l),
(611,152,o),
(655,105,o),
(734,105,cs),
(850,105,o),
(928,210,o),
(928,367,cs),
(928,589,o),
(739,738,o),
(488,738,cs),
(219,738,o),
(37,567,o),
(37,312,cs),
(37,64,o),
(200,-101,o),
(483,-101,cs)
);
},
{
closed = 1;
nodes = (
(357,136,o),
(299,194,o),
(299,296,cs),
(299,412,o),
(358,489,o),
(463,489,cs),
(549,489,o),
(609,423,o),
(612,323,c),
(606,211,o),
(551,136,o),
(443,136,cs)
);
}
);
width = 962;
},
{
layerId = "2D1A1AFE-39FB-4EBD-856C-88C6B057247F";
shapes = (
{
closed = 1;
nodes = (
(597,-101,o),
(707,-59,o),
(755,-17,c),
(703,85,l),
(655,52,o),
(585,25,o),
(486,25,cs),
(287,25,o),
(155,120,o),
(155,321,cs),
(155,481,o),
(268,612,o),
(475,612,cs),
(655,612,o),
(775,509,o),
(775,356,cs),
(775,277,o),
(747,227,o),
(694,227,cs),
(658,227,o),
(635,252,o),
(643,333,cs),
(659,504,l),
(573,504,l),
(558,468,l),
(550,468,l),
(531,495,o),
(489,513,o),
(436,513,cs),
(323,513,o),
(248,427,o),
(248,298,cs),
(248,187,o),
(314,109,o),
(421,109,cs),
(478,109,o),
(526,131,o),
(546,164,c),
(555,164,l),
(578,130,o),
(629,105,o),
(689,105,cs),
(823,105,o),
(913,209,o),
(913,366,cs),
(913,589,o),
(736,738,o),
(470,738,cs),
(201,738,o),
(8,565,o),
(8,320,cs),
(8,67,o),
(177,-101,o),
(475,-101,cs)
);
},
{
closed = 1;
nodes = (
(411,226,o),
(385,256,o),
(385,305,cs),
(385,356,o),
(405,394,o),
(456,394,cs),
(494,394,o),
(522,367,o),
(526,310,c),
(520,260,o),
(497,226,o),
(450,226,cs)
);
}
);
width = 918;
}
);
unicode = 64;
userData = {
KernOnName = at;
KernOnSpecialSpacing = {
L = symbols;
R = symbols;
};
};
}
{
glyphname = A;
kernLeft = KO_A;
kernRight = KO_A;
layers = (
{
anchors = (
{
name = bottom;
pos = (172,0);
},
{
name = ogonek;
pos = (350,0);
},
{
name = top;
pos = (172,729);
}
);
layerId = "71D8B5AD-B400-4239-9672-E7BA455EF2D0";
shapes = (
{
closed = 1;
nodes = (
(34,0,l),
(137,507,l),
(173,687,l),
(174,687,l),
(209,507,l),
(310,0,l),
(342,0,l),
(193,729,l),
(154,729,l),
(2,0,l)
);
},
{
closed = 1;
nodes = (
(274,219,l),
(266,248,l),
(79,248,l),
(71,219,l)
);
}
);
width = 344;
},
{
anchors = (
{
name = bottom;
pos = (239,0);
},
{
name = ogonek;
pos = (487,0);
},
{
name = top;
pos = (239,729);
}
);
background = {
shapes = (
{
closed = 1;
nodes = (
(182,0,l),
(196,120,l),
(294,120,l),
(309,0,l),
(484,0,l),
(370,729,l),
(119,729,l),
(7,0,l)
);
},
{
closed = 1;
nodes = (
(228,413,l),
(241,563,l),
(248,563,l),
(263,414,l),
(279,260,l),
(210,260,l)
);
}
);
};
layerId = "FFCA1F59-E305-4E0F-BBF9-E0C4511C19C1";
shapes = (
{
closed = 1;
nodes = (
(168,0,l),
(225,431,l),
(238,527,l),
(239,527,l),
(252,431,l),
(309,0,l),
(490,0,l),
(371,729,l),
(119,729,l),
(0,0,l)
);
},
{
closed = 1;
nodes = (
(303,138,l),
(288,278,l),
(187,278,l),
(173,138,l)
);
}
);
width = 490;
},
{
anchors = (
{
name = bottom;
pos = (327,0);
},
{
name = ogonek;
pos = (635,0);
},
{
name = top;
pos = (327,729);
}
);
background = {
shapes = (
{
closed = 1;
nodes = (
(85,0,l),
(161,200,l),
(543,200,l),
(620,0,l),
(660,0,l),
(377,729,l),
(327,729,l),
(44,0,l)
);
},
{
closed = 1;
nodes = (
(284,516,l),
(351,690,l),
(355,690,l),
(421,516,l),
(530,233,l),
(174,233,l)
);
}
);
};
layerId = "5A048DDA-4734-4F8A-A53C-0BED34B57D1C";
shapes = (
{
closed = 1;
nodes = (
(49,0,l),
(291,595,l),
(328,687,l),
(329,687,l),
(365,595,l),
(606,0,l),
(648,0,l),
(349,729,l),
(307,729,l),
(6,0,l)
);
},
{
closed = 1;
nodes = (
(535,211,l),
(535,247,l),
(121,247,l),
(121,211,l)
);
}
);
userData = {
com.schriftgestaltung.hints = (
{
horizontal = 1;
options = 0;
origin = (
0,
7
);
stem = -2;
target = (
u,
p
);
type = BottomGhost;
},
{
horizontal = 1;
options = 0;
origin = (
1,
3
);
stem = -2;
target = (
0,
1
);
type = Stem;
},
{
horizontal = 1;
options = 0;
origin = (
0,
6
);
stem = -2;
target = (
1,
0
);
type = Stem;
}
);
};
width = 654;
},
{
anchors = (
{
name = bottom;
pos = (376,0);
},
{
name = ogonek;
pos = (749,0);
},
{
name = top;
pos = (376,729);
}
);
background = {
shapes = (
{
closed = 1;
nodes = (
(232,0,l),
(358,431,l),
(389,547,l),
(396,547,l),
(427,431,l),
(553,0,l),
(764,0,l),
(537,729,l),
(248,729,l),
(21,0,l)
);
},
{
closed = 1;
nodes = (
(531,130,l),
(486,284,l),
(299,284,l),
(254,130,l)
);
}
);
};
layerId = "DED42A87-C949-4722-A202-2B551272A3FB";
shapes = (
{
closed = 1;
nodes = (
(211,0,l),
(341,433,l),
(375,545,l),
(376,545,l),
(410,433,l),
(542,0,l),
(764,0,l),
(525,729,l),
(236,729,l),
(-5,0,l)
);
},
{
closed = 1;
nodes = (
(525,143,l),
(479,303,l),
(271,303,l),
(226,143,l)
);
}
);
width = 759;
},
{
anchors = (
{
name = bottom;
pos = (416,0);
},
{
name = ogonek;
pos = (820,0);
},
{
name = top;
pos = (416,729);
}
);
layerId = "106FCE83-F343-403B-A314-646E4D059B3F";
shapes = (
{
closed = 1;
nodes = (
(53,0,l),
(360,582,l),
(415,690,l),
(418,690,l),
(471,586,l),
(778,0,l),
(820,0,l),
(439,729,l),
(394,729,l),
(10,0,l)
);
},
{
closed = 1;
nodes = (
(686,208,l),
(670,241,l),
(163,241,l),
(145,208,l)
);
}
);
width = 830;
},
{
anchors = (
{
name = bottom;
pos = (440,0);
},
{
name = ogonek;
pos = (886,0);
},
{
name = top;
pos = (440,729);
}
);
background = {
shapes = (
{
closed = 1;
nodes = (
(419,466,l),
(445,547,l),
(452,547,l),
(480,464,l),
(643,0,l),
(892,0,l),
(598,729,l),
(300,729,l),
(8,0,l),
(255,0,l)
);
},
{
closed = 1;
nodes = (
(615,124,l),
(555,293,l),
(343,293,l),
(282,124,l)
);
}
);
};
layerId = "2D1A1AFE-39FB-4EBD-856C-88C6B057247F";
shapes = (
{
closed = 1;
nodes = (
(240,0,l),
(405,448,l),
(437,532,l),
(438,532,l),
(471,448,l),
(635,0,l),
(894,0,l),
(589,729,l),
(297,729,l),
(-10,0,l)
);
},
{
closed = 1;
nodes = (
(607,124,l),
(546,296,l),
(330,296,l),
(268,124,l)
);
}
);
width = 884;
}
);
unicode = 65;
userData = {
KernOnName = A;
};
}
{
glyphname = B;
kernLeft = KO_H;
kernRight = KO_B;
layers = (
{
anchors = (
{
name = bottom;
pos = (166,0);
},
{
name = top;
pos = (164,729);
}
);
background = {
shapes = (
{
closed = 1;
nodes = (
(172,0,ls),
(291,0,o),
(336,81,o),
(336,200,cs),
(336,279,o),
(306,355,o),
(241,374,c),
(241,376,l),
(287,392,o),
(323,456,o),
(323,543,cs),
(323,670,o),
(271,729,o),
(173,729,cs),
(66,729,l),
(66,0,l)
);
},
{
closed = 1;
nodes = (
(97,359,l),
(183,359,ls),
(258,359,o),
(302,299,o),
(302,201,cs),
(302,77,o),
(258,29,o),
(172,29,cs),
(97,29,l)
);
},
{
closed = 1;
nodes = (
(97,700,l),
(172,700,ls),
(260,700,o),
(292,635,o),
(292,539,cs),
(292,449,o),
(252,389,o),
(182,389,cs),
(97,389,l)
);
}
);
};
layerId = "71D8B5AD-B400-4239-9672-E7BA455EF2D0";
shapes = (
{
closed = 1;
nodes = (
(157,0,ls),
(264,0,o),
(310,67,o),
(310,215,cs),
(310,321,o),
(276,389,o),
(207,405,c),
(207,406,l),
(265,421,o),
(294,480,o),
(294,558,cs),
(294,669,o),
(250,729,o),
(155,729,cs),
(42,729,l),
(42,0,l)
);
},
{
closed = 1;
nodes = (
(73,700,l),
(155,700,ls),
(231,700,o),
(263,649,o),
(263,554,cs),
(263,471,o),
(227,419,o),
(164,419,cs),
(66,419,l),
(66,389,l),
(167,389,ls),
(237,389,o),
(276,322,o),
(276,216,cs),
(276,78,o),
(240,29,o),
(157,29,cs),
(73,29,l)
);
}
);
width = 330;
},
{
anchors = (
{
name = bottom;
pos = (222,0);
},
{
name = top;
pos = (222,729);
}
);
background = {
shapes = (
{
closed = 1;
nodes = (
(227,0,ls),
(371,0,o),
(454,70,o),
(454,206,cs),
(454,296,o),
(421,360,o),
(358,381,c),
(358,387,l),
(407,404,o),
(439,465,o),
(439,537,cs),
(439,654,o),
(387,729,o),
(245,729,cs),
(30,729,l),
(30,0,l)
);
},
{
closed = 1;
nodes = (
(209,309,l),
(226,309,ls),
(257,309,o),
(277,285,o),
(277,225,cs),
(277,172,o),
(264,141,o),
(225,141,cs),
(209,141,l)
);
},
{
closed = 1;
nodes = (
(209,591,l),
(226,591,ls),
(256,591,o),
(272,568,o),
(272,513,cs),
(272,465,o),
(261,433,o),
(226,433,cs),
(209,433,l)
);
}
);
};
layerId = "FFCA1F59-E305-4E0F-BBF9-E0C4511C19C1";
shapes = (
{
closed = 1;
nodes = (
(222,0,ls),
(373,0,o),
(450,71,o),
(450,212,cs),
(450,318,o),
(414,376,o),
(336,395,c),
(336,396,l),
(401,411,o),
(439,466,o),
(439,543,cs),
(439,666,o),
(373,729,o),
(244,729,cs),
(18,729,l),
(18,0,l)
);
},
{
closed = 1;
nodes = (
(198,591,l),
(219,591,ls),
(248,591,o),
(263,568,o),
(263,519,cs),
(263,476,o),
(253,444,o),
(219,444,cs),
(182,444,l),
(182,320,l),
(215,320,ls),
(245,320,o),
(264,296,o),
(264,231,cs),
(264,172,o),
(252,141,o),
(214,141,cs),
(198,141,l)
);
}
);
width = 454;
},
{
anchors = (
{
name = bottom;
pos = (312,0);
},
{
name = top;
pos = (312,729);
}
);
layerId = "5A048DDA-4734-4F8A-A53C-0BED34B57D1C";
shapes = (
{
closed = 1;
nodes = (
(374,0,ls),
(518,0,o),
(610,79,o),
(610,208,cs),
(610,301,o),
(560,374,o),
(462,392,c),
(462,393,l),
(545,413,o),
(583,480,o),
(583,551,cs),
(583,655,o),
(505,729,o),
(371,729,cs),
(70,729,l),
(70,0,l)
);
},
{
closed = 1;
nodes = (
(108,694,l),
(370,694,ls),
(476,694,o),
(545,636,o),
(545,546,cs),
(545,466,o),
(490,408,o),
(386,408,cs),
(99,408,l),
(99,373,l),
(392,373,ls),
(504,373,o),
(570,312,o),
(570,210,cs),
(570,105,o),
(503,36,o),
(374,36,cs),
(108,36,l)
);
}
);
userData = {
com.schriftgestaltung.Glyphs.glyph.leftMetricsKey = H;
com.schriftgestaltung.hints = (
{
horizontal = 1;
options = 0;
origin = (
1,
8
);
stem = -2;
target = (
0,
15
);
type = Stem;
},
{
horizontal = 1;
options = 0;
origin = (
2,
8
);
stem = -2;
target = (
1,
0
);
type = Stem;
},
{
horizontal = 1;
options = 0;
origin = (
0,
14
);
stem = -2;
target = (
2,
0
);
type = Stem;
},
{
horizontal = 0;
options = 0;
origin = (
0,
15
);
stem = -2;
target = (
1,
8
);
type = Stem;
},
{
horizontal = 0;
options = 0;
origin = (
1,
4
);
stem = -2;
target = (
0,
3
);
type = Stem;
},
{
horizontal = 0;
options = 0;
origin = (
2,
4
);
stem = -2;
target = (
0,
10
);
type = Stem;
}
);
};
width = 644;
},
{
anchors = (
{
name = bottom;
pos = (323,0);
},
{
name = top;
pos = (323,729);
}
);
background = {
shapes = (
{
closed = 1;
nodes = (
(412,0,ls),
(587,0,o),
(685,68,o),
(685,212,cs),
(685,293,o),
(641,359,o),
(562,376,c),
(562,385,l),
(626,405,o),
(665,468,o),
(665,541,cs),
(665,654,o),
(592,729,o),
(439,729,cs),
(59,729,l),
(59,0,l)
);
},
{
closed = 1;
nodes = (
(256,299,l),
(390,299,ls),
(443,299,o),
(479,278,o),
(479,224,cs),
(479,181,o),
(454,153,o),
(388,153,cs),
(256,153,l)
);
},
{
closed = 1;
nodes = (
(256,576,l),
(380,576,ls),
(429,576,o),
(461,558,o),
(461,513,cs),
(461,473,o),
(439,446,o),
(381,446,cs),
(256,446,l)
);
}
);
};
layerId = "DED42A87-C949-4722-A202-2B551272A3FB";
shapes = (
{
closed = 1;
nodes = (
(384,0,ls),
(559,0,o),
(657,68,o),
(657,214,cs),
(657,298,o),
(612,369,o),
(510,385,c),
(510,386,l),
(586,405,o),
(635,466,o),
(635,543,cs),
(635,654,o),
(562,729,o),
(409,729,cs),
(30,729,l),
(30,0,l)
);
},
{
closed = 1;
nodes = (
(227,576,l),
(346,576,ls),
(398,576,o),
(425,555,o),
(425,515,cs),
(425,477,o),
(392,450,o),
(347,450,cs),
(211,450,l),
(211,303,l),
(358,303,ls),
(412,303,o),
(447,273,o),
(447,226,cs),
(447,181,o),
(422,153,o),
(356,153,cs),
(227,153,l)
);
}
);
userData = {
com.schriftgestaltung.Glyphs.glyph.leftMetricsKey = H;
};
width = 660;
},
{
anchors = (
{
name = bottom;
pos = (351,0);
},
{
name = top;
pos = (351,729);
}
);
layerId = "106FCE83-F343-403B-A314-646E4D059B3F";
shapes = (
{
closed = 1;
nodes = (
(455,0,ls),
(598,0,o),
(689,78,o),
(689,206,cs),
(689,306,o),
(633,374,o),
(539,387,c),
(539,388,l),
(623,408,o),
(660,476,o),
(660,549,cs),
(660,654,o),
(581,729,o),
(446,729,cs),
(62,729,l),
(62,0,l)
);
},
{
closed = 1;
nodes = (
(100,694,l),
(445,694,ls),
(552,694,o),
(622,635,o),
(622,544,cs),
(622,462,o),
(566,403,o),
(461,403,cs),
(91,403,l),
(91,368,l),
(473,368,ls),
(585,368,o),
(649,310,o),
(649,208,cs),
(649,104,o),
(583,36,o),
(455,36,cs),
(100,36,l)
);
}
);
width = 712;
},
{
anchors = (
{
name = bottom;
pos = (367,0);
},
{
name = top;
pos = (367,729);
}
);
background = {
shapes = (
{
closed = 1;
nodes = (
(466,0,ls),
(677,0,o),
(761,86,o),
(761,206,cs),
(761,291,o),
(711,356,o),
(621,376,c),
(621,385,l),
(694,406,o),
(738,465,o),
(738,538,cs),
(738,667,o),
(646,729,o),
(479,729,cs),
(47,729,l),
(47,0,l)
);
},
{
closed = 1;
nodes = (
(275,298,l),
(420,298,ls),
(485,298,o),
(518,279,o),
(518,228,cs),
(518,184,o),
(494,155,o),
(421,155,cs),
(275,155,l)
);
},
{
closed = 1;
nodes = (
(275,573,l),
(411,573,ls),
(478,573,o),
(497,549,o),
(497,511,cs),
(497,472,o),
(474,447,o),
(410,447,cs),
(275,447,l)
);
}
);
};
layerId = "2D1A1AFE-39FB-4EBD-856C-88C6B057247F";
shapes = (
{
closed = 1;
nodes = (
(453,0,ls),
(646,0,o),
(744,71,o),
(744,212,cs),
(744,307,o),
(694,365,o),
(597,385,c),
(597,386,l),
(671,410,o),
(715,469,o),
(715,545,cs),
(715,665,o),
(627,729,o),
(459,729,cs),
(32,729,l),
(32,0,l)
);
},
{
closed = 1;
nodes = (
(260,573,l),
(395,573,ls),
(451,573,o),
(489,559,o),
(489,514,cs),
(489,475,o),
(467,449,o),
(396,449,cs),
(244,449,l),
(244,300,l),
(411,300,ls),
(482,300,o),
(515,279,o),
(515,228,cs),
(515,184,o),
(491,155,o),
(411,155,cs),
(260,155,l)
);
}
);
width = 744;
}
);
metricLeft = H;
unicode = 66;
}
{
glyphname = C;
kernLeft = KO_O;
kernRight = KO_C;
layers = (
{
anchors = (
{
name = bottom;
pos = (178,0);
},
{
name = top;
pos = (178,729);
}
);
background = {
shapes = (
{
closed = 1;
nodes = (
(418,-8,o),
(515,71,o),
(529,238,c),
(489,238,l),
(474,87,o),
(392,28,o),
(284,28,cs),
(130,28,o),
(66,150,o),
(66,337,cs),
(66,394,ls),
(66,581,o),
(130,703,o),
(284,703,cs),
(392,703,o),
(474,644,o),
(489,493,c),
(529,493,l),
(515,660,o),
(418,739,o),
(284,739,cs),
(97,739,o),
(25,605,o),
(25,366,cs),
(25,126,o),
(97,-8,o),
(284,-8,cs)
);
}
);
};
layerId = "71D8B5AD-B400-4239-9672-E7BA455EF2D0";
shapes = (
{
closed = 1;
nodes = (
(273,-10,o),
(318,65,o),
(325,250,c),
(293,250,l),
(286,88,o),
(257,19,o),
(181,19,cs),
(92,19,o),
(61,117,o),
(61,364,cs),
(61,611,o),
(91,709,o),
(181,709,cs),
(251,709,o),
(283,649,o),
(292,478,c),
(324,478,l),
(316,662,o),
(274,738,o),
(181,738,cs),
(67,738,o),
(28,630,o),
(28,364,cs),
(28,96,o),
(68,-10,o),
(181,-10,cs)
);
}
);
width = 348;
},
{
anchors = (
{
name = bottom;
pos = (233,0);
},
{
name = top;
pos = (233,729);
}
);
background = {
shapes = (
{
closed = 1;
nodes = (
(-89,140,o),
(38,-10,o),
(273,-10,cs),
(491,-10,o),
(636,121,o),
(636,365,cs),
(636,587,o),
(510,738,o),
(273,738,cs),
(55,738,o),
(-89,607,o),
(-89,365,cs)
);
},
{
closed = 1;
nodes = (
(125,481,o),
(176,562,o),
(273,562,cs),
(363,562,o),
(423,491,o),
(423,365,cs),
(423,247,o),
(372,166,o),
(273,166,cs),
(184,166,o),
(125,235,o),
(125,365,cs)
);
}
);
};
layerId = "FFCA1F59-E305-4E0F-BBF9-E0C4511C19C1";
shapes = (
{
closed = 1;
nodes = (
(391,-9,o),
(457,73,o),
(463,289,c),
(285,289,l),
(281,180,o),
(270,147,o),
(239,147,cs),
(204,147,o),
(193,203,o),
(193,365,cs),
(193,515,o),
(201,583,o),
(239,583,cs),
(269,583,o),
(280,550,o),
(285,447,c),
(463,447,l),
(453,658,o),
(391,739,o),
(238,739,cs),
(56,739,o),
(5,593,o),
(5,365,cs),
(5,136,o),
(54,-9,o),
(226,-9,cs)
);
}
);
width = 466;
},
{
anchors = (
{
name = bottom;
pos = (392,0);
},
{
name = top;
pos = (392,729);
}
);
background = {
shapes = (
{
closed = 1;
nodes = (
(578,-8,o),
(703,87,o),
(724,237,c),
(684,238,l),
(664,111,o),
(559,28,o),
(405,28,cs),
(216,28,o),
(101,162,o),
(101,364,cs),
(101,566,o),
(216,700,o),
(405,700,cs),
(558,700,o),
(662,615,o),
(684,494,c),
(724,494,l),
(698,643,o),
(574,736,o),
(405,736,cs),
(198,736,o),
(60,586,o),
(60,364,cs),
(60,143,o),
(197,-8,o),
(405,-8,cs)
);
}
);
};
layerId = "5A048DDA-4734-4F8A-A53C-0BED34B57D1C";
shapes = (
{
closed = 1;
nodes = (
(568,-8,o),
(688,87,o),
(710,246,c),
(670,246,l),
(649,109,o),
(544,28,o),
(385,28,cs),
(194,28,o),
(76,163,o),
(76,364,cs),
(76,565,o),
(193,700,o),
(385,700,cs),
(541,700,o),
(647,620,o),
(670,486,c),
(710,486,l),
(683,643,o),
(562,736,o),
(385,736,cs),
(174,736,o),
(35,588,o),
(35,364,cs),
(35,142,o),
(173,-8,o),
(385,-8,cs)
);
}
);
userData = {
com.schriftgestaltung.hints = (
{
horizontal = 1;
options = 0;
origin = (
0,
6
);
stem = -2;
target = (
0,
25
);
type = Stem;
},
{
horizontal = 1;
options = 0;
origin = (
0,
19
);
stem = -2;
target = (
0,
12
);
type = Stem;
},
{
horizontal = 0;
options = 0;
place = (
0,
0
);
stem = -2;
type = Stem;
}
);
};
width = 734;
},
{
anchors = (
{
name = bottom;
pos = (362,0);
},
{
name = top;
pos = (362,729);
}
);
background = {
shapes = (
{
closed = 1;
nodes = (
(590,-10,o),
(732,98,o),
(749,258,c),
(544,258,l),
(530,200,o),
(470,162,o),
(401,162,c),
(401,-10,l)
);
},
{
closed = 1;
nodes = (
(177,739,o),
(27,607,o),
(27,365,cs),
(27,122,o),
(177,-10,o),
(401,-10,c),
(401,162,l),
(301,162,o),
(235,220,o),
(235,365,cs),
(235,509,o),
(301,567,o),
(401,567,c),
(401,739,l)
);
},
{
closed = 1;
nodes = (
(474,567,o),
(528,528,o),
(544,472,c),
(749,472,l),
(732,631,o),
(595,739,o),
(401,739,c),
(401,567,l)
);
}
);
};
layerId = "DED42A87-C949-4722-A202-2B551272A3FB";
shapes = (
{
closed = 1;
nodes = (
(583,-10,o),
(717,94,o),
(738,270,c),
(524,270,l),
(508,201,o),
(446,162,o),
(375,162,cs),
(278,162,o),
(212,220,o),
(212,365,cs),
(212,509,o),
(278,567,o),
(375,567,cs),
(451,567,o),
(506,527,o),
(524,460,c),
(738,460,l),
(717,635,o),
(583,739,o),
(375,739,cs),
(151,739,o),
(2,607,o),
(2,365,cs),
(2,122,o),
(151,-10,o),
(375,-10,cs)
);
}
);
width = 737;
},
{
anchors = (
{
name = bottom;
pos = (391,0);
},
{
name = top;
pos = (391,729);
}
);
layerId = "106FCE83-F343-403B-A314-646E4D059B3F";
shapes = (
{
closed = 1;
nodes = (
(600,-8,o),
(740,88,o),
(766,240,c),
(727,240,l),
(701,110,o),
(576,28,o),
(407,28,cs),
(195,28,o),
(66,162,o),
(66,364,cs),
(66,566,o),
(195,700,o),
(407,700,cs),
(574,700,o),
(698,620,o),
(726,493,c),
(765,493,l),
(734,642,o),
(595,736,o),
(407,736,cs),
(178,736,o),
(26,587,o),
(26,364,cs),
(26,142,o),
(177,-8,o),
(407,-8,cs)
);
}
);
width = 786;
},
{
anchors = (
{
name = bottom;
pos = (415,0);
},
{
name = top;
pos = (415,729);
}
);
layerId = "2D1A1AFE-39FB-4EBD-856C-88C6B057247F";
shapes = (
{
closed = 1;
nodes = (
(670,-10,o),
(826,102,o),
(848,297,c),
(612,297,l),
(592,213,o),
(531,170,o),
(430,170,cs),
(314,170,o),
(238,230,o),
(238,365,cs),
(238,499,o),
(314,559,o),
(430,559,cs),
(531,559,o),
(590,518,o),
(613,430,c),
(848,430,l),
(825,626,o),
(670,739,o),
(430,739,cs),
(158,739,o),
(3,592,o),
(3,365,cs),
(3,138,o),
(158,-10,o),
(430,-10,cs)
);
}
);
width = 848;
}
);
unicode = 67;
}
{
glyphname = D;
kernLeft = KO_H;
kernRight = KO_D;
layers = (
{
anchors = (
{
name = bottom;
pos = (176,0);
},
{
name = center;
pos = (58,365);
},
{
name = top;
pos = (176,729);
}
);
layerId = "71D8B5AD-B400-4239-9672-E7BA455EF2D0";
shapes = (
{
closed = 1;
nodes = (
(134,0,ls),
(272,0,o),
(326,107,o),
(326,365,cs),
(326,623,o),
(272,729,o),
(134,729,cs),
(42,729,l),
(42,0,l)
);
},
{
closed = 1;
nodes = (
(73,701,l),
(135,701,ls),
(250,701,o),
(293,603,o),
(293,365,cs),
(293,126,o),
(250,28,o),
(135,28,cs),
(73,28,l)
);
}
);
width = 351;
},
{
anchors = (
{
name = bottom;
pos = (239,0);
},
{
name = center;
pos = (115,365);
},
{
name = top;
pos = (239,729);
}
);
layerId = "FFCA1F59-E305-4E0F-BBF9-E0C4511C19C1";
shapes = (
{
closed = 1;
nodes = (
(181,0,ls),
(378,0,o),
(465,96,o),
(465,364,cs),
(465,624,o),
(378,729,o),
(181,729,cs),
(18,729,l),
(18,0,l)
);
},
{
closed = 1;
nodes = (
(197,572,l),
(211,572,ls),
(267,572,o),
(278,517,o),
(278,368,cs),
(278,205,o),
(267,157,o),
(211,157,cs),
(197,157,l)
);
}
);
width = 476;
},
{
anchors = (
{
name = bottom;
pos = (352,0);
},
{
name = center;
pos = (108,365);
},
{
name = top;
pos = (352,729);
}
);
layerId = "5A048DDA-4734-4F8A-A53C-0BED34B57D1C";
shapes = (
{
closed = 1;
nodes = (
(355,0,ls),
(555,0,o),
(676,144,o),
(676,364,cs),
(676,585,o),
(555,729,o),
(355,729,cs),
(70,729,l),
(70,0,l)
);
},
{
closed = 1;
nodes = (
(108,693,l),
(354,693,ls),
(526,693,o),
(636,570,o),
(636,365,cs),
(636,167,o),
(531,37,o),
(354,37,cs),
(108,37,l)
);
}
);
userData = {
com.schriftgestaltung.Glyphs.glyph.leftMetricsKey = H;
com.schriftgestaltung.hints = (
{
horizontal = 1;
options = 0;
origin = (
1,
8
);
stem = -2;
target = (
0,
8
);
type = Stem;
},
{
horizontal = 1;
options = 0;
origin = (
0,
7
);
stem = -2;
target = (
1,
0
);
type = Stem;
},
{
horizontal = 0;
options = 0;
origin = (
0,
8
);
stem = -2;
target = (
1,
8
);
type = Stem;
},
{
horizontal = 0;
options = 0;
origin = (
1,
4
);
stem = -2;
target = (
0,
3
);
type = Stem;
}
);
};
width = 712;
},
{
anchors = (
{
name = bottom;
pos = (346,0);
},
{
name = center;
pos = (161,365);
},
{
name = top;
pos = (346,729);
}
);
background = {
shapes = (
{
closed = 1;
nodes = (
(388,0,ls),
(612,0,o),
(730,147,o),
(730,364,cs),
(730,581,o),
(613,729,o),
(388,729,cs),
(59,729,l),
(59,0,l)
);
},
{
closed = 1;
nodes = (
(262,557,l),
(352,557,ls),
(447,557,o),
(518,527,o),
(518,368,cs),
(518,198,o),
(443,172,o),
(352,172,cs),
(262,172,l)
);
}
);
};
layerId = "DED42A87-C949-4722-A202-2B551272A3FB";
shapes = (
{
closed = 1;
nodes = (
(357,0,ls),
(583,0,o),
(702,147,o),
(702,364,cs),
(702,581,o),
(584,729,o),
(357,729,cs),
(30,729,l),
(30,0,l)
);
},
{
closed = 1;
nodes = (
(233,558,l),
(322,558,ls),
(419,558,o),
(492,526,o),
(492,368,cs),
(492,200,o),
(415,171,o),
(322,171,cs),
(233,171,l)
);
}
);
userData = {
com.schriftgestaltung.Glyphs.glyph.leftMetricsKey = H;
};
width = 705;
},
{
anchors = (
{
name = bottom;
pos = (385,0);
},
{
name = center;
pos = (110,365);
},
{
name = top;
pos = (385,729);
}
);
layerId = "106FCE83-F343-403B-A314-646E4D059B3F";
shapes = (
{
closed = 1;
nodes = (
(370,0,ls),
(598,0,o),
(738,144,o),
(738,364,cs),
(738,585,o),
(598,729,o),
(370,729,cs),
(62,729,l),
(62,0,l)
);
},
{
closed = 1;
nodes = (
(100,693,l),
(370,693,ls),
(571,693,o),
(699,570,o),
(699,365,cs),
(699,167,o),
(577,37,o),
(370,37,cs),
(100,37,l)
);
}
);
width = 776;
},
{
anchors = (
{
name = bottom;
pos = (395,0);
},
{
name = center;
pos = (168,365);
},
{
name = top;
pos = (395,729);
}
);
layerId = "2D1A1AFE-39FB-4EBD-856C-88C6B057247F";
shapes = (
{
closed = 1;
nodes = (
(400,0,ls),
(637,0,o),
(790,121,o),
(790,364,cs),
(790,583,o),
(664,729,o),
(400,729,cs),
(32,729,l),
(32,0,l)
);
},
{
closed = 1;
nodes = (
(260,554,l),
(353,554,ls),
(475,554,o),
(559,513,o),
(559,368,cs),
(559,244,o),
(505,175,o),
(353,175,cs),
(260,175,l)
);
}
);
width = 804;
}
);
metricLeft = H;
unicode = 68;
}
{
glyphname = E;
kernLeft = KO_H;
kernRight = KO_E;
layers = (
{
anchors = (
{
name = bottom;
pos = (160,0);
},
{
name = ogonek;
pos = (278,0);
},
{
name = top;
pos = (160,729);
},
{
name = topleft;
pos = (-3,729);
}
);
layerId = "71D8B5AD-B400-4239-9672-E7BA455EF2D0";
shapes = (
{
closed = 1;
nodes = (
(278,0,l),
(278,28,l),
(68,28,l),
(73,23,l),
(73,706,l),
(68,701,l),
(278,701,l),
(278,729,l),
(42,729,l),
(42,0,l)
);
},
{
closed = 1;
nodes = (
(258,361,l),
(258,389,l),
(68,389,l),
(68,361,l)
);
}
);
width = 278;
},
{
anchors = (
{
name = bottom;
pos = (179,0);
},
{
name = ogonek;
pos = (350,0);
},
{
name = top;
pos = (179,729);
},
{
name = topleft;
pos = (10,729);
}
);
layerId = "FFCA1F59-E305-4E0F-BBF9-E0C4511C19C1";
shapes = (
{
closed = 1;
nodes = (
(350,0,l),
(350,157,l),
(170,157,l),
(195,132,l),
(195,597,l),
(170,572,l),
(350,572,l),
(350,729,l),
(18,729,l),
(18,0,l)
);
},
{
closed = 1;
nodes = (
(340,299,l),
(340,445,l),
(170,445,l),
(170,299,l)
);
}
);
width = 359;
},
{
anchors = (
{
name = bottom;
pos = (286,0);
},
{
name = ogonek;
pos = (551,0);
},
{
name = top;
pos = (286,729);
},
{
name = topleft;
pos = (-13,729);
}
);
layerId = "5A048DDA-4734-4F8A-A53C-0BED34B57D1C";
shapes = (
{
closed = 1;
nodes = (
(551,0,l),
(551,37,l),
(97,37,l),
(108,26,l),
(108,704,l),
(97,693,l),
(551,693,l),
(551,729,l),
(70,729,l),
(70,0,l)
);
},
{
closed = 1;
nodes = (
(503,358,l),
(503,392,l),
(97,392,l),
(97,358,l)
);
}
);
userData = {
com.schriftgestaltung.Glyphs.glyph.leftMetricsKey = H;
com.schriftgestaltung.hints = (
{
horizontal = 1;
options = 0;
origin = (
0,
2
);
stem = -2;
target = (
0,
11
);
type = Stem;
},
{
horizontal = 1;
options = 0;
origin = (
0,
6
);
stem = -2;
target = (
0,
3
);
type = Stem;
},
{
horizontal = 1;
options = 0;
origin = (
0,
10
);
stem = -2;
target = (
0,
7
);
type = Stem;
},
{
horizontal = 0;
options = 0;
origin = (
0,
11
);
stem = -2;
target = (
0,
2
);
type = Stem;
}
);
};
width = 568;
},
{
anchors = (
{
name = bottom;
pos = (295,0);
},
{
name = ogonek;
pos = (583,0);
},
{
name = top;
pos = (295,729);
},
{
name = topleft;
pos = (-19,729);
}
);
layerId = "DED42A87-C949-4722-A202-2B551272A3FB";
shapes = (
{
closed = 1;
nodes = (
(583,0,l),
(583,172,l),
(191,172,l),
(233,130,l),
(233,599,l),
(191,557,l),
(580,557,l),
(580,729,l),
(30,729,l),
(30,0,l)
);
},
{
closed = 1;
nodes = (
(530,288,l),
(530,449,l),
(191,449,l),
(191,288,l)
);
}
);
userData = {
com.schriftgestaltung.Glyphs.glyph.leftMetricsKey = H;
};
width = 591;
},
{
anchors = (
{
name = bottom;
pos = (326,0);
},
{
name = ogonek;
pos = (628,0);
},
{
name = top;
pos = (326,729);
},
{
name = topleft;
pos = (11,729);
}
);
layerId = "106FCE83-F343-403B-A314-646E4D059B3F";
shapes = (
{
closed = 1;
nodes = (
(628,0,l),
(628,37,l),
(75,37,l),
(100,12,l),
(100,718,l),
(75,693,l),
(628,693,l),
(628,729,l),
(62,729,l),
(62,0,l)
);
},
{
closed = 1;
nodes = (
(580,358,l),
(580,392,l),
(85,392,l),
(85,358,l)
);
}
);
width = 640;
},
{
anchors = (
{
name = bottom;
pos = (353,0);
},
{
name = ogonek;
pos = (673,0);
},
{
name = top;
pos = (351,729);
},
{
name = topleft;
pos = (-2,729);
}
);
layerId = "2D1A1AFE-39FB-4EBD-856C-88C6B057247F";
shapes = (
{
closed = 1;
nodes = (
(673,0,l),
(673,179,l),
(216,179,l),
(261,134,l),
(261,595,l),
(216,550,l),
(670,550,l),
(670,729,l),
(32,729,l),
(32,0,l)
);
},
{
closed = 1;
nodes = (
(620,282,l),
(620,449,l),
(216,449,l),
(216,282,l)
);
}
);
width = 680;
}
);
metricLeft = H;
unicode = 69;
userData = {
KernOnName = E;
};
}
{
glyphname = F;
kernLeft = KO_H;
kernRight = KO_F;
layers = (
{
anchors = (
{
name = bottom;
pos = (132,0);
},
{
name = top;
pos = (132,729);
}
);
layerId = "71D8B5AD-B400-4239-9672-E7BA455EF2D0";
shapes = (
{
closed = 1;
nodes = (
(73,0,l),
(73,715,l),
(58,700,l),
(265,700,l),
(265,729,l),
(42,729,l),
(42,0,l)
);
},
{
closed = 1;
nodes = (
(245,353,l),
(245,382,l),
(56,382,l),
(56,353,l)
);
}
);
width = 265;
},
{
anchors = (
{
name = bottom;
pos = (175,0);
},
{
name = top;
pos = (175,729);
}
);
layerId = "FFCA1F59-E305-4E0F-BBF9-E0C4511C19C1";
shapes = (
{
closed = 1;
nodes = (
(204,0,l),
(204,587,l),
(189,572,l),
(351,572,l),
(351,729,l),
(18,729,l),
(18,0,l)
);
},
{
closed = 1;
nodes = (
(337,271,l),
(337,420,l),
(173,420,l),
(173,271,l)
);
}
);
width = 355;
},
{
anchors = (
{
name = bottom;
pos = (275,0);
},
{
name = top;
pos = (275,729);
}
);
layerId = "5A048DDA-4734-4F8A-A53C-0BED34B57D1C";
shapes = (
{
closed = 1;
nodes = (
(108,0,l),
(108,704,l),
(97,693,l),
(549,693,l),
(549,729,l),
(70,729,l),
(70,0,l)
);
},
{
closed = 1;
nodes = (
(509,349,l),
(509,384,l),
(88,384,l),
(88,349,l)
);
}
);
userData = {
com.schriftgestaltung.hints = (
{
horizontal = 1;
options = 0;
origin = (
0,
9
);
stem = -2;
target = (
u,
p
);
type = BottomGhost;
},
{
horizontal = 1;
options = 0;
origin = (
0,
4
);
stem = -2;
target = (
0,
1
);
type = Stem;
},
{
horizontal = 1;
options = 0;
origin = (
0,
8
);
stem = -2;
target = (
0,
5
);
type = Stem;
},
{
horizontal = 0;
options = 0;
origin = (
0,
9
);
stem = -2;
target = (
0,
0
);
type = Stem;
}
);
};
width = 553;
},
{
anchors = (
{
name = bottom;
pos = (281,0);
},
{
name = top;
pos = (281,729);
}
);
layerId = "DED42A87-C949-4722-A202-2B551272A3FB";
shapes = (
{
closed = 1;
nodes = (
(233,0,l),
(233,589,l),
(201,557,l),
(579,557,l),
(579,729,l),
(30,729,l),
(30,0,l)
);
},
{
closed = 1;
nodes = (
(539,261,l),
(539,424,l),
(185,424,l),
(185,261,l)
);
}
);
width = 580;
},
{
anchors = (
{
name = bottom;
pos = (321,0);
},
{
name = top;
pos = (321,729);
}
);
layerId = "106FCE83-F343-403B-A314-646E4D059B3F";
shapes = (
{
closed = 1;
nodes = (
(100,0,l),
(100,708,l),
(85,693,l),
(626,693,l),
(626,729,l),
(62,729,l),
(62,0,l)
);
},
{
closed = 1;
nodes = (
(586,349,l),
(586,384,l),
(76,384,l),
(76,349,l)
);
}
);
width = 633;
},
{
anchors = (
{
name = bottom;
pos = (318,0);
},
{
name = top;
pos = (318,729);
}
);
layerId = "2D1A1AFE-39FB-4EBD-856C-88C6B057247F";
shapes = (
{
closed = 1;
nodes = (
(261,0,l),
(261,565,l),
(246,550,l),
(642,550,l),
(642,729,l),
(32,729,l),
(32,0,l)
);
},
{
closed = 1;
nodes = (
(602,251,l),
(602,426,l),
(230,426,l),
(230,251,l)
);
}
);
width = 641;
}
);
metricLeft = H;
unicode = 70;
userData = {
KernOnName = F;
};
}
{
glyphname = G;
kernLeft = KO_O;
kernRight = KO_G;
layers = (
{
anchors = (
{
name = bottom;
pos = (188,0);
},
{
name = top;
pos = (190,729);
}
);
layerId = "71D8B5AD-B400-4239-9672-E7BA455EF2D0";
shapes = (
{
closed = 1;
nodes = (
(279,-10,o),
(352,44,o),
(352,257,cs),
(352,375,l),
(178,375,l),
(178,344,l),
(349,344,l),
(319,375,l),
(319,257,ls),
(319,105,o),
(282,19,o),
(189,19,cs),
(85,19,o),
(58,159,o),
(58,364,cs),
(58,570,o),
(85,709,o),
(190,709,cs),
(273,709,o),
(309,650,o),
(320,495,c),
(352,495,l),
(344,641,o),
(311,738,o),
(192,738,cs),
(94,738,o),
(25,668,o),
(25,364,cs),
(25,65,o),
(93,-10,o),
(190,-10,cs)
);
}
);
width = 377;
},
{
anchors = (
{
name = bottom;
pos = (236,0);
},
{
name = top;
pos = (243,729);
}
);
background = {
shapes = (
{
closed = 1;
nodes = (
(427,-9,o),
(478,136,o),
(478,365,cs),
(478,594,o),
(427,739,o),
(247,739,cs),
(68,739,o),
(16,595,o),
(16,365,cs),
(16,135,o),
(68,-9,o),
(247,-9,cs)
);
},
{
closed = 1;
nodes = (
(209,147,o),
(197,202,o),
(197,365,cs),
(197,515,o),
(205,583,o),
(247,583,cs),
(285,583,o),
(298,529,o),
(298,365,cs),
(298,217,o),
(290,147,o),
(247,147,cs)
);
}
);
};
layerId = "FFCA1F59-E305-4E0F-BBF9-E0C4511C19C1";
shapes = (
{
closed = 1;
nodes = (
(371,-9,o),
(458,74,o),
(458,249,cs),
(458,399,l),
(240,399,l),
(240,264,l),
(331,264,l),
(288,307,l),
(288,254,ls),
(288,185,o),
(279,147,o),
(243,147,cs),
(199,147,o),
(188,192,o),
(188,370,cs),
(188,540,o),
(199,583,o),
(241,583,cs),
(272,583,o),
(288,555,o),
(288,465,c),
(458,465,l),
(459,640,o),
(391,739,o),
(243,739,cs),
(103,739,o),
(7,662,o),
(7,370,cs),
(7,143,o),
(54,-9,o),
(239,-9,cs)
);
}
);
width = 466;
},
{
anchors = (
{
name = bottom;
pos = (382,0);
},
{
name = top;
pos = (386,729);
}
);
background = {
shapes = (
{
closed = 1;
nodes = (
(586,-8,o),
(717,124,o),
(717,340,cs),
(717,366,l),
(438,366,l),
(438,330,l),
(699,330,l),
(676,355,l),
(676,335,ls),
(676,140,o),
(559,28,o),
(390,28,cs),
(210,28,o),
(94,162,o),
(94,365,cs),
(94,567,o),
(211,699,o),
(391,699,cs),
(530,699,o),
(637,621,o),
(659,493,c),
(699,493,l),
(677,640,o),
(554,736,o),
(391,736,cs),
(190,736,o),
(55,587,o),
(55,364,cs),
(55,141,o),
(187,-8,o),
(390,-8,cs)
);
}
);
};
layerId = "5A048DDA-4734-4F8A-A53C-0BED34B57D1C";
shapes = (
{
closed = 1;
nodes = (
(590,-8,o),
(727,124,o),
(727,340,cs),
(727,366,l),
(406,366,l),
(406,330,l),
(710,330,l),
(686,355,l),
(686,335,ls),
(686,140,o),
(563,28,o),
(385,28,cs),
(196,28,o),
(74,162,o),
(74,365,cs),
(74,567,o),
(197,699,o),
(386,699,cs),
(527,699,o),
(644,626,o),
(669,493,c),
(708,493,l),
(685,640,o),
(555,736,o),
(386,736,cs),
(177,736,o),
(35,587,o),
(35,364,cs),
(35,142,o),
(173,-8,o),
(385,-8,cs)
);
}
);
userData = {
com.schriftgestaltung.Glyphs.glyph.leftMetricsKey = O;
com.schriftgestaltung.Glyphs.glyph.rightMetricsKey = O;
com.schriftgestaltung.hints = (
{
horizontal = 1;
options = 0;
origin = (
0,
9
);
stem = -2;
target = (
0,
28
);
type = Stem;
},
{
horizontal = 1;
options = 0;
origin = (
0,
4
);
stem = -2;
target = (
0,
5
);
type = Stem;
},
{
horizontal = 1;
options = 0;
origin = (
0,
22
);
stem = -2;
target = (
0,
15
);
type = Stem;
},
{
horizontal = 0;
options = 0;
origin = (
0,
25
);
stem = -2;
target = (
0,
12
);
type = Stem;
},
{
horizontal = 0;
options = 0;
origin = (
0,
7
);
stem = -2;
target = (
0,
2
);
type = Stem;
}
);
};
width = 758;
},
{
anchors = (
{
name = bottom;
pos = (366,0);
},
{
name = top;
pos = (375,729);
}
);
layerId = "DED42A87-C949-4722-A202-2B551272A3FB";
shapes = (
{
closed = 1;
nodes = (
(582,-10,o),
(731,115,o),
(731,310,cs),
(731,401,l),
(358,401,l),
(358,254,l),
(578,254,l),
(527,318,l),
(527,283,ls),
(527,208,o),
(470,158,o),
(373,158,cs),
(270,158,o),
(209,220,o),
(209,365,cs),
(209,509,o),
(275,567,o),
(375,567,cs),
(450,567,o),
(500,534,o),
(511,480,c),
(720,480,l),
(703,634,o),
(579,739,o),
(375,739,cs),
(150,739,o),
(1,607,o),
(1,365,cs),
(1,140,o),
(134,-10,o),
(368,-10,cs)
);
}
);
userData = {
com.schriftgestaltung.Glyphs.glyph.leftMetricsKey = O;
com.schriftgestaltung.Glyphs.glyph.rightMetricsKey = O;
};
width = 734;
},
{
anchors = (
{
name = bottom;
pos = (403,0);
},
{
name = top;
pos = (407,729);
}
);
layerId = "106FCE83-F343-403B-A314-646E4D059B3F";
shapes = (
{
closed = 1;
nodes = (
(628,-8,o),
(778,124,o),
(778,340,cs),
(778,366,l),
(392,366,l),
(392,331,l),
(767,331,l),
(737,353,l),
(737,327,ls),
(737,140,o),
(602,28,o),
(407,28,cs),
(198,28,o),
(63,162,o),
(63,365,cs),
(63,567,o),
(200,699,o),
(407,699,cs),
(570,699,o),
(693,620,o),
(718,493,c),
(757,493,l),
(731,640,o),
(591,736,o),
(407,736,cs),
(180,736,o),
(26,587,o),
(26,364,cs),
(26,141,o),
(177,-8,o),
(407,-8,cs)
);
}
);
width = 800;
},
{
anchors = (
{
name = bottom;
pos = (416,0);
},
{
name = top;
pos = (427,729);
}
);
background = {
shapes = (
{
closed = 1;
nodes = (
(650,-10,o),
(839,101,o),
(839,331,cs),
(839,405,l),
(420,405,l),
(420,262,l),
(669,262,l),
(613,322,l),
(613,304,ls),
(613,223,o),
(558,169,o),
(431,169,cs),
(316,169,o),
(243,231,o),
(243,365,cs),
(243,486,o),
(305,560,o),
(437,560,cs),
(518,560,o),
(582,531,o),
(601,473,c),
(832,473,l),
(813,632,o),
(669,739,o),
(437,739,cs),
(167,739,o),
(12,592,o),
(12,365,cs),
(12,138,o),
(166,-10,o),
(428,-10,cs)
);
}
);
};
layerId = "2D1A1AFE-39FB-4EBD-856C-88C6B057247F";
shapes = (
{
closed = 1;
nodes = (
(640,-10,o),
(829,101,o),
(829,331,cs),
(829,405,l),
(410,405,l),
(410,262,l),
(659,262,l),
(603,322,l),
(603,304,ls),
(603,223,o),
(548,169,o),
(421,169,cs),
(306,169,o),
(233,231,o),
(233,365,cs),
(233,486,o),
(295,560,o),
(427,560,cs),
(508,560,o),
(572,531,o),
(591,473,c),
(822,473,l),
(803,632,o),
(659,739,o),
(427,739,cs),
(157,739,o),
(2,592,o),
(2,365,cs),
(2,138,o),
(156,-10,o),
(418,-10,cs)
);
}
);
width = 833;
}
);
unicode = 71;
userData = {
KernOnName = G;
};
}
{
glyphname = H;
kernLeft = KO_H;
kernRight = KO_H;
layers = (
{
anchors = (
{
name = bottom;
pos = (181,0);
},
{
name = center;
pos = (181,592);
},
{
name = top;
pos = (181,729);
},
{
name = topleft;
pos = (-3,729);
}
);
layerId = "71D8B5AD-B400-4239-9672-E7BA455EF2D0";
shapes = (
{
closed = 1;
nodes = (
(73,0,l),
(73,729,l),
(42,729,l),
(42,0,l)
);
},
{
closed = 1;
nodes = (
(320,0,l),
(320,729,l),
(289,729,l),
(289,0,l)
);
},
{
closed = 1;
nodes = (
(308,365,l),
(308,395,l),
(56,395,l),
(56,365,l)
);
}
);
width = 362;
},
{
anchors = (
{
name = bottom;
pos = (237,0);
},
{
name = center;
pos = (236,591);
},
{
name = top;
pos = (237,729);
},
{
name = topleft;
pos = (10,729);
}
);
layerId = "FFCA1F59-E305-4E0F-BBF9-E0C4511C19C1";
shapes = (
{
closed = 1;
nodes = (
(204,0,l),
(204,729,l),
(18,729,l),
(18,0,l)
);
},
{
closed = 1;
nodes = (
(455,0,l),
(455,729,l),
(269,729,l),
(269,0,l)
);
},
{
closed = 1;
nodes = (
(300,291,l),
(300,447,l),
(171,447,l),
(171,291,l)
);
}
);
width = 473;
},
{
anchors = (
{
name = bottom;
pos = (361,0);
},
{
name = center;
pos = (361,592);
},
{
name = top;
pos = (361,729);
},
{
name = topleft;
pos = (-13,729);
}
);
layerId = "5A048DDA-4734-4F8A-A53C-0BED34B57D1C";
shapes = (
{
closed = 1;
nodes = (
(108,0,l),
(108,729,l),
(70,729,l),
(70,0,l)
);
},
{
closed = 1;
nodes = (
(652,0,l),
(652,729,l),
(614,729,l),
(614,0,l)
);
},
{
closed = 1;
nodes = (
(634,362,l),
(634,398,l),
(88,398,l),
(88,362,l)
);
}
);
userData = {
com.schriftgestaltung.hints = (
{
horizontal = 1;
options = 0;
origin = (
0,
11
);
stem = -2;
target = (
u,
p
);
type = BottomGhost;
},
{
horizontal = 1;
options = 0;
origin = (
0,
8
);
stem = -2;
target = (
0,
1
);
type = Stem;
},
{
horizontal = 1;
options = 0;
origin = (
0,
10
);
stem = -2;
target = (
d,
o,
w,
n
);
type = TopGhost;
},
{
horizontal = 0;
options = 0;
origin = (
0,
11
);
stem = -2;
target = (
0,
0
);
type = Stem;
},
{
horizontal = 0;
options = 0;
origin = (
0,
3
);
stem = -2;
target = (
0,
4
);
type = Stem;
}
);
};
width = 722;
},
{
anchors = (
{
name = bottom;
pos = (372,0);
},
{
name = center;
pos = (372,591);
},
{
name = top;
pos = (372,729);
},
{
name = topleft;
pos = (-19,729);
}
);
layerId = "DED42A87-C949-4722-A202-2B551272A3FB";
shapes = (
{
closed = 1;
nodes = (
(233,0,l),
(233,729,l),
(30,729,l),
(30,0,l)
);
},
{
closed = 1;
nodes = (
(714,0,l),
(714,729,l),
(511,729,l),
(511,0,l)
);
},
{
closed = 1;
nodes = (
(549,283,l),
(549,455,l),
(195,455,l),
(195,283,l)
);
}
);
width = 744;
},
{
anchors = (
{
name = bottom;
pos = (396,0);
},
{
name = center;
pos = (396,592);
},
{
name = top;
pos = (396,729);
},
{
name = topleft;
pos = (11,729);
}
);
layerId = "106FCE83-F343-403B-A314-646E4D059B3F";
shapes = (
{
closed = 1;
nodes = (
(100,0,l),
(100,729,l),
(62,729,l),
(62,0,l)
);
},
{
closed = 1;
nodes = (
(729,0,l),
(729,729,l),
(691,729,l),
(691,0,l)
);
},
{
closed = 1;
nodes = (
(705,362,l),
(705,398,l),
(86,398,l),
(86,362,l)
);
}
);
width = 791;
},
{
anchors = (
{
name = bottom;
pos = (419,0);
},
{
name = center;
pos = (419,591);
},
{
name = top;
pos = (419,729);
},
{
name = topleft;
pos = (-2,729);
}
);
layerId = "2D1A1AFE-39FB-4EBD-856C-88C6B057247F";
shapes = (
{
closed = 1;
nodes = (
(261,0,l),
(261,729,l),
(32,729,l),
(32,0,l)
);
},
{
closed = 1;
nodes = (
(806,0,l),
(806,729,l),
(577,729,l),
(577,0,l)
);
},
{
closed = 1;
nodes = (
(608,280,l),
(608,458,l),
(230,458,l),
(230,280,l)
);
}
);
width = 838;
}
);
metricRight = "=|";
unicode = 72;
userData = {
KernOnName = H;
};
}
{
glyphname = I;
kernLeft = KO_H;
kernRight = KO_H;
layers = (
{
anchors = (
{
name = bottom;
pos = (58,0);
},
{
name = ogonek;
pos = (73,0);
},
{
name = top;
pos = (58,729);
},
{
name = topleft;
pos = (-3,729);
}
);
layerId = "71D8B5AD-B400-4239-9672-E7BA455EF2D0";
shapes = (
{
closed = 1;
nodes = (
(73,0,l),
(73,729,l),
(42,729,l),
(42,0,l)
);
}
);
width = 115;
},
{
anchors = (
{
name = bottom;
pos = (112,0);
},
{
name = ogonek;
pos = (204,0);
},
{
name = top;
pos = (112,729);
},
{
name = topleft;
pos = (10,729);
}
);
layerId = "FFCA1F59-E305-4E0F-BBF9-E0C4511C19C1";
shapes = (
{
closed = 1;
nodes = (
(204,0,l),
(204,729,l),
(18,729,l),
(18,0,l)
);
}
);
width = 222;
},
{
anchors = (
{
name = bottom;
pos = (89,0);
},
{
name = ogonek;
pos = (108,0);
},
{
name = top;
pos = (89,729);
},
{
name = topleft;
pos = (-13,729);
}
);
layerId = "5A048DDA-4734-4F8A-A53C-0BED34B57D1C";
shapes = (
{
closed = 1;
nodes = (
(108,0,l),
(108,729,l),
(70,729,l),
(70,0,l)
);
}
);
userData = {
com.schriftgestaltung.hints = (
{
horizontal = 1;
options = 0;
origin = (
0,
3
);
stem = -2;
target = (
u,
p
);
type = BottomGhost;
},
{
horizontal = 1;
options = 0;
origin = (
0,
2
);
stem = -2;
target = (
d,
o,
w,
n
);
type = TopGhost;
},
{
horizontal = 0;
options = 0;
origin = (
0,
3
);
stem = -2;
target = (
0,
0
);
type = Stem;
}
);
};
width = 178;
},
{
anchors = (
{
name = bottom;
pos = (132,0);
},
{
name = ogonek;
pos = (233,0);
},
{
name = top;
pos = (132,729);
},
{
name = topleft;
pos = (-19,729);
}
);
layerId = "DED42A87-C949-4722-A202-2B551272A3FB";
shapes = (
{
closed = 1;
nodes = (
(233,0,l),
(233,729,l),
(30,729,l),
(30,0,l)
);
}
);
width = 263;
},
{
anchors = (
{
name = bottom;
pos = (81,0);
},
{
name = ogonek;
pos = (100,0);
},
{
name = top;
pos = (81,729);
},
{
name = topleft;
pos = (11,729);
}
);
layerId = "106FCE83-F343-403B-A314-646E4D059B3F";
shapes = (
{
closed = 1;
nodes = (
(100,0,l),
(100,729,l),
(62,729,l),
(62,0,l)
);
}
);
width = 162;
},
{
anchors = (
{
name = bottom;
pos = (147,0);
},
{
name = ogonek;
pos = (261,0);
},
{
name = top;
pos = (147,729);
},
{
name = topleft;
pos = (-2,729);
}
);
layerId = "2D1A1AFE-39FB-4EBD-856C-88C6B057247F";
shapes = (
{
closed = 1;
nodes = (
(261,0,l),
(261,729,l),
(32,729,l),
(32,0,l)
);
}
);
width = 293;
}
);
metricLeft = H;
metricRight = H;
unicode = 73;
userData = {
KernOnName = I;
};
}
{
glyphname = J;
kernLeft = KO_J;
kernRight = KO_J;
layers = (
{
anchors = (
{
name = bottom;
pos = (61,0);
},
{
name = top;
pos = (91,729);
}
);
background = {
shapes = (
{
closed = 1;
nodes = (
(82,-6,o),
(114,17,o),
(114,88,cs),
(114,729,l),
(84,729,l),
(84,97,ls),
(84,45,o),
(74,21,o),
(34,21,cs),
(19,21,o),
(5,26,o),
(0,31,c),
(0,4,l),
(7,-2,o),
(21,-6,o),
(36,-6,cs)
);
}
);
};
layerId = "71D8B5AD-B400-4239-9672-E7BA455EF2D0";
shapes = (
{
closed = 1;
nodes = (
(28,0,ls),
(74,0,o),
(106,23,o),
(106,94,cs),
(106,729,l),
(75,729,l),
(75,103,ls),
(75,51,o),
(65,27,o),
(26,27,cs),
(-8,27,l),
(-8,0,l)
);
}
);
width = 146;
},
{
anchors = (
{
name = bottom;
pos = (135,0);
},
{
name = top;
pos = (164,729);
}
);
layerId = "FFCA1F59-E305-4E0F-BBF9-E0C4511C19C1";
shapes = (
{
closed = 1;
nodes = (
(91,0,ls),
(191,0,o),
(257,59,o),
(257,185,cs),
(257,729,l),
(70,729,l),
(70,210,ls),
(70,165,o),
(62,143,o),
(31,143,cs),
(3,143,l),
(3,0,l)
);
}
);
width = 273;
},
{
anchors = (
{
name = bottom;
pos = (178,0);
},
{
name = top;
pos = (246,729);
}
);
background = {
shapes = (
{
closed = 1;
nodes = (
(225,-8,o),
(290,44,o),
(290,162,cs),
(290,729,l),
(252,729,l),
(252,167,ls),
(252,66,o),
(200,27,o),
(115,27,cs),
(78,27,o),
(48,36,o),
(28,50,c),
(28,13,l),
(48,1,o),
(79,-8,o),
(117,-8,cs)
);
}
);
};
layerId = "5A048DDA-4734-4F8A-A53C-0BED34B57D1C";
shapes = (
{
closed = 1;
nodes = (
(104,0,ls),
(217,0,o),
(265,57,o),
(265,170,cs),
(265,729,l),
(227,729,l),
(227,175,ls),
(227,81,o),
(198,35,o),
(104,35,cs),
(3,35,l),
(3,0,l)
);
}
);
userData = {
com.schriftgestaltung.hints = (
{
horizontal = 1;
options = 0;
origin = (
0,
8
);
stem = -2;
target = (
0,
15
);
type = Stem;
},
{
horizontal = 1;
options = 0;
origin = (
0,
4
);
stem = -2;
target = (
d,
o,
w,
n
);
type = TopGhost;
},
{
horizontal = 1;
options = 0;
origin = (
0,
12
);
stem = -2;
target = (
d,
o,
w,
n
);
type = TopGhost;
},
{
horizontal = 0;
options = 0;
origin = (
0,
5
);
stem = -2;
target = (
0,
2
);
type = Stem;
}
);
};
width = 329;
},
{
anchors = (
{
name = bottom;
pos = (205,0);
},
{
name = top;
pos = (257,729);
}
);
background = {
shapes = (
{
closed = 1;
nodes = (
(281,-7,o),
(380,59,o),
(380,227,cs),
(380,729,l),
(178,729,l),
(178,241,ls),
(178,187,o),
(153,158,o),
(88,158,cs),
(60,158,o),
(38,164,o),
(20,172,c),
(20,12,l),
(45,1,o),
(90,-7,o),
(133,-7,cs)
);
}
);
};
layerId = "DED42A87-C949-4722-A202-2B551272A3FB";
shapes = (
{
closed = 1;
nodes = (
(137,0,ls),
(284,0,o),
(358,74,o),
(358,221,cs),
(358,729,l),
(156,729,l),
(156,234,ls),
(156,178,o),
(132,156,o),
(76,156,cs),
(-2,156,l),
(-2,0,l)
);
}
);
width = 388;
},
{
anchors = (
{
name = bottom;
pos = (178,0);
},
{
name = top;
pos = (336,729);
}
);
background = {
shapes = (
{
closed = 1;
nodes = (
(233,-8,o),
(320,49,o),
(320,194,cs),
(320,729,l),
(282,729,l),
(282,201,ls),
(282,75,o),
(222,27,o),
(114,27,cs),
(69,27,o),
(38,36,o),
(16,50,c),
(16,13,l),
(37,1,o),
(69,-8,o),
(115,-8,cs)
);
}
);
};
layerId = "106FCE83-F343-403B-A314-646E4D059B3F";
shapes = (
{
closed = 1;
nodes = (
(153,0,ls),
(288,0,o),
(355,67,o),
(355,202,cs),
(355,729,l),
(317,729,l),
(317,203,ls),
(317,88,o),
(264,35,o),
(149,35,cs),
(11,35,l),
(11,0,l)
);
}
);
width = 410;
},
{
anchors = (
{
name = bottom;
pos = (205,0);
},
{
name = top;
pos = (309,729);
}
);
background = {
shapes = (
{
closed = 1;
nodes = (
(312,-10,o),
(393,75,o),
(393,263,cs),
(393,729,l),
(165,729,l),
(165,276,ls),
(165,195,o),
(129,171,o),
(69,171,cs),
(42,171,o),
(17,176,o),
(4,182,c),
(4,7,l),
(28,-3,o),
(71,-10,o),
(123,-10,cs)
);
}
);
};
layerId = "2D1A1AFE-39FB-4EBD-856C-88C6B057247F";
shapes = (
{
closed = 1;
nodes = (
(196,0,ls),
(350,0,o),
(423,82,o),
(423,229,cs),
(423,729,l),
(194,729,l),
(194,242,ls),
(194,198,o),
(176,179,o),
(132,179,cs),
(-6,179,l),
(-6,0,l)
);
}
);
width = 447;
}
);
unicode = 74;
}
{
glyphname = K;
kernLeft = KO_H;
kernRight = KO_K;
layers = (
{
anchors = (
{
name = bottom;
pos = (163,0);
},
{
name = top;
pos = (163,729);
}
);
layerId = "71D8B5AD-B400-4239-9672-E7BA455EF2D0";
shapes = (
{
closed = 1;
nodes = (
(334,0,l),
(169,454,l),
(323,729,l),
(288,729,l),
(66,334,l),
(66,279,l),
(147,420,l),
(300,0,l)
);
},
{
closed = 1;
nodes = (
(73,0,l),
(73,729,l),
(42,729,l),
(42,0,l)
);
}
);
width = 328;
},
{
anchors = (
{
name = bottom;
pos = (245,0);
},
{
name = top;
pos = (245,729);
}
);
background = {
shapes = (
{
closed = 1;
nodes = (
(261,0,l),
(261,159,l),
(336,249,l),
(501,0,l),
(747,0,l),
(474,414,l),
(737,729,l),
(487,729,l),
(261,445,l),
(261,729,l),
(58,729,l),
(58,0,l)
);
}
);
};
layerId = "FFCA1F59-E305-4E0F-BBF9-E0C4511C19C1";
shapes = (
{
closed = 1;
nodes = (
(475,0,l),
(363,426,l),
(476,729,l),
(290,729,l),
(201,451,l),
(201,147,l),
(232,252,l),
(284,0,l)
);
},
{
closed = 1;
nodes = (
(205,0,l),
(205,729,l),
(18,729,l),
(18,0,l)
);
}
);
width = 479;
},
{
anchors = (
{
name = bottom;
pos = (295,0);
},
{
name = top;
pos = (295,729);
}
);
layerId = "5A048DDA-4734-4F8A-A53C-0BED34B57D1C";
shapes = (
{
closed = 1;
nodes = (
(594,0,l),
(289,426,l),
(585,729,l),
(535,729,l),
(99,282,l),
(99,231,l),
(262,398,l),
(546,0,l)
);
},
{
closed = 1;
nodes = (
(108,0,l),
(108,729,l),
(70,729,l),
(70,0,l)
);
}
);
userData = {
com.schriftgestaltung.Glyphs.glyph.leftMetricsKey = H;
com.schriftgestaltung.hints = (
{
horizontal = 1;
options = 0;
origin = (
0,
11
);
stem = -2;
target = (
u,
p
);
type = BottomGhost;
},
{
horizontal = 1;
options = 0;
origin = (
0,
10
);
stem = -2;
target = (
d,
o,
w,
n
);
type = TopGhost;
},
{
horizontal = 0;
options = 0;
origin = (
0,
11
);
stem = -2;
target = (
0,
0
);
type = Stem;
}
);
};
width = 598;
},
{
anchors = (
{
name = bottom;
pos = (341,0);
},
{
name = top;
pos = (341,729);
}
);
background = {
shapes = (
{
closed = 1;
nodes = (
(262,0,l),
(262,163,l),
(349,273,l),
(506,0,l),
(746,0,l),
(488,420,l),
(735,729,l),
(496,729,l),
(262,417,l),
(262,729,l),
(59,729,l),
(59,0,l)
);
}
);
};
layerId = "DED42A87-C949-4722-A202-2B551272A3FB";
shapes = (
{
closed = 1;
nodes = (
(713,0,l),
(453,427,l),
(711,729,l),
(471,729,l),
(223,418,l),
(223,174,l),
(314,280,l),
(474,0,l)
);
},
{
closed = 1;
nodes = (
(233,0,l),
(233,729,l),
(30,729,l),
(30,0,l)
);
}
);
userData = {
com.schriftgestaltung.Glyphs.glyph.leftMetricsKey = H;
};
width = 707;
},
{
anchors = (
{
name = bottom;
pos = (339,0);
},
{
name = top;
pos = (339,729);
}
);
background = {
shapes = (
{
closed = 1;
nodes = (
(108,0,l),
(108,176,l),
(322,385,l),
(633,0,l),
(680,0,l),
(349,411,l),
(673,729,l),
(625,729,l),
(108,221,l),
(108,729,l),
(72,729,l),
(72,0,l)
);
}
);
};
layerId = "106FCE83-F343-403B-A314-646E4D059B3F";
shapes = (
{
closed = 1;
nodes = (
(698,0,l),
(329,430,l),
(634,729,l),
(579,729,l),
(89,250,l),
(89,196,l),
(299,402,l),
(645,0,l)
);
},
{
closed = 1;
nodes = (
(100,0,l),
(100,729,l),
(62,729,l),
(62,0,l)
);
}
);
width = 689;
},
{
anchors = (
{
name = bottom;
pos = (416,0);
},
{
name = top;
pos = (416,729);
}
);
layerId = "2D1A1AFE-39FB-4EBD-856C-88C6B057247F";
shapes = (
{
closed = 1;
nodes = (
(860,0,l),
(531,428,l),
(836,729,l),
(541,729,l),
(250,415,l),
(250,149,l),
(368,273,l),
(571,0,l)
);
},
{
closed = 1;
nodes = (
(261,0,l),
(261,729,l),
(32,729,l),
(32,0,l)
);
}
);
width = 842;
}
);
metricLeft = H;
unicode = 75;
}
{
glyphname = L;
kernLeft = KO_H;
kernRight = KO_L;
layers = (
{
anchors = (
{
name = bottom;
pos = (118,0);
},
{
name = center;
pos = (168,365);
},
{
name = top;
pos = (58,729);
},
{
name = topright;
pos = (95,729);
}
);
layerId = "71D8B5AD-B400-4239-9672-E7BA455EF2D0";
shapes = (
{
closed = 1;
nodes = (
(236,0,l),
(236,29,l),
(59,29,l),
(73,17,l),
(73,729,l),
(42,729,l),
(42,0,l)
);
}
);
width = 226;
},
{
anchors = (
{
name = bottom;
pos = (171,0);
},
{
name = center;
pos = (265,365);
},
{
name = top;
pos = (112,729);
},
{
name = topright;
pos = (205,729);
}
);
layerId = "FFCA1F59-E305-4E0F-BBF9-E0C4511C19C1";
shapes = (
{
closed = 1;
nodes = (
(335,0,l),
(335,163,l),
(180,163,l),
(205,136,l),
(205,729,l),
(18,729,l),
(18,0,l)
);
}
);
width = 339;
},
{
anchors = (
{
name = bottom;
pos = (234,0);
},
{
name = center;
pos = (290,365);
},
{
name = top;
pos = (89,729);
},
{
name = topright;
pos = (191,729);
}
);
layerId = "5A048DDA-4734-4F8A-A53C-0BED34B57D1C";
shapes = (
{
closed = 1;
nodes = (
(490,0,l),
(490,37,l),
(90,37,l),
(108,15,l),
(108,729,l),
(70,729,l),
(70,0,l)
);
}
);
userData = {
com.schriftgestaltung.Glyphs.glyph.leftMetricsKey = H;
com.schriftgestaltung.hints = (
{
horizontal = 1;
options = 0;
origin = (
0,
2
);
stem = -2;
target = (
0,
5
);
type = Stem;
},
{
horizontal = 1;
options = 0;
origin = (
0,
4
);
stem = -2;
target = (
d,
o,
w,
n
);
type = TopGhost;
},
{
horizontal = 0;
options = 0;
origin = (
0,
5
);
stem = -2;
target = (
0,
2
);
type = Stem;
}
);
};
width = 494;
},
{
anchors = (
{
name = bottom;
pos = (252,0);
},
{
name = center;
pos = (352,365);
},
{
name = top;
pos = (132,729);
},
{
name = topright;
pos = (283,729);
}
);
layerId = "DED42A87-C949-4722-A202-2B551272A3FB";
shapes = (
{
closed = 1;
nodes = (
(535,0,l),
(535,179,l),
(208,179,l),
(233,151,l),
(233,729,l),
(30,729,l),
(30,0,l)
);
}
);
userData = {
com.schriftgestaltung.Glyphs.glyph.leftMetricsKey = H;
};
width = 533;
},
{
anchors = (
{
name = bottom;
pos = (282,0);
},
{
name = center;
pos = (316,365);
},
{
name = top;
pos = (81,729);
},
{
name = topright;
pos = (219,729);
}
);
layerId = "106FCE83-F343-403B-A314-646E4D059B3F";
shapes = (
{
closed = 1;
nodes = (
(560,0,l),
(560,37,l),
(82,37,l),
(100,23,l),
(100,729,l),
(62,729,l),
(62,0,l)
);
}
);
width = 571;
},
{
anchors = (
{
name = bottom;
pos = (290,0);
},
{
name = center;
pos = (391,365);
},
{
name = top;
pos = (147,729);
},
{
name = topright;
pos = (281,729);
}
);
layerId = "2D1A1AFE-39FB-4EBD-856C-88C6B057247F";
shapes = (
{
closed = 1;
nodes = (
(611,0,l),
(611,186,l),
(216,186,l),
(261,141,l),
(261,729,l),
(32,729,l),
(32,0,l)
);
}
);
width = 611;
}
);
metricLeft = H;
unicode = 76;
userData = {
KernOnName = L;
};
}
{
glyphname = M;
kernLeft = KO_H;
kernRight = KO_H;
layers = (
{
anchors = (
{
name = bottom;
pos = (229,0);
},
{
name = top;
pos = (229,729);
}
);
background = {
shapes = (
{
closed = 1;
nodes = (
(93,0,l),
(93,414,l),
(90,693,l),
(96,693,l),
(238,0,l),
(267,0,l),
(408,693,l),
(415,693,l),
(412,414,l),
(412,0,l),
(444,0,l),
(444,729,l),
(385,729,l),
(252,75,l),
(251,75,l),
(119,729,l),
(61,729,l),
(61,0,l)
);
}
);
};
layerId = "71D8B5AD-B400-4239-9672-E7BA455EF2D0";
shapes = (
{
closed = 1;
nodes = (
(73,0,l),
(73,407,l),
(72,677,l),
(73,677,l),
(126,413,l),
(210,0,l),
(248,0,l),
(330,411,l),
(384,678,l),
(385,678,l),
(384,407,l),
(384,0,l),
(415,0,l),
(415,729,l),
(367,729,l),
(273,279,l),
(230,47,l),
(229,47,l),
(184,279,l),
(89,729,l),
(42,729,l),
(42,0,l)
);
}
);
width = 457;
},
{
anchors = (
{
name = bottom;
pos = (244,0);
},
{
name = top;
pos = (244,729);
}
);
associatedMasterId = "71D8B5AD-B400-4239-9672-E7BA455EF2D0";
attr = {
coordinates = (
75,
300,
100,
0
);
};
background = {
shapes = (
{
closed = 1;
nodes = (
(115,0,l),
(115,378,l),
(112,666,l),
(118,666,l),
(235,0,l),
(302,0,l),
(420,666,l),
(427,666,l),
(424,378,l),
(424,0,l),
(476,0,l),
(476,729,l),
(381,729,l),
(272,111,l),
(265,111,l),
(157,729,l),
(64,729,l),
(64,0,l)
);
}
);
};
layerId = "394B4DF2-E646-4557-83EC-2C41AB442AF7";
name = "{75, 300, 0}";
shapes = (
{
closed = 1;
nodes = (
(91,0,l),
(91,386,l),
(91,640,l),
(93,640,l),
(141,392,l),
(219,0,l),
(270,0,l),
(347,390,l),
(397,643,l),
(398,643,l),
(397,386,l),
(397,0,l),
(449,0,l),
(449,729,l),
(373,729,l),
(286,307,l),
(247,92,l),
(246,92,l),
(204,307,l),
(117,729,l),
(39,729,l),
(39,0,l)
);
}
);
width = 488;
},
{
anchors = (
{
name = bottom;
pos = (312,0);
},
{
name = top;
pos = (312,729);
}
);
background = {
shapes = (
{
closed = 1;
nodes = (
(198,0,l),
(198,162,l),
(196,503,l),
(202,503,l),
(267,0,l),
(379,0,l),
(444,503,l),
(450,503,l),
(448,162,l),
(448,0,l),
(617,0,l),
(617,729,l),
(370,729,l),
(326,328,l),
(319,328,l),
(274,729,l),
(29,729,l),
(29,0,l)
);
}
);
};
layerId = "FFCA1F59-E305-4E0F-BBF9-E0C4511C19C1";
shapes = (
{
closed = 1;
nodes = (
(187,0,l),
(187,262,l),
(188,421,l),
(189,421,l),
(215,263,l),
(256,0,l),
(368,0,l),
(411,263,l),
(438,430,l),
(439,430,l),
(437,262,l),
(437,0,l),
(606,0,l),
(606,729,l),
(372,729,l),
(330,473,l),
(312,359,l),
(311,359,l),
(292,473,l),
(250,729,l),
(18,729,l),
(18,0,l)
);
}
);
width = 624;
},
{
anchors = (
{
name = bottom;
pos = (416,0);
},
{
name = top;
pos = (416,729);
}
);
background = {
shapes = (
{
closed = 1;
nodes = (
(132,0,l),
(132,420,l),
(130,686,l),
(136,686,l),
(422,0,l),
(458,0,l),
(743,686,l),
(750,686,l),
(747,420,l),
(747,0,l),
(786,0,l),
(786,729,l),
(724,729,l),
(440,50,l),
(438,50,l),
(156,729,l),
(94,729,l),
(94,0,l)
);
}
);
};
layerId = "5A048DDA-4734-4F8A-A53C-0BED34B57D1C";
shapes = (
{
closed = 1;
nodes = (
(108,0,l),
(108,414,l),
(110,682,l),
(111,682,l),
(209,444,l),
(396,0,l),
(437,0,l),
(622,444,l),
(720,684,l),
(721,684,l),
(723,416,l),
(723,0,l),
(761,0,l),
(761,729,l),
(700,729,l),
(474,179,l),
(417,46,l),
(416,46,l),
(358,180,l),
(131,729,l),
(70,729,l),
(70,0,l)
);
}
);
userData = {
com.schriftgestaltung.Glyphs.glyph.leftMetricsKey = H;
com.schriftgestaltung.Glyphs.glyph.rightMetricsKey = H;
com.schriftgestaltung.hints = (
{
horizontal = 1;
options = 0;
origin = (
0,
16
);
stem = -2;
target = (
u,
p
);
type = BottomGhost;
},
{
horizontal = 1;
options = 0;
origin = (
0,
15
);
stem = -2;
target = (
0,
2
);
type = Stem;
},
{
horizontal = 0;
options = 0;
origin = (
0,
16
);
stem = -2;
target = (
0,
0
);
type = Stem;
},
{
horizontal = 0;
options = 0;
origin = (
0,
8
);
stem = -2;
target = (
0,
9
);
type = Stem;
}
);
};
width = 831;
},
{
anchors = (
{
name = bottom;
pos = (387,0);
},
{
name = top;
pos = (387,729);
}
);
associatedMasterId = "5A048DDA-4734-4F8A-A53C-0BED34B57D1C";
attr = {
coordinates = (
100,
300,
100,
0
);
};
background = {
shapes = (
{
closed = 1;
nodes = (
(159,0,l),
(159,393,l),
(157,662,l),
(163,662,l),
(423,0,l),
(480,0,l),
(742,662,l),
(749,662,l),
(746,394,l),
(746,0,l),
(807,0,l),
(807,729,l),
(706,729,l),
(453,90,l),
(451,90,l),
(200,729,l),
(98,729,l),
(98,0,l)
);
}
);
};
layerId = "4CED0082-91DB-40CF-9F74-A1F4B4152A60";
name = "{100, 300, 0}";
shapes = (
{
closed = 1;
nodes = (
(125,0,l),
(125,390,l),
(125,655,l),
(128,655,l),
(208,418,l),
(359,0,l),
(419,0,l),
(570,421,l),
(650,657,l),
(653,657,l),
(653,391,l),
(653,0,l),
(714,0,l),
(714,729,l),
(620,729,l),
(458,275,l),
(393,80,l),
(390,80,l),
(323,276,l),
(161,729,l),
(64,729,l),
(64,0,l)
);
}
);
userData = {
com.schriftgestaltung.Glyphs.glyph.leftMetricsKey = H;
com.schriftgestaltung.Glyphs.glyph.rightMetricsKey = H;
com.schriftgestaltung.hints = (
{
horizontal = 1;
options = 0;
origin = (
0,
16
);
stem = -2;
target = (
u,
p
);
type = BottomGhost;
},
{
horizontal = 1;
options = 0;
origin = (
0,
15
);
stem = -2;
target = (
0,
2
);
type = Stem;
},
{
horizontal = 0;
options = 0;
origin = (
0,
16
);
stem = -2;
target = (
0,
0
);
type = Stem;
},
{
horizontal = 0;
options = 0;
origin = (
0,
8
);
stem = -2;
target = (
0,
9
);
type = Stem;
}
);
};
width = 778;
},
{
anchors = (
{
name = bottom;
pos = (445,0);
},
{
name = top;
pos = (445,729);
}
);
background = {
shapes = (
{
closed = 1;
nodes = (
(266,0,l),
(266,233,l),
(263,518,l),
(272,518,l),
(392,0,l),
(558,0,l),
(678,518,l),
(685,518,l),
(683,235,l),
(683,0,l),
(879,0,l),
(879,729,l),
(573,729,l),
(479,333,l),
(471,333,l),
(374,729,l),
(68,729,l),
(68,0,l)
);
}
);
};
layerId = "DED42A87-C949-4722-A202-2B551272A3FB";
shapes = (
{
closed = 1;
nodes = (
(232,0,l),
(232,257,l),
(231,468,l),
(232,468,l),
(286,276,l),
(370,0,l),
(522,0,l),
(605,271,l),
(660,468,l),
(661,468,l),
(659,257,l),
(659,0,l),
(860,0,l),
(860,729,l),
(567,729,l),
(493,473,l),
(448,303,l),
(446,303,l),
(398,473,l),
(321,729,l),
(30,729,l),
(30,0,l)
);
}
);
userData = {
com.schriftgestaltung.Glyphs.glyph.leftMetricsKey = H;
com.schriftgestaltung.Glyphs.glyph.rightMetricsKey = H;
};
width = 890;
},
{
anchors = (
{
name = bottom;
pos = (461,0);
},
{
name = top;
pos = (461,729);
}
);
background = {
shapes = (
{
closed = 1;
nodes = (
(120,0,l),
(120,420,l),
(118,686,l),
(124,686,l),
(454,0,l),
(488,0,l),
(817,686,l),
(824,686,l),
(821,420,l),
(821,0,l),
(860,0,l),
(860,729,l),
(797,729,l),
(471,50,l),
(469,50,l),
(144,729,l),
(82,729,l),
(82,0,l)
);
}
);
};
layerId = "106FCE83-F343-403B-A314-646E4D059B3F";
shapes = (
{
closed = 1;
nodes = (
(100,0,l),
(100,483,l),
(98,686,l),
(99,686,l),
(195,491,l),
(438,0,l),
(482,0,l),
(725,489,l),
(822,686,l),
(823,686,l),
(821,483,l),
(821,0,l),
(859,0,l),
(859,729,l),
(802,729,l),
(564,256,l),
(461,39,l),
(460,39,l),
(357,256,l),
(120,729,l),
(62,729,l),
(62,0,l)
);
}
);
width = 921;
},
{
anchors = (
{
name = bottom;
pos = (469,0);
},
{
name = top;
pos = (469,729);
}
);
associatedMasterId = "106FCE83-F343-403B-A314-646E4D059B3F";
attr = {
coordinates = (
125,
300,
100,
0
);
};
background = {
shapes = (
{
closed = 1;
nodes = (
(131,0,l),
(131,393,l),
(129,660,l),
(135,660,l),
(434,0,l),
(498,0,l),
(799,660,l),
(806,660,l),
(804,394,l),
(804,0,l),
(867,0,l),
(867,729,l),
(763,729,l),
(468,82,l),
(465,82,l),
(172,729,l),
(68,729,l),
(68,0,l)
);
}
);
};
layerId = "EA1FE744-9D89-49DD-9835-CF7DF715E442";
name = "{125, 300, 0}";
shapes = (
{
closed = 1;
nodes = (
(122,0,l),
(122,444,l),
(120,656,l),
(121,656,l),
(212,463,l),
(435,0,l),
(498,0,l),
(721,462,l),
(813,656,l),
(814,656,l),
(812,445,l),
(812,0,l),
(875,0,l),
(875,729,l),
(781,729,l),
(560,269,l),
(468,69,l),
(467,69,l),
(374,269,l),
(153,729,l),
(58,729,l),
(58,0,l)
);
}
);
width = 933;
},
{
anchors = (
{
name = bottom;
pos = (516,0);
},
{
name = top;
pos = (516,729);
}
);
background = {
shapes = (
{
closed = 1;
nodes = (
(279,0,l),
(279,233,l),
(276,503,l),
(286,503,l),
(432,0,l),
(630,0,l),
(776,503,l),
(785,503,l),
(783,235,l),
(783,0,l),
(995,0,l),
(995,729,l),
(655,729,l),
(536,277,l),
(528,277,l),
(405,729,l),
(65,729,l),
(65,0,l)
);
}
);
};
layerId = "2D1A1AFE-39FB-4EBD-856C-88C6B057247F";
shapes = (
{
closed = 1;
nodes = (
(255,0,l),
(255,212,l),
(255,476,l),
(256,476,l),
(315,297,l),
(418,0,l),
(611,0,l),
(714,297,l),
(774,476,l),
(776,476,l),
(774,214,l),
(774,0,l),
(996,0,l),
(996,729,l),
(670,729,l),
(553,349,l),
(521,247,l),
(520,247,l),
(487,349,l),
(366,729,l),
(32,729,l),
(32,0,l)
);
}
);
width = 1028;
}
);
metricLeft = H;
metricRight = H;
unicode = 77;
}
{
glyphname = N;
kernLeft = KO_H;
kernRight = KO_H;
layers = (
{
anchors = (
{
name = bottom;
pos = (181,0);
},
{
name = top;
pos = (181,729);
}
);
background = {
shapes = (
{
closed = 1;
nodes = (
(80,0,l),
(80,416,l),
(76,672,l),
(82,672,l),
(314,0,l),
(362,0,l),
(362,729,l),
(330,729,l),
(330,322,l),
(334,56,l),
(329,56,l),
(95,729,l),
(48,729,l),
(48,0,l)
);
}
);
};
layerId = "71D8B5AD-B400-4239-9672-E7BA455EF2D0";
shapes = (
{
closed = 1;
nodes = (
(73,0,l),
(73,410,l),
(72,676,l),
(73,676,l),
(274,0,l),
(318,0,l),
(318,729,l),
(287,729,l),
(287,328,l),
(288,53,l),
(287,53,l),
(86,729,l),
(42,729,l),
(42,0,l)
);
}
);
width = 360;
},
{
anchors = (
{
name = bottom;
pos = (233,0);
},
{
name = top;
pos = (233,729);
}
);
background = {
shapes = (
{
closed = 1;
nodes = (
(193,0,l),
(193,157,l),
(184,358,l),
(190,358,l),
(271,0,l),
(458,0,l),
(458,729,l),
(294,729,l),
(294,575,l),
(303,366,l),
(296,366,l),
(218,729,l),
(29,729,l),
(29,0,l)
);
}
);
};
layerId = "FFCA1F59-E305-4E0F-BBF9-E0C4511C19C1";
shapes = (
{
closed = 1;
nodes = (
(182,0,l),
(182,157,l),
(180,338,l),
(181,338,l),
(265,0,l),
(447,0,l),
(447,729,l),
(283,729,l),
(283,575,l),
(286,386,l),
(285,386,l),
(204,729,l),
(18,729,l),
(18,0,l)
);
}
);
width = 465;
},
{
anchors = (
{
name = bottom;
pos = (358,0);
},
{
name = top;
pos = (358,729);
}
);
background = {
shapes = (
{
closed = 1;
nodes = (
(132,0,l),
(132,436,l),
(129,686,l),
(134,686,l),
(615,0,l),
(670,0,l),
(670,729,l),
(632,729,l),
(632,303,l),
(636,43,l),
(631,43,l),
(149,729,l),
(94,729,l),
(94,0,l)
);
}
);
};
layerId = "5A048DDA-4734-4F8A-A53C-0BED34B57D1C";
shapes = (
{
closed = 1;
nodes = (
(108,0,l),
(108,436,l),
(107,681,l),
(108,681,l),
(595,0,l),
(646,0,l),
(646,729,l),
(608,729,l),
(608,303,l),
(610,48,l),
(609,48,l),
(120,729,l),
(70,729,l),
(70,0,l)
);
}
);
userData = {
com.schriftgestaltung.Glyphs.glyph.leftMetricsKey = H;
com.schriftgestaltung.Glyphs.glyph.rightMetricsKey = H;
com.schriftgestaltung.hints = (
{
horizontal = 1;
options = 0;
origin = (
0,
10
);
stem = -2;
target = (
0,
13
);
type = Stem;
},
{
horizontal = 1;
options = 0;
origin = (
0,
12
);
stem = -2;
target = (
0,
2
);
type = Stem;
},
{
horizontal = 0;
options = 0;
origin = (
0,
13
);
stem = -2;
target = (
0,
0
);
type = Stem;
},
{
horizontal = 0;
options = 0;
origin = (
0,
8
);
stem = -2;
target = (
0,
5
);
type = Stem;
}
);
};
width = 716;
},
{
anchors = (
{
name = bottom;
pos = (366,0);
},
{
name = top;
pos = (366,729);
}
);
background = {
shapes = (
{
closed = 1;
nodes = (
(266,0,l),
(266,236,l),
(261,431,l),
(269,431,l),
(506,0,l),
(731,0,l),
(731,729,l),
(536,729,l),
(536,504,l),
(543,282,l),
(535,282,l),
(298,729,l),
(59,729,l),
(59,0,l)
);
}
);
};
layerId = "DED42A87-C949-4722-A202-2B551272A3FB";
shapes = (
{
closed = 1;
nodes = (
(233,0,l),
(233,226,l),
(233,391,l),
(234,391,l),
(482,0,l),
(707,0,l),
(707,729,l),
(507,729,l),
(507,514,l),
(508,328,l),
(507,328,l),
(251,729,l),
(30,729,l),
(30,0,l)
);
}
);
userData = {
com.schriftgestaltung.Glyphs.glyph.leftMetricsKey = H;
com.schriftgestaltung.Glyphs.glyph.rightMetricsKey = H;
};
width = 737;
},
{
anchors = (
{
name = bottom;
pos = (393,0);
},
{
name = top;
pos = (393,729);
}
);
layerId = "106FCE83-F343-403B-A314-646E4D059B3F";
shapes = (
{
closed = 1;
nodes = (
(100,0,l),
(100,436,l),
(99,685,l),
(100,685,l),
(671,0,l),
(723,0,l),
(723,729,l),
(685,729,l),
(685,303,l),
(687,44,l),
(686,44,l),
(114,729,l),
(62,729,l),
(62,0,l)
);
}
);
width = 785;
},
{
anchors = (
{
name = bottom;
pos = (426,0);
},
{
name = top;
pos = (426,729);
}
);
layerId = "2D1A1AFE-39FB-4EBD-856C-88C6B057247F";
shapes = (
{
closed = 1;
nodes = (
(263,0,l),
(263,226,l),
(256,424,l),
(265,424,l),
(547,0,l),
(819,0,l),
(819,729,l),
(592,729,l),
(592,504,l),
(598,299,l),
(590,299,l),
(308,729,l),
(32,729,l),
(32,0,l)
);
}
);
width = 851;
}
);
metricLeft = H;
metricRight = H;
unicode = 78;
}
{
glyphname = O;
kernLeft = KO_O;
kernRight = KO_O;
layers = (
{
anchors = (
{
name = bottom;
pos = (179,0);
},
{
name = center;
pos = (179,365);
},
{
name = ogonek;
pos = (246,10);
},
{
name = top;
pos = (179,729);
},
{
name = topleft;
pos = (6,729);
},
{
name = topright;
pos = (270,699);
}
);
background = {
shapes = (
{
closed = 1;
nodes = (
(469,-8,o),
(541,126,o),
(541,366,cs),
(541,605,o),
(469,739,o),
(282,739,cs),
(95,739,o),
(23,605,o),
(23,366,cs),
(23,126,o),
(95,-8,o),
(282,-8,cs)
);
},
{
closed = 1;
nodes = (
(128,28,o),
(64,150,o),
(64,337,cs),
(64,394,ls),
(64,581,o),
(128,703,o),
(282,703,cs),
(436,703,o),
(500,581,o),
(500,394,cs),
(500,337,ls),
(500,150,o),
(436,28,o),
(282,28,cs)
);
}
);
};
layerId = "71D8B5AD-B400-4239-9672-E7BA455EF2D0";
shapes = (
{
closed = 1;
nodes = (
(289,-10,o),
(329,100,o),
(329,364,cs),
(329,628,o),
(289,738,o),
(178,738,cs),
(67,738,o),
(28,628,o),
(28,364,cs),
(28,100,o),
(67,-10,o),
(178,-10,cs)
);
},
{
closed = 1;
nodes = (
(90,19,o),
(61,119,o),
(61,364,cs),
(61,609,o),
(90,709,o),
(178,709,cs),
(267,709,o),
(296,609,o),
(296,364,cs),
(296,119,o),
(267,19,o),
(178,19,cs)
);
}
);
width = 357;
},
{
anchors = (
{
name = bottom;
pos = (240,0);
},
{
name = center;
pos = (240,365);
},
{
name = ogonek;
pos = (444,10);
},
{
name = top;
pos = (240,729);
},
{
name = topleft;
pos = (5,729);
},
{
name = topright;
pos = (332,709);
}
);
layerId = "FFCA1F59-E305-4E0F-BBF9-E0C4511C19C1";
shapes = (
{
closed = 1;
nodes = (
(422,-9,o),
(473,136,o),
(473,365,cs),
(473,594,o),
(422,739,o),
(240,739,cs),
(59,739,o),
(7,595,o),
(7,365,cs),
(7,135,o),
(59,-9,o),
(240,-9,cs)
);
},
{
closed = 1;
nodes = (
(203,147,o),
(195,200,o),
(195,365,cs),
(195,532,o),
(203,583,o),
(240,583,cs),
(277,583,o),
(286,532,o),
(286,365,cs),
(286,200,o),
(277,147,o),
(240,147,cs)
);
}
);
width = 480;
},
{
anchors = (
{
name = bottom;
pos = (385,0);
},
{
name = center;
pos = (385,365);
},
{
name = ogonek;
pos = (702,10);
},
{
name = top;
pos = (385,729);
},
{
name = topleft;
pos = (9,729);
},
{
name = topright;
pos = (552,699);
}
);
layerId = "5A048DDA-4734-4F8A-A53C-0BED34B57D1C";
shapes = (
{
closed = 1;
nodes = (
(595,-8,o),
(735,140,o),
(735,364,cs),
(735,587,o),
(597,736,o),
(385,736,cs),
(174,736,o),
(35,588,o),
(35,364,cs),
(35,142,o),
(173,-8,o),
(385,-8,cs)
);
},
{
closed = 1;
nodes = (
(194,28,o),
(76,163,o),
(76,364,cs),
(76,565,o),
(193,700,o),
(385,700,cs),
(576,700,o),
(695,566,o),
(695,364,cs),
(695,164,o),
(577,28,o),
(385,28,cs)
);
}
);
userData = {
com.schriftgestaltung.hints = (
{
horizontal = 1;
options = 0;
place = (
0,
0
);
stem = -2;
type = Stem;
},
{
horizontal = 1;
options = 0;
origin = (
0,
8
);
stem = -2;
target = (
1,
2
);
type = Stem;
},
{
horizontal = 0;
options = 0;
place = (
0,
0
);
stem = -2;
type = Stem;
},
{
horizontal = 0;
options = 0;
origin = (
1,
5
);
stem = -2;
target = (
0,
5
);
type = Stem;
}
);
};
width = 770;
},
{
anchors = (
{
name = bottom;
pos = (376,0);
},
{
name = center;
pos = (376,365);
},
{
name = ogonek;
pos = (698,10);
},
{
name = top;
pos = (376,729);
},
{
name = topleft;
pos = (-8,729);
},
{
name = topright;
pos = (534,709);
}
);
background = {
shapes = (
{
closed = 1;
nodes = (
(626,-10,o),
(775,121,o),
(775,365,cs),
(775,608,o),
(626,739,o),
(402,739,cs),
(178,739,o),
(29,608,o),
(29,365,cs),
(29,121,o),
(178,-10,o),
(402,-10,cs)
);
},
{
closed = 1;
nodes = (
(306,166,o),
(242,222,o),
(242,365,cs),
(242,507,o),
(306,563,o),
(402,563,cs),
(498,563,o),
(562,507,o),
(562,365,cs),
(562,222,o),
(498,166,o),
(402,166,cs)
);
}
);
};
layerId = "DED42A87-C949-4722-A202-2B551272A3FB";
shapes = (
{
closed = 1;
nodes = (
(610,-10,o),
(749,129,o),
(749,365,cs),
(749,600,o),
(610,739,o),
(375,739,cs),
(141,739,o),
(2,600,o),
(2,365,cs),
(2,129,o),
(141,-10,o),
(375,-10,cs)
);
},
{
closed = 1;
nodes = (
(270,162,o),
(212,234,o),
(212,365,cs),
(212,495,o),
(270,567,o),
(375,567,cs),
(481,567,o),
(539,495,o),
(539,365,cs),
(539,234,o),
(481,162,o),
(375,162,cs)
);
}
);
width = 751;
},
{
anchors = (
{
name = bottom;
pos = (418,0);
},
{
name = center;
pos = (418,365);
},
{
name = ogonek;
pos = (755,10);
},
{
name = top;
pos = (418,729);
},
{
name = topleft;
pos = (17,729);
},
{
name = topright;
pos = (572,709);
}
);
layerId = "106FCE83-F343-403B-A314-646E4D059B3F";
shapes = (
{
closed = 1;
nodes = (
(650,-8,o),
(798,137,o),
(798,364,cs),
(798,591,o),
(650,736,o),
(418,736,cs),
(186,736,o),
(38,591,o),
(38,364,cs),
(38,137,o),
(186,-8,o),
(418,-8,cs)
);
},
{
closed = 1;
nodes = (
(210,28,o),
(78,159,o),
(78,364,cs),
(78,569,o),
(210,700,o),
(418,700,cs),
(626,700,o),
(758,569,o),
(758,364,cs),
(758,159,o),
(626,28,o),
(418,28,cs)
);
}
);
width = 836;
},
{
anchors = (
{
name = bottom;
pos = (440,0);
},
{
name = center;
pos = (440,365);
},
{
name = ogonek;
pos = (796,10);
},
{
name = top;
pos = (440,729);
},
{
name = topleft;
pos = (14,729);
},
{
name = topright;
pos = (623,709);
}
);
layerId = "2D1A1AFE-39FB-4EBD-856C-88C6B057247F";
shapes = (
{
closed = 1;
nodes = (
(708,-10,o),
(865,129,o),
(865,365,cs),
(865,600,o),
(708,739,o),
(441,739,cs),
(173,739,o),
(14,600,o),
(14,365,cs),
(14,129,o),
(173,-10,o),
(441,-10,cs)
);
},
{
closed = 1;
nodes = (
(317,170,o),
(249,239,o),
(249,365,cs),
(249,491,o),
(317,560,o),
(441,560,cs),
(564,560,o),
(631,491,o),
(631,365,cs),
(631,239,o),
(564,170,o),
(441,170,cs)
);
}
);
width = 879;
}
);
metricRight = "=|";
unicode = 79;
userData = {
KernOnName = O;
};
}
{
glyphname = P;
kernLeft = KO_H;
kernRight = KO_P;
layers = (
{
anchors = (
{
name = bottom;
pos = (165,0);
},
{
name = top;
pos = (165,729);
}
);
layerId = "71D8B5AD-B400-4239-9672-E7BA455EF2D0";
shapes = (
{
closed = 1;
nodes = (
(73,0,l),
(73,711,l),
(60,701,l),
(145,701,ls),
(226,701,o),
(273,651,o),
(273,522,cs),
(273,391,o),
(225,343,o),
(145,343,cs),
(66,343,l),
(66,315,l),
(147,315,ls),
(263,315,o),
(306,398,o),
(306,522,cs),
(306,646,o),
(262,729,o),
(147,729,cs),
(42,729,l),
(42,0,l)
);
}
);
width = 313;
},
{
anchors = (
{
name = bottom;
pos = (224,0);
},
{
name = top;
pos = (224,729);
}
);
background = {
shapes = (
{
closed = 1;
nodes = (
(232,0,l),
(232,231,l),
(350,231,ls),
(540,231,o),
(630,331,o),
(630,480,cs),
(630,649,o),
(522,729,o),
(360,729,cs),
(29,729,l),
(29,0,l)
);
},
{
closed = 1;
nodes = (
(232,550,l),
(336,550,ls),
(392,550,o),
(418,526,o),
(418,472,cs),
(418,423,o),
(396,394,o),
(336,394,cs),
(232,394,l)
);
}
);
};
layerId = "FFCA1F59-E305-4E0F-BBF9-E0C4511C19C1";
shapes = (
{
closed = 1;
nodes = (
(197,0,l),
(197,594,l),
(173,572,l),
(213,572,ls),
(250,572,o),
(267,550,o),
(267,476,cs),
(267,414,o),
(259,375,o),
(213,375,cs),
(181,375,l),
(181,218,l),
(219,218,ls),
(374,218,o),
(452,302,o),
(452,474,cs),
(452,644,o),
(374,729,o),
(219,729,cs),
(18,729,l),
(18,0,l)
);
}
);
width = 456;
},
{
anchors = (
{
name = bottom;
pos = (290,0);
},
{
name = top;
pos = (290,729);
}
);
layerId = "5A048DDA-4734-4F8A-A53C-0BED34B57D1C";
shapes = (
{
closed = 1;
nodes = (
(108,0,l),
(108,704,l),
(94,692,l),
(334,692,ls),
(467,692,o),
(542,623,o),
(542,509,cs),
(542,398,o),
(468,325,o),
(334,325,cs),
(99,325,l),
(99,289,l),
(336,289,ls),
(486,289,o),
(582,375,o),
(582,509,cs),
(582,649,o),
(487,729,o),
(337,729,cs),
(70,729,l),
(70,0,l)
);
}
);
userData = {
com.schriftgestaltung.hints = (
{
horizontal = 1;
options = 0;
origin = (
0,
10
);
stem = -2;
target = (
u,
p
);
type = BottomGhost;
},
{
horizontal = 1;
options = 0;
place = (
0,
0
);
stem = -2;
type = Stem;
},
{
horizontal = 1;
options = 0;
origin = (
0,
9
);
stem = -2;
target = (
1,
0
);
type = Stem;
},
{
horizontal = 0;
options = 0;
origin = (
0,
10
);
stem = -2;
target = (
0,
0
);
type = Stem;
},
{
horizontal = 0;
options = 0;
origin = (
1,
4
);
stem = -2;
target = (
0,
5
);
type = Stem;
}
);
};
width = 607;
},
{
anchors = (
{
name = bottom;
pos = (305,0);
},
{
name = top;
pos = (305,729);
}
);
background = {
shapes = (
{
closed = 1;
nodes = (
(262,0,l),
(262,583,l),
(240,559,l),
(354,559,ls),
(397,559,o),
(451,549,o),
(451,474,cs),
(451,396,o),
(397,387,o),
(354,387,cs),
(246,387,l),
(246,232,l),
(390,232,ls),
(561,232,o),
(657,334,o),
(657,482,cs),
(657,639,o),
(551,729,o),
(390,729,cs),
(59,729,l),
(59,0,l)
);
}
);
};
layerId = "DED42A87-C949-4722-A202-2B551272A3FB";
shapes = (
{
closed = 1;
nodes = (
(233,0,l),
(233,581,l),
(211,559,l),
(324,559,ls),
(378,559,o),
(418,538,o),
(418,475,cs),
(418,425,o),
(391,387,o),
(324,387,cs),
(217,387,l),
(217,232,l),
(341,232,ls),
(513,232,o),
(628,322,o),
(628,482,cs),
(628,630,o),
(536,729,o),
(341,729,cs),
(30,729,l),
(30,0,l)
);
}
);
width = 628;
},
{
anchors = (
{
name = bottom;
pos = (340,0);
},
{
name = top;
pos = (340,729);
}
);
layerId = "106FCE83-F343-403B-A314-646E4D059B3F";
shapes = (
{
closed = 1;
nodes = (
(100,0,l),
(100,710,l),
(82,692,l),
(402,692,ls),
(544,692,o),
(619,623,o),
(619,509,cs),
(619,398,o),
(545,325,o),
(402,325,cs),
(91,325,l),
(91,289,l),
(404,289,ls),
(563,289,o),
(659,375,o),
(659,509,cs),
(659,649,o),
(564,729,o),
(405,729,cs),
(62,729,l),
(62,0,l)
);
}
);
width = 678;
},
{
anchors = (
{
name = bottom;
pos = (358,0);
},
{
name = top;
pos = (358,729);
}
);
background = {
shapes = (
{
closed = 1;
nodes = (
(276,0,l),
(276,237,l),
(415,237,ls),
(657,237,o),
(737,334,o),
(737,483,cs),
(737,665,o),
(621,729,o),
(415,729,cs),
(47,729,l),
(47,0,l)
);
},
{
closed = 1;
nodes = (
(276,550,l),
(398,550,ls),
(455,550,o),
(499,535,o),
(499,475,cs),
(499,426,o),
(472,399,o),
(398,399,cs),
(276,399,l)
);
}
);
};
layerId = "2D1A1AFE-39FB-4EBD-856C-88C6B057247F";
shapes = (
{
closed = 1;
nodes = (
(261,0,l),
(261,599,l),
(216,554,l),
(394,554,ls),
(447,554,o),
(488,538,o),
(488,476,cs),
(488,425,o),
(462,397,o),
(394,397,cs),
(245,397,l),
(245,239,l),
(419,239,ls),
(598,239,o),
(718,308,o),
(718,484,cs),
(718,631,o),
(634,729,o),
(419,729,cs),
(32,729,l),
(32,0,l)
);
}
);
width = 715;
}
);
metricLeft = H;
unicode = 80;
userData = {
KernOnName = P;
};
}
